SplineFontDB: 2.0
FontName: THKoHo-BoldItalic
FullName: THKoHo-BoldItalic
FamilyName: TH KoHo
Weight: Bold
Copyright: Copyright (c) 2006¢y Department of Intellectual Property (DIP), Ministry of Commerce and Software Industry Promotion Agency (Public Organization) (SIPA). All rights reserved.
Version: 1.1
ItalicAngle: -12
UnderlinePosition: -35
UnderlineWidth: 30
Ascent: 800
Descent: 200
NeedsXUIDChange: 1
XUID: [1021 375 425136265 10630497]
FSType: 0
OS2Version: 3
OS2_WeightWidthSlopeOnly: 0
OS2_UseTypoMetrics: 1
CreationTime: 1158666900
ModificationTime: 1204637178
PfmFamily: 17
TTFWeight: 700
TTFWidth: 5
LineGap: 60
VLineGap: 0
Panose: 2 0 8 6 0 0 0 2 0 4
OS2TypoAscent: 0
OS2TypoAOffset: 1
OS2TypoDescent: 0
OS2TypoDOffset: 1
OS2TypoLinegap: 0
OS2WinAscent: -43
OS2WinAOffset: 1
OS2WinDescent: -196
OS2WinDOffset: 1
HheadAscent: -43
HheadAOffset: 1
HheadDescent: 196
HheadDOffset: 1
OS2SubXSize: 700
OS2SubYSize: 650
OS2SubXOff: 0
OS2SubYOff: 140
OS2SupXSize: 700
OS2SupYSize: 650
OS2SupXOff: 0
OS2SupYOff: 477
OS2StrikeYSize: 30
OS2StrikeYPos: 250
OS2FamilyClass: 773
OS2Vendor: 'IPTH'
Lookup: 4 0 0 "'frac' Diagonal Fractions in Latin lookup 0"  {"'frac' Diagonal Fractions in Latin lookup 0 subtable"  } ['frac' ('latn' <'dflt' > ) ]
Lookup: 6 0 0 "'liga' Standard Ligatures in Latin lookup 1"  {"'liga' Standard Ligatures in Latin lookup 1 subtable"  } ['liga' ('latn' <'dflt' > ) ]
Lookup: 6 0 0 "'liga' Standard Ligatures in Latin lookup 2"  {"'liga' Standard Ligatures in Latin lookup 2 subtable"  } ['liga' ('latn' <'dflt' > ) ]
Lookup: 6 0 0 "'liga' Standard Ligatures in Latin lookup 3"  {"'liga' Standard Ligatures in Latin lookup 3 subtable"  } ['liga' ('latn' <'dflt' > ) ]
Lookup: 6 0 0 "'liga' Standard Ligatures in Latin lookup 4"  {"'liga' Standard Ligatures in Latin lookup 4 subtable"  } ['liga' ('latn' <'dflt' > ) ]
Lookup: 6 0 0 "'liga' Standard Ligatures in Latin lookup 5"  {"'liga' Standard Ligatures in Latin lookup 5 subtable"  } ['liga' ('latn' <'dflt' > ) ]

StartChar: .notdef
Encoding: 65536 -1 0
Width: 733
VWidth: 1467
Flags: W
HStem: 0 51<150 598> 968 52<345 793>
Fore
598 51 m 1
 793 968 l 1
 345 968 l 1
 150 51 l 1
 598 51 l 1
640 0 m 1
 92 0 l 1
 306 1020 l 1
 854 1020 l 1
 640 0 l 1
EndSplineSet
EndChar
StartChar: numbersign
Encoding: 35 35 4
Width: 746
VWidth: 1467
Flags: W
HStem: -1 21G<167 250.33 411 493.697> 217 46<129 237 327 482 572 703> 425 46<191 304 395 549 641 762>
Fore
565 471 m 1
 588 537 613 613 632 682 c 1
 710 682 l 1
 641 471 l 1
 784 471 l 1
 762 425 l 1
 626 425 l 1
 604 357 590 312 572 263 c 1
 724 263 l 1
 703 217 l 1
 560 217 l 1
 487 -1 l 1
 411 -1 l 1
 482 217 l 1
 313 217 l 1
 244 -1 l 1
 167 -1 l 1
 237 217 l 1
 109 217 l 1
 129 263 l 1
 251 263 l 1
 270 328 285 360 304 425 c 1
 169 425 l 1
 191 471 l 1
 320 471 l 1
 390 682 l 1
 463 682 l 1
 395 471 l 1
 565 471 l 1
496 263 m 1
 502 284 542 406 549 425 c 1
 379 425 l 1
 361 360 346 328 327 263 c 1
 496 263 l 1
EndSplineSet
EndChar
StartChar: dollar
Encoding: 36 36 5
Width: 698
VWidth: 1467
Flags: W
HStem: -13 69<238.259 308 395 482.656> 646 67<375.04 448 536 590.357>
VStem: 97 80<75.1297 125.426> 195 82<433.718 563.684> 588 83<140.932 268.181>
Fore
465 380 m 1
 577 364 671 338 671 232 c 0
 671 62 500 -3 381 -13 c 1
 356 -142 l 1
 283 -142 l 1
 308 -13 l 1
 246 -8 123 10 97 141 c 1
 177 141 l 1
 189 84 259 65 323 56 c 1
 382 333 l 1
 263 354 195 396 195 481 c 0
 195 620 340 702 463 713 c 1
 487 829 l 1
 559 829 l 1
 536 715 l 1
 592 710 719 678 718 569 c 1
 642 569 l 1
 632 594 618 629 522 647 c 1
 465 380 l 1
448 646 m 1
 421 641 277 615 277 492 c 0
 277 420 336 408 395 395 c 1
 448 646 l 1
395 54 m 1
 557 64 588 163 588 216 c 0
 588 274 534 297 452 318 c 1
 395 54 l 1
EndSplineSet
EndChar
StartChar: percent
Encoding: 37 37 6
Width: 1018
VWidth: 1467
Flags: W
HStem: 15 61<738.386 840.296> 295 62<253.581 357.867> 361 64<787.362 890.946> 641 63<308.102 406.817>
VStem: 151 78<383.086 540.743> 428 86<451.027 619.603> 624 84<104.991 260.925> 915 88<175.852 337.22>
Fore
897 707 m 1
 320 -4 l 1
 228 -4 l 1
 804 707 l 1
 897 707 l 1
151 451 m 0
 151 583 262 704 377 704 c 0
 459 704 514 634 514 547 c 0
 514 438 422 295 285 295 c 0
 208 295 151 359 151 451 c 0
363 641 m 0
 282 641 229 521 229 447 c 0
 229 382 272 357 306 357 c 0
 373 357 428 450 428 544 c 0
 428 603 403 641 363 641 c 0
624 173 m 0
 624 299 737 425 852 425 c 0
 948 425 1003 358 1003 275 c 0
 1003 176 919 15 776 15 c 0
 673 15 624 87 624 173 c 0
841 361 m 0
 761 361 708 241 708 171 c 0
 708 101 759 76 786 76 c 0
 851 76 915 164 915 262 c 0
 915 319 891 361 841 361 c 0
EndSplineSet
EndChar
StartChar: ampersand
Encoding: 38 38 7
Width: 698
VWidth: 1467
Flags: W
HStem: -6 69<201.481 389.589> 672 59<374.938 516.159>
VStem: 54 92<114.31 244.653> 231 79<501.592 608.651> 534 76<539.218 653.438>
Fore
610 609 m 0
 610 523 541 448 370 393 c 1
 457 267 l 2
 482 231 505 202 525 179 c 1
 556 212 l 2
 597 256 624 312 652 383 c 1
 735 383 l 1
 707 310 658 207 571 129 c 1
 579 118 589 107 599 96 c 2
 691 0 l 1
 577 -1 l 1
 510 78 l 1
 437 26 373 -6 265 -6 c 0
 160 -6 54 65 54 164 c 0
 54 262 146 354 269 408 c 1
 240 461 231 499 231 526 c 0
 231 615 315 731 466 731 c 0
 539 731 610 688 610 609 c 0
455 672 m 0
 339 672 310 579 310 533 c 0
 310 510 318 483 348 442 c 1
 414 472 l 2
 488 505 534 541 534 605 c 0
 534 647 503 672 455 672 c 0
300 359 m 1
 202 317 146 248 146 175 c 0
 146 99 221 63 281 63 c 0
 333 63 377 68 461 126 c 1
 401 210 l 1
 300 359 l 1
EndSplineSet
EndChar
StartChar: quotesingle
Encoding: 39 39 8
Width: 201
VWidth: 1467
Flags: W
HStem: 497 207<203 228 175 288 203 203>
Fore
228 497 m 1
 175 497 l 1
 203 704 l 1
 288 704 l 1
 228 497 l 1
EndSplineSet
EndChar
StartChar: parenleft
Encoding: 40 40 9
Width: 324
VWidth: 1467
Flags: W
VStem: 139 77<57.7442 265.581>
Fore
231 343 m 0
 221 294 216 248 216 204 c 0
 216 97 246 6 303 -85 c 1
 227 -85 l 1
 166 2 139 100 139 203 c 0
 139 249 145 296 155 343 c 0
 198 544 297 670 410 781 c 1
 489 781 l 1
 340 645 266 507 231 343 c 0
EndSplineSet
EndChar
StartChar: parenright
Encoding: 41 41 10
Width: 325
VWidth: 1467
Flags: W
VStem: 252 76<428.475 639.673>
Fore
236 352 m 0
 247 403 252 450 252 494 c 0
 252 598 223 686 166 781 c 1
 241 781 l 1
 302 694 328 596 328 493 c 0
 328 446 323 399 313 352 c 0
 270 152 168 21 58 -85 c 1
 -17 -85 l 1
 96 22 194 153 236 352 c 0
EndSplineSet
EndChar
StartChar: asterisk
Encoding: 42 42 11
Width: 466
VWidth: 1467
Flags: W
HStem: 361 381<253 438 438 438> 573 20<155.61 299 396 550>
VStem: 142 408<509 593 509 509>
Fore
550 593 m 1x60
 533 511 l 1
 387 524 l 1
 451 411 l 1
 374 370 l 1
 335 494 l 1
 253 361 l 1
 187 395 l 1
 296 524 l 1
 142 509 l 1
 160 591 l 1
 299 580 l 1
 233 697 l 1
 313 738 l 1
 352 603 l 1
 438 742 l 1xa0
 502 707 l 1
 396 578 l 1
 550 593 l 1x60
EndSplineSet
EndChar
StartChar: plus
Encoding: 43 43 12
Width: 641
VWidth: 1467
Flags: W
HStem: 0 21G<276 368.034> 238 80<108 324 429 648>
Fore
412 238 m 1
 364 0 l 1
 276 0 l 1
 324 238 l 1
 91 238 l 1
 108 318 l 1
 341 318 l 1
 392 562 l 1
 480 562 l 1
 429 318 l 1
 665 318 l 1
 648 238 l 1
 412 238 l 1
EndSplineSet
EndChar
StartChar: comma
Encoding: 44 44 13
Width: 206
VWidth: 1467
Flags: W
HStem: -109 214<44 136 136 136> -20 20<69.5 89 113.5 116>
VStem: 47 136<0.981201 69.3029>
Fore
183 59 m 0xa0
 183 1 120 -76 44 -109 c 1
 2 -109 l 1xa0
 90 -60 112 -19 120 0 c 1x60
 107 -8 95 -12 83 -12 c 0
 56 -12 47 0 47 16 c 0
 47 53 84 105 136 105 c 0
 169 105 183 84 183 59 c 0xa0
EndSplineSet
EndChar
StartChar: hyphen
Encoding: 45 45 14
Width: 371
VWidth: 1467
Flags: W
HStem: 235 83<121 360 103 378 121 121>
Fore
103 235 m 1
 121 318 l 1
 378 318 l 1
 360 235 l 1
 103 235 l 1
EndSplineSet
EndChar
StartChar: period
Encoding: 46 46 15
Width: 206
VWidth: 1467
Flags: W
HStem: -16 133<80.5149 140.608>
VStem: 55 111<9.96941 90.554>
Fore
55 28 m 0
 55 72 84 117 126 117 c 0
 153 117 166 99 166 72 c 0
 166 28 134 -16 98 -16 c 0
 79 -16 55 -7 55 28 c 0
EndSplineSet
EndChar
StartChar: slash
Encoding: 47 47 16
Width: 448
VWidth: 1467
Flags: W
Fore
64 -43 m 1
 -19 -43 l 1
 512 723 l 1
 600 723 l 1
 64 -43 l 1
EndSplineSet
EndChar
StartChar: zero
Encoding: 48 48 17
Width: 642
VWidth: 1467
Flags: W
HStem: 3 59<263.502 404.425> 640 58<384.33 520.706>
VStem: 129 84<115.995 361.969> 570 84<335.336 583.728>
Fore
654 485 m 0
 654 372 587 3 319 3 c 0
 179 3 129 95 129 213 c 0
 129 326 198 698 472 698 c 0
 613 698 654 594 654 485 c 0
333 62 m 0
 514 62 570 379 570 478 c 0
 570 562 544 640 455 640 c 0
 276 640 213 316 213 215 c 0
 213 132 241 62 333 62 c 0
EndSplineSet
EndChar
StartChar: one
Encoding: 49 49 18
Width: 642
VWidth: 1467
Flags: W
HStem: -4 21G<288 368.269>
VStem: 288 225<-4 694 -4 -4>
Fore
288 -4 m 1
 417 602 l 1
 344 565 l 1
 352 590 358 621 365 649 c 1
 395 660 377 656 458 694 c 1
 513 694 l 1
 364 -4 l 1
 288 -4 l 1
EndSplineSet
EndChar
StartChar: two
Encoding: 50 50 19
Width: 642
VWidth: 1467
Flags: W
HStem: 3 69<232 419.506 419.506 538> 633 64<360.301 563.566>
VStem: 606 77<501.028 598.598>
Fore
467 697 m 0
 637 697 683 630 683 570 c 0
 683 486 552 338 335 157 c 2
 232 72 l 1
 338 72 l 2
 387 72 474 73 542 78 c 2
 553 79 l 1
 538 3 l 1
 90 3 l 1
 101 48 l 1
 142 91 196 123 329 245 c 2
 441 342 l 2
 566 455 606 512 606 555 c 0
 606 617 510 633 462 633 c 0
 405 633 306 612 267 602 c 2
 254 600 l 1
 262 623 268 649 275 673 c 1
 333 685 430 697 467 697 c 0
EndSplineSet
EndChar
StartChar: three
Encoding: 51 51 20
Width: 642
VWidth: 1467
Flags: W
HStem: -2 60<155.768 396.636> 323 72<306 334.023 334.023 475.995> 641 59<339.973 537.604>
VStem: 531 83<160.122 279.57> 587 83<488.509 599.744>
Fore
287 58 m 0xf0
 409 58 531 133 531 225 c 0xf0
 531 270 497 324 357 324 c 2
 288 323 l 1
 306 395 l 1
 316 392 353 392 362 392 c 0
 524 392 587 481 587 545 c 0
 587 621 501 641 436 641 c 0
 362 641 269 616 269 616 c 1
 290 682 l 1
 331 692 404 700 459 700 c 0
 554 700 670 670 670 573 c 0xe8
 670 522 634 398 489 362 c 1
 505 357 614 337 614 244 c 0
 614 195 568 -2 276 -2 c 0
 166 -2 122 22 91 26 c 1
 100 101 l 1
 139 84 206 58 287 58 c 0xf0
EndSplineSet
EndChar
StartChar: four
Encoding: 52 52 21
Width: 642
VWidth: 1467
Flags: W
HStem: -6 21G<398 491.347> 239 66<234 453 543 633> 681 20G<506.556 629>
Fore
453 239 m 1
 127 239 l 1
 141 305 l 1
 526 701 l 1
 629 701 l 1
 543 305 l 1
 647 305 l 1
 633 239 l 1
 529 239 l 1
 488 -6 l 1
 398 -6 l 1
 453 239 l 1
234 305 m 1
 466 305 l 1
 527 621 l 1
 234 305 l 1
EndSplineSet
EndChar
StartChar: five
Encoding: 53 53 22
Width: 642
VWidth: 1467
Flags: W
HStem: -20 53<146.348 359.589> 356 53<271.375 301.887> 356 64<304.76 463.456> 635 62<348 619.971 622.375 682>
VStem: 526 90<184.344 306.198>
Fore
616 270 m 0xb8
 616 178 513 -20 231 -20 c 0
 135 -20 87 -1 87 -1 c 1
 87 12 l 2
 87 27 88 42 91 59 c 1
 113 48 195 33 237 33 c 0
 402 33 526 139 526 248 c 0
 526 333 434 356 327 356 c 0xb8
 298 356 258 353 176 340 c 1
 292 697 l 1
 697 697 l 1
 682 628 l 1
 647 628 615 635 511 635 c 2
 348 635 l 1
 270 409 l 1xd8
 284 409 340 420 408 420 c 0
 571 420 616 340 616 270 c 0xb8
EndSplineSet
EndChar
StartChar: six
Encoding: 54 54 23
Width: 642
VWidth: 1467
Flags: W
HStem: -21 58<246.179 418.796> 337 64<317.521 489.8> 677 20G<447.5 556>
VStem: 102 81<94.4008 250.252> 539 80<158.05 293.149>
Fore
619 251 m 0
 619 131 506 -21 314 -21 c 0
 207 -21 102 14 102 143 c 0
 102 235 148 375 380 600 c 2
 480 697 l 1
 556 697 l 1
 339 466 319 450 276 386 c 1
 334 399 406 401 420 401 c 0
 529 401 619 356 619 251 c 0
332 37 m 0
 456 37 539 156 539 235 c 0
 539 297 486 337 396 337 c 0
 272 337 248 312 234 305 c 1
 218 280 183 219 183 161 c 0
 183 64 281 37 332 37 c 0
EndSplineSet
EndChar
StartChar: seven
Encoding: 55 55 24
Width: 642
VWidth: 1467
Flags: W
HStem: -12 21G<109 244> 628 69<242 315.544 315.544 589>
Fore
109 -12 m 1
 126 12 417 395 432 414 c 2
 589 628 l 1
 393 628 l 2
 327 628 244 626 227 625 c 1
 242 697 l 1
 689 697 l 1
 674 629 l 1
 663 616 615 547 575 493 c 0
 563 477 286 108 202 -12 c 1
 109 -12 l 1
EndSplineSet
EndChar
StartChar: eight
Encoding: 56 56 25
Width: 642
VWidth: 1467
Flags: W
HStem: -16 61<245.18 416.49> 326 86<335.744 467.903> 653 62<372.077 535.171>
VStem: 119 78<89.9326 228.247> 217 74<453.459 579.215> 519 84<141.697 278.726> 575 77<494.176 616.946>
Fore
459 653 m 0xfa
 358 653 291 581 291 514 c 0
 291 457 339 412 408 412 c 0
 497 412 575 486 575 560 c 0
 575 616 527 653 459 653 c 0xfa
389 326 m 256
 281 326 197 241 197 152 c 0
 197 87 248 45 330 45 c 0
 420 45 519 114 519 213 c 0xfc
 519 282 465 326 389 326 c 256
217 503 m 0
 217 545 247 715 472 715 c 0
 582 715 652 669 652 582 c 0xfa
 652 457 540 396 494 374 c 1
 576 347 603 287 603 231 c 0
 603 112 488 -16 320 -16 c 0
 197 -16 119 42 119 142 c 0
 119 242 188 337 302 376 c 1
 245 411 217 453 217 503 c 0
EndSplineSet
EndChar
StartChar: nine
Encoding: 57 57 26
Width: 642
VWidth: 1467
Flags: W
HStem: 0 21G<224 316.5> 291 63<297.088 431.18> 635 66<358.824 532.332>
VStem: 173 77<397.41 526.708> 585 78<444.11 585.105>
Fore
173 442 m 0
 173 556 285 701 472 701 c 0
 626 701 663 623 663 552 c 0
 663 409 532 257 477 195 c 2
 392 96 l 2
 366 64 332 29 301 0 c 1
 224 0 l 1
 374 166 l 2
 413 209 451 257 486 307 c 1
 449 297 411 291 372 291 c 0
 249 291 173 350 173 442 c 0
448 635 m 0
 317 635 250 518 250 455 c 0
 250 387 313 354 389 354 c 0
 417 354 480 358 533 383 c 1
 550 413 585 459 585 516 c 0
 585 576 546 635 448 635 c 0
EndSplineSet
EndChar
StartChar: colon
Encoding: 58 58 27
Width: 201
VWidth: 1467
Flags: W
HStem: -16 133<80.4806 140.608> 352 133<159.37 218.342>
VStem: 55 111<10.5404 90.6457> 134 110<378.219 459.638>
Fore
55 32 m 0xe0
 55 71 84 117 126 117 c 0
 153 117 166 99 166 72 c 0
 166 28 134 -16 98 -16 c 0
 70 -16 55 4 55 32 c 0xe0
134 399 m 0xd0
 134 438 162 485 204 485 c 0
 230 485 244 466 244 439 c 0
 244 397 212 352 176 352 c 0
 149 352 134 372 134 399 c 0xd0
EndSplineSet
EndChar
StartChar: semicolon
Encoding: 59 59 28
Width: 215
VWidth: 1467
Flags: W
HStem: -20 20<69.5 89 113.5 116> 352 133<159.37 218.342>
VStem: 47 136<0.981201 69.3029> 134 110<378.219 459.638>
Fore
183 59 m 0xe0
 183 1 120 -76 44 -109 c 1
 2 -109 l 1
 90 -60 112 -19 120 0 c 1
 107 -8 95 -12 83 -12 c 0
 56 -12 47 0 47 16 c 0
 47 53 84 105 136 105 c 0
 169 105 183 84 183 59 c 0xe0
134 399 m 0xd0
 134 438 162 485 204 485 c 0
 230 485 244 466 244 439 c 0
 244 397 212 352 176 352 c 0
 149 352 134 372 134 399 c 0xd0
EndSplineSet
EndChar
StartChar: less
Encoding: 60 60 29
Width: 632
VWidth: 1467
Flags: W
HStem: -1 21G<511 554.19> 571 20G<610 671.701>
Fore
276 292 m 1
 395 254 512 197 572 104 c 1
 550 -1 l 1
 472 146 250 256 137 292 c 1
 318 352 544 458 676 591 c 1
 653 484 l 1
 529 376 363 320 276 292 c 1
EndSplineSet
EndChar
StartChar: equal
Encoding: 61 61 30
Width: 657
VWidth: 1467
Flags: W
HStem: 147 83<102 630> 343 84<144 672>
Fore
84 147 m 1
 102 230 l 1
 648 230 l 1
 630 147 l 1
 84 147 l 1
126 343 m 1
 144 427 l 1
 690 427 l 1
 672 343 l 1
 126 343 l 1
EndSplineSet
EndChar
StartChar: greater
Encoding: 62 62 31
Width: 629
VWidth: 1467
Flags: W
HStem: -1 21G<74.2991 140> 571 20G<191.619 225>
Fore
469 298 m 1
 357 335 233 392 173 486 c 1
 196 591 l 1
 254 477 442 352 609 298 c 1
 447 244 210 141 70 -1 c 1
 93 106 l 1
 198 193 321 251 469 298 c 1
EndSplineSet
EndChar
StartChar: question
Encoding: 63 63 32
Width: 550
VWidth: 1467
Flags: W
HStem: -16 133<244.891 304.375> 421 48<219.477 277.007> 679 49<356.975 485.021>
VStem: 160 58<474.756 573.799> 220 110<9.49171 91.4419> 330 58<528.686 629.407> 530 78<492.371 634.423>
Fore
160 509 m 0
 160 614 268 728 420 728 c 0
 523 728 608 664 608 570 c 0
 608 481 536 412 498 385 c 2
 456 356 l 2
 377 303 371 265 353 213 c 1
 347 182 l 1
 260 180 l 1
 260 190 262 201 264 213 c 0
 282 297 337 361 447 424 c 0
 518 479 530 533 530 567 c 0
 530 630 483 679 415 679 c 0
 371 679 353 673 340 666 c 1
 365 654 388 638 388 598 c 0
 388 503 290 421 230 421 c 0
 177 421 160 466 160 509 c 0
239 469 m 0
 265 469 330 529 330 599 c 0
 330 625 315 630 304 630 c 0
 263 630 218 553 218 498 c 0
 218 483 223 469 239 469 c 0
220 32 m 0
 220 71 248 117 291 117 c 0
 317 117 330 99 330 72 c 0
 330 34 303 -16 263 -16 c 0
 236 -16 220 4 220 32 c 0
EndSplineSet
EndChar
StartChar: at
Encoding: 64 64 33
Width: 934
VWidth: 1467
Flags: W
HStem: -163 59<307.724 491.182> -26 50<364.354 517.449> 391 44<457.188 644.695> 519 68<462.087 722.282>
VStem: 88 80<25.3212 232.077> 283 67<39.6424 122.743> 666 67<290.398 368.848> 850 79<210.056 402.522>
Fore
677 43 m 1
 752 73 850 172 850 306 c 0
 850 430 762 519 606 519 c 0
 309 519 168 296 168 124 c 0
 168 -15 277 -104 418 -104 c 0
 515 -104 561 -87 593 -73 c 1
 631 -106 l 1
 543 -150 443 -163 391 -163 c 0
 221 -163 88 -51 88 112 c 0
 88 289 239 587 614 587 c 0
 791 587 929 501 929 330 c 0
 929 101 718 -18 656 -18 c 0
 620 -18 611 18 612 45 c 1
 573 22 l 2
 521 -10 452 -26 415 -26 c 0
 344 -26 283 6 283 76 c 0
 283 216 465 220 557 241 c 2
 585 249 l 2
 656 270 666 294 666 324 c 0
 666 355 647 391 556 391 c 0
 498 391 415 373 360 346 c 1
 378 401 l 1
 444 432 521 435 555 435 c 0
 672 435 733 402 733 334 c 0
 733 325 732 315 730 304 c 2
 677 58 l 2
 676 53 676 48 677 43 c 1
431 24 m 0
 502 24 575 62 625 110 c 1
 651 232 l 1
 551 164 449 196 375 140 c 0
 358 126 350 108 350 84 c 0
 350 57 364 24 431 24 c 0
EndSplineSet
EndChar
StartChar: A
Encoding: 65 65 34
Width: 698
VWidth: 1467
Flags: W
HStem: 1 21G<53 138.34 560.962 637> 213 58<258 550> 648 61<437.216 511.68>
VStem: 562 75<1 68.4545>
Fore
551 213 m 1
 228 213 l 1
 129 1 l 1
 53 1 l 1
 300 534 l 2
 345 614 387 709 490 709 c 0
 604 709 610 608 612 563 c 2
 637 1 l 1
 562 1 l 1
 551 213 l 1
550 271 m 1
 538 509 l 2
 528 582 525 648 479 648 c 0
 422 648 389 545 369 509 c 2
 258 271 l 1
 550 271 l 1
EndSplineSet
EndChar
StartChar: B
Encoding: 66 66 35
Width: 736
VWidth: 1467
Flags: W
HStem: 0 60<189 433> 389 67<405 522.998> 641 56<312 597.1>
VStem: 615 73<158.977 318.847 513.135 623.453>
Fore
686 595 m 0
 686 524 646 452 525 418 c 1
 663 384 688 309 688 256 c 0
 688 194 648 14 430 1 c 1
 433 0 l 1
 101 0 l 1
 249 697 l 1
 569 697 l 2
 639 688 686 661 686 595 c 0
421 60 m 2
 584 60 615 195 615 248 c 0
 615 332 541 380 463 389 c 2
 391 389 l 1
 405 455 l 1
 487 456 l 2
 545 460 614 505 614 576 c 0
 614 617 584 638 541 641 c 2
 312 641 l 1
 189 60 l 1
 421 60 l 2
EndSplineSet
EndChar
StartChar: C
Encoding: 67 67 36
Width: 654
VWidth: 1467
Flags: W
HStem: -5 59<278.07 460.913> 647 59<395.578 582.132>
VStem: 144 69<109.995 188.001 179.5 196.502 196.502 205.384>
Fore
612 98 m 1
 562 27 455 -5 359 -5 c 0
 180 -5 144 100 144 171 c 0
 144 187 146 200 148 211 c 2
 211 509 l 2
 226 578 318 706 510 706 c 0
 606 706 698 674 719 603 c 1
 671 560 l 1
 653 644 529 647 508 647 c 0
 341 647 290 539 284 512 c 2
 215 189 l 2
 214 183 213 176 213 170 c 0
 213 112 266 54 381 54 c 0
 405 54 529 58 582 141 c 1
 612 98 l 1
EndSplineSet
EndChar
StartChar: D
Encoding: 68 68 37
Width: 682
VWidth: 1467
Flags: W
HStem: 4 56<183.371 396.115> 647 57<308 459.464>
VStem: 612 78<383.738 520.778>
Fore
225 4 m 2
 189 4 170 3 134 3 c 2
 102 3 l 1
 251 704 l 1
 295 704 l 2
 484 696 690 670 690 446 c 0
 690 416 686 382 678 344 c 0
 606 5 362 4 280 4 c 2
 225 4 l 2
183 60 m 1
 247 60 l 2
 363 60 548 80 603 338 c 0
 609 369 612 396 612 422 c 0
 612 599 462 647 308 647 c 1
 183 60 l 1
EndSplineSet
EndChar
StartChar: E
Encoding: 69 69 38
Width: 664
VWidth: 1467
Flags: W
HStem: -4 57<273.273 593> 315 59<252 550> 640 57<399.041 593.6 593.6 688.613 688.613 730>
VStem: 145 71<104.035 216.621>
Fore
643 698 m 0
 702 698 722 697 742 697 c 1
 730 640 l 1
 532 640 l 2
 392 640 301 602 269 450 c 2
 252 374 l 1
 562 374 l 1
 550 315 l 1
 240 315 l 1
 223 234 l 2
 218 212 216 194 216 177 c 0
 216 64 314 53 407 53 c 2
 605 53 l 1
 593 -4 l 1
 397 -4 l 2
 248 -1 145 34 145 171 c 0
 145 195 148 222 155 252 c 2
 196 446 l 2
 239 648 378 692 546 697 c 0
 565 697 585 698 643 698 c 0
EndSplineSet
EndChar
StartChar: F
Encoding: 70 70 39
Width: 660
VWidth: 1467
Flags: W
HStem: 1 21G<103 179.241> 317 59<255 551> 641 57<396.457 595.6 595.6 690.558 690.558 732>
Fore
646 700 m 0
 695 700 724 698 744 698 c 1
 732 641 l 1
 534 641 l 2
 421 641 307 623 272 457 c 2
 255 376 l 1
 564 376 l 1
 551 317 l 1
 242 317 l 1
 175 1 l 1
 103 1 l 1
 198 448 l 2
 244 661 395 696 547 698 c 0
 567 698 587 700 646 700 c 0
EndSplineSet
EndChar
StartChar: G
Encoding: 71 71 40
Width: 698
VWidth: 1467
Flags: W
HStem: -6 67<287.224 505.31> 641 64<394.882 604.208>
VStem: 145 84<111.103 222.968> 603 75<229.481 307.526>
Fore
673 226 m 0
 634 40 512 -6 380 -6 c 0
 225 -6 145 45 145 168 c 0
 145 194 148 222 155 254 c 2
 212 524 l 2
 229 601 339 705 511 705 c 0
 608 705 701 674 722 602 c 1
 671 546 l 1
 655 607 585 641 500 641 c 0
 360 641 300 549 289 500 c 2
 236 248 l 2
 231 225 229 204 229 186 c 0
 229 89 298 61 402 61 c 0
 490 61 572 93 599 222 c 0
 602 235 603 247 603 257 c 0
 603 328 537 325 470 332 c 1
 482 392 l 1
 499 394 514 395 530 395 c 0
 645 395 678 336 678 273 c 0
 678 257 676 241 673 226 c 0
EndSplineSet
EndChar
StartChar: H
Encoding: 72 72 41
Width: 735
VWidth: 1467
Flags: W
HStem: 1 21G<104 182.241 559 636.247> 317 59<258 626> 678 20G<246.782 326 702.776 780>
Fore
707 698 m 1
 780 698 l 1
 632 1 l 1
 559 1 l 1
 626 317 l 1
 245 317 l 1
 178 1 l 1
 104 1 l 1
 251 698 l 1
 326 698 l 1
 258 376 l 1
 639 376 l 1
 707 698 l 1
EndSplineSet
EndChar
StartChar: I
Encoding: 73 73 42
Width: 280
VWidth: 1467
Flags: W
HStem: 1 21G<100 179.247> 678 20G<243.753 323>
VStem: 100 223<1 698 1 1>
Fore
248 698 m 1
 323 698 l 1
 175 1 l 1
 100 1 l 1
 248 698 l 1
EndSplineSet
EndChar
StartChar: J
Encoding: 74 74 43
Width: 470
VWidth: 1467
Flags: W
HStem: -10 52<163.955 266.977> 677 20G<439.75 516>
VStem: 50 74<65.7752 133.469 131.461 135.477 135.477 144>
Fore
399 147 m 2
 378 45 281 -10 192 -10 c 0
 119 -10 50 27 50 108 c 0
 50 119 51 131 54 144 c 1
 125 144 l 1
 124 138 124 132 124 127 c 0
 124 53 180 42 203 42 c 0
 241 42 311 71 332 170 c 2
 444 697 l 1
 516 697 l 1
 399 147 l 2
EndSplineSet
EndChar
StartChar: K
Encoding: 75 75 44
Width: 720
VWidth: 1467
Flags: W
VStem: 605 77<303.025 388.031>
Fore
594 247 m 2
 600 278 605 308 605 333 c 0
 605 367 598 395 580 409 c 0
 566 421 536 446 454 453 c 1
 236 280 l 1
 179 4 l 1
 101 3 l 1
 252 716 l 1
 330 716 l 1
 261 379 l 1
 696 716 l 1
 781 716 l 1
 517 511 l 1
 577 507 626 476 653 449 c 0
 673 428 682 403 682 363 c 0
 682 331 676 290 664 232 c 2
 616 3 l 1
 542 3 l 1
 594 247 l 2
EndSplineSet
EndChar
StartChar: L
Encoding: 76 76 45
Width: 620
VWidth: 1467
Flags: W
HStem: -1 58<265.125 552> 678 20G<243.756 321>
VStem: 142 75<100.95 213.57>
Fore
225 246 m 2
 219 219 217 196 217 176 c 0
 217 74 287 57 392 57 c 2
 564 57 l 1
 552 -1 l 1
 355 -1 l 2
 219 1 142 34 142 157 c 0
 142 185 146 217 154 255 c 2
 248 698 l 1
 321 698 l 1
 225 246 l 2
EndSplineSet
EndChar
StartChar: M
Encoding: 77 77 46
Width: 874
VWidth: 1467
Flags: W
HStem: 0 21G<100 177.249 700 774.241> 678 20G<243.759 356 805 918>
Fore
833 626 m 1
 784 615 560 433 508 352 c 1
 460 487 365 600 306 626 c 1
 173 0 l 1
 100 0 l 1
 248 698 l 1
 321 698 l 1
 391 660 486 553 531 455 c 1
 633 570 767 664 843 698 c 1
 918 698 l 1
 770 0 l 1
 700 0 l 1
 833 626 l 1
EndSplineSet
EndChar
StartChar: N
Encoding: 78 78 47
Width: 760
VWidth: 1467
Flags: W
HStem: -6 21G<92 175.261 512.939 547.5> 680 20G<236.737 321.1 732.754 812>
Fore
571 63 m 1
 596 71 608 94 623 163 c 2
 737 700 l 1
 812 700 l 1
 691 131 l 2
 670 35 574 -6 521 -6 c 1
 311 515 l 2
 301 544 293 562 292 569 c 1
 171 1 l 1
 92 1 l 1
 241 700 l 1
 313 700 l 1
 571 63 l 1
EndSplineSet
EndChar
StartChar: O
Encoding: 79 79 48
Width: 724
VWidth: 1467
Flags: W
HStem: -15 62<259.477 485.159> 649 64<383.047 611.421>
VStem: 132 76<91.3037 175.147> 660 76<511.591 521.202 521.202 540.728 530.965 605.246>
Fore
212 528 m 2
 240 661 404 713 514 713 c 0
 645 713 740 653 740 560 c 0
 740 550 738 539 736 528 c 2
 659 167 l 2
 629 22 439 -15 345 -15 c 0
 222 -15 132 50 132 139 c 0
 132 148 133 157 135 167 c 2
 212 528 l 2
371 47 m 256
 461 47 568 75 592 186 c 2
 660 509 l 2
 663 522 664 533 664 544 c 0
 664 623 591 649 499 649 c 256
 415 649 304 621 280 509 c 2
 212 186 l 2
 209 174 208 163 208 152 c 0
 208 69 290 47 371 47 c 256
EndSplineSet
EndChar
StartChar: P
Encoding: 80 80 49
Width: 669
VWidth: 1467
Flags: W
HStem: -1 21G<95 176.254> 267 57<241 537.093> 643 52<309 579.946>
VStem: 641 66<421.465 587.467>
Fore
707 521 m 0
 707 362 566 267 431 267 c 2
 229 267 l 1
 172 -1 l 1
 95 -1 l 1
 243 695 l 1
 525 695 l 2
 640 695 707 623 707 521 c 0
431 324 m 2
 493 324 641 348 641 511 c 0
 641 615 554 643 498 643 c 2
 309 643 l 1
 241 323 l 1
 431 324 l 2
EndSplineSet
EndChar
StartChar: Q
Encoding: 81 81 50
Width: 723
VWidth: 1467
Flags: W
HStem: -15 62<257.614 416.252> 649 63<383.686 597.371>
VStem: 131 77<90.9117 164.121 154.109 174.133 174.133 183.409> 660 76<511.591 522.023 522.023 541.34 531.682 593.023>
Fore
484 3 m 1
 548 -44 589 -47 614 -47 c 1
 603 -100 l 1
 513 -100 450 -72 423 -10 c 1
 412 -13 396 -15 370 -15 c 2
 334 -15 l 2
 217 -7 131 45 131 134 c 0
 131 145 133 156 135 167 c 2
 212 528 l 2
 240 661 408 712 511 712 c 0
 586 712 740 681 740 561 c 0
 740 551 738 540 736 528 c 2
 659 167 l 2
 639 69 542 21 484 3 c 1
212 186 m 2
 209 174 208 162 208 152 c 0
 208 73 280 47 367 47 c 0
 469 47 573 97 592 186 c 2
 660 509 l 2
 662 518 663 527 663 535 c 0
 663 619 566 649 503 649 c 0
 414 649 304 621 280 509 c 2
 212 186 l 2
EndSplineSet
EndChar
StartChar: R
Encoding: 82 82 51
Width: 683
VWidth: 1467
Flags: W
HStem: 0 21G<97 179 531 610.74> 321 56<250 476.447> 644 53<309 594.235>
VStem: 554 76<104.283 120 123 139.922 139.922 158.962 149.442 255.118> 633 75<466.534 608.223>
Fore
708 548 m 0
 708 423 589 370 512 351 c 1
 607 309 636 246 636 180 c 0
 636 161 634 142 630 123 c 2
 607 0 l 1
 531 0 l 1
 554 120 l 2
 558 142 561 161 561 178 c 0
 561 300 454 321 310 321 c 2
 238 321 l 1
 207 174 l 2
 196 122 185 70 173 0 c 1
 97 0 l 1
 245 697 l 1
 494 697 l 2
 665 697 708 618 708 548 c 0
426 377 m 2
 529 379 633 407 633 547 c 0
 633 623 577 644 483 644 c 2
 309 644 l 1
 283 523 l 2
 271 465 269 465 250 377 c 1
 426 377 l 2
EndSplineSet
EndChar
StartChar: S
Encoding: 83 83 52
Width: 698
VWidth: 1467
Flags: W
HStem: -16 59<245.611 452.284> 656 59<381.076 590.462>
VStem: 96 75<76.9866 126.931> 191 90<432.659 556.647> 583 87<142.843 259.275>
Fore
670 232 m 0
 670 77 510 -16 345 -16 c 0
 185 -16 111 47 96 139 c 1
 171 139 l 1
 185 74 281 43 340 43 c 0
 435 43 583 97 583 210 c 0
 583 273 507 299 375 320 c 0
 226 344 191 403 191 465 c 0
 191 615 348 715 503 715 c 0
 580 715 714 681 717 568 c 1
 645 568 l 1
 624 625 579 656 488 656 c 0
 382 656 281 599 281 489 c 0
 281 425 330 394 479 376 c 0
 619 360 670 308 670 232 c 0
EndSplineSet
EndChar
StartChar: T
Encoding: 84 84 53
Width: 654
VWidth: 1467
Flags: W
HStem: -1 21G<285 363.257> 638 59<214 421 495 720>
Fore
732 697 m 1
 720 638 l 1
 495 638 l 1
 359 -1 l 1
 285 -1 l 1
 421 638 l 1
 202 638 l 1
 214 697 l 1
 732 697 l 1
EndSplineSet
EndChar
StartChar: U
Encoding: 85 85 54
Width: 749
VWidth: 1467
Flags: W
HStem: -15 59<268.144 509.651> 678 20G<243.766 320 721.756 798>
VStem: 132 76<93.4905 166.263 157.469 175.056 175.056 185.531>
Fore
372 -15 m 0
 264 -15 132 27 132 136 c 0
 132 146 133 157 136 169 c 2
 248 698 l 1
 320 698 l 1
 212 188 l 2
 210 176 208 166 208 156 c 0
 208 67 300 44 385 44 c 0
 479 44 594 73 618 188 c 2
 726 697 l 1
 798 697 l 1
 686 169 l 2
 660 49 513 -15 372 -15 c 0
EndSplineSet
EndChar
StartChar: V
Encoding: 86 86 55
Width: 708
VWidth: 1467
Flags: W
HStem: -15 59<321.648 400.095> 677 20G<205 276.945 709.237 795>
VStem: 205 71<622.917 697> 225 75<65.3824 112 112 214.375>
Fore
513 129 m 2xd0
 454 17 406 -15 337 -15 c 0
 253 -15 228 55 225 112 c 2xd0
 205 697 l 1
 276 697 l 1xe0
 300 189 l 2
 306 78 321 44 355 44 c 0
 405 44 429 105 472 191 c 2
 719 697 l 1
 795 697 l 1
 513 129 l 2xd0
EndSplineSet
EndChar
StartChar: W
Encoding: 87 87 56
Width: 878
VWidth: 1467
Flags: W
HStem: 0 21G<178 290 598.5 701.834> 677 20G<204.225 274 881 967>
VStem: 205 69<606.648 697>
Fore
515 367 m 1
 468 194 334 43 246 0 c 1
 178 0 l 1
 205 697 l 1
 274 697 l 1
 258 76 l 1
 413 205 478 405 555 568 c 1
 575 436 559 230 639 78 c 1
 854 591 866 615 896 697 c 1
 967 697 l 1
 694 0 l 1
 626 0 l 1
 571 25 514 158 514 324 c 0
 514 338 514 352 515 367 c 1
EndSplineSet
EndChar
StartChar: X
Encoding: 88 88 57
Width: 704
VWidth: 1467
Flags: W
HStem: 1 21G<53 153.731 582.754 675> 681 20G<202 294.208 722.403 824>
Fore
283 701 m 1
 450 403 l 1
 742 701 l 1
 824 701 l 1
 478 351 l 1
 675 1 l 1
 594 1 l 1
 427 298 l 1
 134 1 l 1
 53 1 l 1
 398 351 l 1
 202 701 l 1
 283 701 l 1
EndSplineSet
EndChar
StartChar: Y
Encoding: 89 89 58
Width: 691
VWidth: 1467
Flags: W
HStem: -1 21G<304 385.266> 677 20G<201 295 647.5 780>
VStem: 201 73<527.46 674.866>
Fore
364 283 m 1
 323 306 289 444 201 697 c 1
 274 697 l 1
 316 565 379 406 390 373 c 0
 398 350 404 339 413 339 c 0
 422 339 432 349 448 368 c 0
 565 510 704 689 711 697 c 1
 780 697 l 1
 515 351 480 301 442 285 c 1
 381 -1 l 1
 304 -1 l 1
 364 283 l 1
EndSplineSet
EndChar
StartChar: Z
Encoding: 90 90 59
Width: 754
VWidth: 1467
Flags: W
HStem: 1 74<225.188 226 226 666> 625 75<244 673>
Fore
220 119 m 1
 223 84 237 75 287 75 c 2
 682 75 l 1
 666 1 l 1
 226 1 l 2
 139 1 113 57 113 105 c 0
 113 113 113 121 115 129 c 1
 674 624 619 574 673 625 c 1
 228 625 l 1
 244 700 l 1
 815 700 l 1
 800 631 l 1
 220 119 l 1
EndSplineSet
EndChar
StartChar: bracketleft
Encoding: 91 91 60
Width: 322
VWidth: 1467
Flags: W
HStem: -117 45<157 293> 679 44<316 462>
VStem: 66 406<-117 723 -117 -117>
Fore
66 -117 m 1
 245 723 l 1
 472 723 l 1
 462 679 l 1
 316 679 l 1
 157 -72 l 1
 303 -72 l 1
 293 -117 l 1
 66 -117 l 1
EndSplineSet
EndChar
StartChar: backslash
Encoding: 92 92 61
Width: 463
VWidth: 1467
Flags: W
VStem: 153 300<-44 722 722 722>
Fore
153 722 m 1
 241 722 l 1
 453 -44 l 1
 364 -44 l 1
 153 722 l 1
EndSplineSet
EndChar
StartChar: bracketright
Encoding: 93 93 62
Width: 322
VWidth: 1467
Flags: W
HStem: -117 45<-14 129> 679 44<153 288>
VStem: -24 404<-117 723 -117 -117>
Fore
-24 -117 m 1
 -14 -72 l 1
 129 -72 l 1
 288 679 l 1
 143 679 l 1
 153 723 l 1
 380 723 l 1
 201 -117 l 1
 -24 -117 l 1
EndSplineSet
EndChar
StartChar: asciicircum
Encoding: 94 94 63
Width: 710
VWidth: 1467
Flags: W
Fore
476 571 m 1
 407 416 296 284 219 204 c 1
 118 204 l 1
 251 322 439 558 505 722 c 1
 505 563 591 333 674 204 c 1
 571 204 l 1
 488 358 476 483 476 561 c 0
 476 565 476 568 476 571 c 1
EndSplineSet
EndChar
StartChar: underscore
Encoding: 95 95 64
Width: 528
VWidth: 1467
Flags: W
HStem: -292 76<-45 463>
Fore
-61 -292 m 1
 -45 -216 l 1
 479 -216 l 1
 463 -292 l 1
 -61 -292 l 1
EndSplineSet
EndChar
StartChar: grave
Encoding: 96 96 65
Width: 300
VWidth: 1467
Flags: W
HStem: 566 153<289 298 198 359 198 198>
Fore
289 566 m 1
 198 719 l 1
 298 719 l 1
 359 566 l 1
 289 566 l 1
EndSplineSet
EndChar
StartChar: a
Encoding: 97 97 66
Width: 639
VWidth: 1467
Flags: W
HStem: -9 51<201.797 369.215> 463 49<293.175 489.473>
VStem: 96 76<56.6073 164.053> 475 75<19.6087 66.8525> 536 78<345.541 422.638>
Fore
488 129 m 1xe0
 522 286 l 1
 455 243 414 236 330 225 c 0
 239 213 172 176 172 103 c 0
 172 44 228 42 252 42 c 0
 349 42 438 85 488 129 c 1xe0
572 19 m 1
 553 3 526 2 510 -10 c 1
 494 -3 475 34 475 61 c 0
 475 67 l 1xf0
 433 42 l 2
 376 8 302 -9 262 -9 c 0
 216 -9 96 14 96 105 c 0
 96 171 144 246 321 266 c 0
 416 276 536 308 536 372 c 0
 536 406 510 463 389 463 c 0
 310 463 231 439 183 417 c 1
 204 474 l 1
 277 508 363 512 400 512 c 0
 553 512 614 466 614 393 c 0xe8
 614 382 613 371 610 359 c 2
 555 101 l 2
 552 87 550 75 550 66 c 0xf0
 550 44 558 32 572 19 c 1
EndSplineSet
Substitution2: "Single Substitution lookup 22 subtable" uni0E38
Substitution2: "Single Substitution lookup 22 subtable" uni0E38
EndChar
StartChar: b
Encoding: 98 98 67
Width: 664
VWidth: 1467
Flags: W
HStem: -3 50<287.917 438.188> 453 56<345.086 517.463> 678 20G<241.76 320>
VStem: 575 78<209.085 394.057>
Fore
351 47 m 0
 505 47 575 206 575 309 c 0
 575 397 524 453 439 453 c 0
 378 453 296 418 249 361 c 1
 198 123 l 1
 259 51 315 47 351 47 c 0
653 312 m 0
 653 171 525 -3 351 -3 c 0
 225 -3 206 49 176 63 c 1
 161 39 133 8 99 -3 c 1
 78 16 l 2
 71 23 64 32 56 43 c 1
 78 57 107 76 126 132 c 2
 246 698 l 1
 320 698 l 1
 266 440 l 1
 311 487 402 509 462 509 c 0
 593 509 653 415 653 312 c 0
EndSplineSet
Substitution2: "Single Substitution lookup 22 subtable" uni0E39
Substitution2: "Single Substitution lookup 22 subtable" uni0E39
EndChar
StartChar: c
Encoding: 99 99 68
Width: 616
VWidth: 1467
Flags: W
HStem: -8 43<266.159 445.763> 458 50<342.395 535.762>
VStem: 128 80<88.1525 140.988 130.5 151.477 151.477 157.587> 585 57<391.873 432.876>
Fore
327 -8 m 0
 203 -8 128 51 128 120 c 0
 128 127 128 134 130 141 c 2
 176 359 l 2
 194 442 307 508 437 508 c 0
 533 508 622 476 642 405 c 1
 585 373 l 1
 573 427 520 458 447 458 c 0
 365 458 264 416 248 340 c 2
 210 160 l 2
 209 154 208 148 208 143 c 0
 208 85 270 35 352 35 c 0
 391 35 477 48 527 128 c 1
 576 95 l 1
 526 25 424 -8 327 -8 c 0
EndSplineSet
Substitution2: "Single Substitution lookup 22 subtable" uni0E3A
Substitution2: "Single Substitution lookup 22 subtable" uni0E3A
EndChar
StartChar: d
Encoding: 100 100 69
Width: 671
VWidth: 1467
Flags: W
HStem: -4 50<253.461 399.233> 452 56<334.521 505.918> 677 20G<637.736 716>
VStem: 120 78<102.503 294.276>
Fore
427 452 m 0
 275 452 198 313 198 193 c 0
 198 120 227 46 335 46 c 0
 369 46 429 50 520 122 c 1
 570 359 l 1
 511 447 471 452 427 452 c 0
120 193 m 0
 120 347 264 508 424 508 c 0
 468 508 560 491 587 439 c 1
 642 697 l 1
 716 697 l 1
 596 131 l 2
 594 122 594 114 594 107 c 0
 594 70 614 53 627 41 c 1
 606 22 587 9 565 -4 c 1
 536 6 522 34 515 62 c 1
 441 18 381 -4 310 -4 c 0
 181 -4 120 91 120 193 c 0
EndSplineSet
EndChar
StartChar: e
Encoding: 101 101 70
Width: 635
VWidth: 1467
Flags: W
HStem: -6 53<260.34 413.638> 220 56<228 540.679> 458 52<341.4 508.437>
VStem: 131 71<97.1412 164.703 158 171.405 171.405 182.458> 558 67<313.518 411.164>
Fore
568 97 m 1
 495 -5 344 -6 326 -6 c 0
 227 -6 131 24 131 136 c 0
 131 151 133 169 137 188 c 2
 174 361 l 2
 193 450 316 510 436 510 c 0
 537 510 625 466 625 370 c 0
 625 358 624 346 621 332 c 0
 601 242 549 220 374 220 c 2
 216 220 l 1
 204 167 l 2
 203 161 202 155 202 149 c 0
 202 84 280 47 352 47 c 0
 423 47 488 76 530 129 c 1
 568 97 l 1
462 276 m 2
 515 276 558 283 558 352 c 0
 558 415 500 458 430 458 c 0
 356 458 254 402 240 336 c 2
 228 276 l 1
 462 276 l 2
EndSplineSet
EndChar
StartChar: f
Encoding: 102 102 71
Width: 412
VWidth: 1467
Flags: W
HStem: 443 54<279 405> 643 52<343.482 474>
VStem: 42 443<-26 695 -3.78373 99.9729>
Fore
447 643 m 2
 310 643 297 583 279 497 c 1
 417 497 l 1
 405 443 l 1
 267 443 l 1
 178 22 l 2
 172 -6 132 -54 85 -72 c 1
 65 -53 l 2
 57 -46 50 -37 42 -26 c 1
 85 1 105 24 120 92 c 2
 204 490 l 2
 234 632 301 695 452 695 c 2
 485 695 l 1
 474 643 l 1
 447 643 l 2
EndSplineSet
EndChar
StartChar: g
Encoding: 103 103 72
Width: 657
VWidth: 1467
Flags: W
HStem: -219 58<271 416.954> 0 54<246.627 418.93> 459 53<318.759 478.142>
VStem: 112 74<114.101 304.102>
Fore
414 459 m 0
 243 459 186 289 186 199 c 0
 186 117 230 54 328 54 c 0
 403 54 465 94 512 147 c 1
 563 386 l 1
 499 459 444 459 414 459 c 0
112 206 m 0
 112 356 242 512 386 512 c 0
 514 512 569 460 585 445 c 1
 604 477 630 499 662 512 c 1
 671 504 685 491 705 467 c 1
 683 453 649 432 635 377 c 2
 551 -21 l 2
 524 -145 467 -219 301 -219 c 2
 258 -219 l 1
 271 -161 l 1
 315 -161 l 2
 413 -161 461 -139 476 -22 c 2
 495 67 l 1
 448 17 348 0 308 0 c 0
 194 0 112 86 112 206 c 0
EndSplineSet
EndChar
StartChar: h
Encoding: 104 104 73
Width: 630
VWidth: 1467
Flags: W
HStem: 0 21G<100 179.27 458 532.276> 446 62<360.901 497.926> 677 20G<221.043 255.5>
VStem: 220 82<576.123 654.217> 524 77<316.929 418.779>
Fore
213 533 m 2
 218 555 220 572 220 586 c 0
 220 615 210 631 186 651 c 1
 248 697 l 1
 263 697 302 651 302 606 c 0
 302 602 302 597 301 592 c 2
 254 373 l 1
 303 471 366 508 479 508 c 0
 567 508 601 447 601 371 c 0
 601 350 598 327 593 304 c 2
 528 0 l 1
 458 0 l 1
 515 266 l 2
 521 297 524 323 524 345 c 0
 524 421 488 446 430 446 c 0
 328 446 245 327 213 178 c 2
 175 0 l 1
 100 0 l 1
 213 533 l 2
EndSplineSet
EndChar
StartChar: i
Encoding: 105 105 74
Width: 278
VWidth: 1467
Flags: W
HStem: -25 21G<160.5 194.087> 556 142<233.437 294.902>
VStem: 115 81<16.4658 92.2812> 204 119<585.375 668.125>
Fore
116 76 m 2
 202 481 l 1
 275 481 l 1
 202 135 l 2
 198 116 196 100 196 87 c 0
 196 58 206 41 228 21 c 1
 168 -25 l 1
 153 -25 115 21 115 64 c 0
 115 68 115 72 116 76 c 2
204 609 m 0
 204 648 235 698 281 698 c 0
 308 698 323 679 323 650 c 0
 323 603 290 556 252 556 c 0
 221 556 204 579 204 609 c 0
EndSplineSet
EndChar
StartChar: j
Encoding: 106 106 75
Width: 353
VWidth: 1467
Flags: W
HStem: -222 58<-32 115.132> 556 142<308.646 370.902>
VStem: -44 443<-222 650 -209.855 61.8669> 281 118<585.375 668.663>
Fore
9 -164 m 2xe0
 115 -164 148 -136 167 -49 c 0
 168 -41 169 -33 171 -25 c 2
 278 483 l 1
 351 483 l 1
 243 -23 l 2
 227 -98 199 -150 160 -179 c 0
 121 -207 69 -222 3 -222 c 2
 -44 -222 l 1
 -32 -164 l 1
 9 -164 l 2xe0
281 608 m 0xd0
 281 654 315 698 357 698 c 0
 384 698 399 679 399 650 c 0xe0
 399 603 366 556 328 556 c 0
 299 556 281 577 281 608 c 0xd0
EndSplineSet
EndChar
StartChar: k
Encoding: 107 107 76
Width: 595
VWidth: 1467
Flags: W
HStem: 1 21G<100 177.27 425 503.277> 476 20G<485.2 601> 678 20G<220.889 265.5>
VStem: 220 81<582.362 603.5 589.62 641.909> 459 74<143.632 158 160 172.985 172.985 193.359 183.172 261.982>
Fore
248 698 m 1
 283 684 301 636 301 608 c 0
 301 605 301 602 300 599 c 2
 231 271 l 1
 510 496 l 1
 601 496 l 1
 413 343 l 1
 461 337 539 314 539 213 c 0
 539 197 537 180 533 160 c 2
 499 1 l 1
 425 1 l 1
 459 158 l 2
 462 174 464 188 464 200 c 0
 464 273 410 288 355 295 c 1
 211 178 l 1
 173 0 l 1
 100 0 l 1
 214 538 l 2
 218 558 220 573 220 586 c 0
 220 617 209 633 187 653 c 1
 248 698 l 1
EndSplineSet
EndChar
StartChar: l
Encoding: 108 108 77
Width: 278
VWidth: 1467
Flags: W
HStem: -29 21G<149.5 193.667>
VStem: 114 81<26.4523 86.238> 214 86<579.564 600.5 586.672 637.993>
Fore
248 695 m 1
 283 682 301 633 301 605 c 0
 301 602 301 599 300 596 c 2
 198 117 l 2
 196 106 195 96 195 87 c 0
 195 43 220 23 227 16 c 1
 167 -29 l 1
 132 -15 114 29 114 58 c 0
 114 63 114 66 115 70 c 2
 214 537 l 2
 218 555 220 570 220 583 c 0
 220 614 208 630 186 651 c 1
 248 695 l 1
EndSplineSet
EndChar
StartChar: m
Encoding: 109 109 78
Width: 760
VWidth: 1467
Flags: W
HStem: 0 21G<100 179.252 340 421.219 631 673.957> 444 60<333.133 404.875 557.953 648.772>
VStem: 594 80<8.43866 82.836> 660 74<371.534 419.247>
Fore
399 279 m 2xd0
 405 305 413 344 413 377 c 0
 413 414 403 444 369 444 c 0
 360 444 332 441 304 411 c 0
 274 376 242 316 229 254 c 2
 175 0 l 1
 100 0 l 1
 173 343 l 2
 177 363 180 379 180 392 c 0
 180 418 170 434 147 455 c 1
 207 500 l 1
 239 489 255 453 258 421 c 1
 299 482 336 504 376 504 c 0
 445 504 463 460 476 396 c 1
 528 478 566 503 630 503 c 0
 703 503 734 473 734 416 c 0xd0
 734 393 725 336 718 302 c 2
 682 132 l 2
 677 106 674 87 674 72 c 0
 674 41 685 28 709 15 c 1
 647 -31 l 1
 615 -16 594 17 594 51 c 0xe0
 594 57 595 63 596 69 c 2
 659 366 l 2
 660 370 660 373 660 378 c 0
 660 387 658 399 649 424 c 0
 643 440 630 448 611 448 c 0
 532 448 484 301 471 255 c 2
 417 -1 l 1
 340 -1 l 1
 399 279 l 2xd0
EndSplineSet
EndChar
StartChar: n
Encoding: 110 110 79
Width: 620
VWidth: 1467
Flags: W
HStem: 0 21G<100 179.203 502 536.957> 449 60<390.483 487.597>
VStem: 179 82<386.577 406.977 388.863 445.721> 457 79<11.3487 88.2041> 511 76<313.305 425.841>
Fore
503 282 m 2xf0
 508 305 511 328 511 351 c 0
 511 404 493 449 434 449 c 0
 411 449 367 446 297 341 c 0
 254 275 213 179 204 138 c 2
 175 0 l 1
 100 0 l 1
 174 346 l 2
 178 364 179 379 179 391 c 0
 179 423 167 438 145 458 c 1
 208 503 l 1
 248 487 262 436 262 411 c 0
 262 408 261 405 261 403 c 1
 248 342 l 1
 326 486 386 509 453 509 c 0
 538 509 587 450 587 362 c 0xe8
 587 344 585 325 581 305 c 2
 545 135 l 2
 539 109 536 90 536 75 c 0
 536 44 548 31 572 18 c 1
 510 -28 l 1
 494 -21 457 4 457 57 c 0
 457 61 457 67 458 72 c 2
 503 282 l 2xf0
EndSplineSet
EndChar
StartChar: o
Encoding: 111 111 80
Width: 677
VWidth: 1467
Flags: W
HStem: -13 47<262.853 430.543> 458 51<343.069 512.802>
VStem: 130 80<83.0502 171.598 156.023 186.265> 564 80<309.455 319.54 319.54 338.539 329.039 404.987>
Fore
338 -13 m 0
 192 -13 130 67 130 142 c 0
 130 152 131 161 133 170 c 2
 167 328 l 2
 194 453 334 509 446 509 c 0
 547 509 648 463 648 362 c 0
 648 351 647 339 644 326 c 2
 611 170 l 2
 585 46 449 -13 338 -13 c 0
433 458 m 0
 350 458 258 403 234 293 c 2
 215 200 l 2
 211 184 210 169 210 156 c 0
 210 73 271 34 341 34 c 0
 424 34 521 90 545 200 c 2
 564 292 l 2
 567 306 569 320 569 332 c 0
 569 418 502 458 433 458 c 0
EndSplineSet
EndChar
StartChar: p
Encoding: 112 112 81
Width: 683
VWidth: 1467
Flags: W
HStem: -6 64<291.111 441.918> 446 60<366.154 520.962>
VStem: 571 82<212.199 396.159>
Fore
357 58 m 0
 485 58 571 174 571 314 c 0
 571 383 542 446 436 446 c 0
 397 446 344 442 252 371 c 1
 208 164 l 1
 224 99 285 58 357 58 c 0
653 315 m 0
 653 164 509 -6 341 -6 c 0
 316 -6 216 7 186 63 c 1
 134 -183 l 1
 61 -183 l 1
 179 371 l 2
 180 378 181 385 181 391 c 0
 181 432 160 449 146 461 c 1
 158 472 169 480 180 487 c 2
 209 506 l 1
 235 493 251 471 258 440 c 1
 297 466 l 2
 342 496 398 506 472 506 c 256
 578 506 653 426 653 315 c 0
EndSplineSet
EndChar
StartChar: q
Encoding: 113 113 82
Width: 667
VWidth: 1467
Flags: W
HStem: -226 21G<495 538.957> -6 71<246.679 419.005> 446 60<343.897 488.276>
VStem: 112 80<119.128 285.194> 459 81<-167.413 -109.594>
Fore
439 446 m 0
 283 446 192 297 192 192 c 0
 192 110 250 65 334 65 c 0
 390 65 458 86 519 150 c 1
 567 376 l 1
 503 445 456 446 439 446 c 0
112 192 m 0
 112 342 254 506 404 506 c 256
 524 506 562 471 590 440 c 1
 606 468 633 493 667 506 c 1
 688 487 l 2
 695 480 701 472 708 461 c 1
 688 448 655 427 639 371 c 2
 547 -62 l 2
 543 -83 540 -99 540 -112 c 0
 540 -142 551 -159 574 -180 c 1
 512 -226 l 1
 478 -210 459 -166 459 -137 c 0
 459 -133 459 -129 460 -126 c 2
 500 63 l 1
 458 19 365 -6 305 -6 c 0
 183 -6 112 84 112 192 c 0
EndSplineSet
EndChar
StartChar: r
Encoding: 114 114 83
Width: 404
VWidth: 1467
Flags: W
HStem: 440 59<334.554 431>
VStem: 48 395<1 499 -68.4577 1>
Fore
261 414 m 1
 320 489 380 499 419 499 c 2
 443 499 l 1
 431 440 l 1
 405 440 l 2
 290 440 237 295 221 220 c 2
 186 57 l 2
 181 32 133 -29 91 -43 c 1
 48 1 l 1
 91 29 111 52 126 120 c 2
 206 497 l 1
 279 497 l 1
 261 414 l 1
EndSplineSet
EndChar
StartChar: s
Encoding: 115 115 84
Width: 550
VWidth: 1467
Flags: W
HStem: -16 49<181.749 372.262> 459 53<280.507 454.762>
VStem: 149 78<309.68 410.514> 436 76<86.1012 196.53>
Fore
512 161 m 0
 512 39 372 -16 267 -16 c 0
 163 -16 87 28 74 97 c 1
 144 97 l 1
 163 54 208 33 264 33 c 0
 337 33 436 56 436 149 c 0
 436 186 411 221 291 238 c 0
 176 254 149 298 149 343 c 0
 149 456 287 512 380 512 c 0
 449 512 530 483 530 416 c 0
 530 412 529 409 529 406 c 1
 470 406 l 1
 470 422 461 459 365 459 c 0
 297 459 227 422 227 351 c 0
 227 316 253 288 373 272 c 0
 482 257 512 209 512 161 c 0
EndSplineSet
EndChar
StartChar: t
Encoding: 116 116 85
Width: 412
VWidth: 1467
Flags: W
HStem: -3 53<223.644 336> 442 54<278 405>
VStem: 134 70<71.0116 163.538> 219 82<584.174 603.977 586.318 639.252>
Fore
248 695 m 1
 286 679 302 632 302 608 c 0
 302 605 301 602 301 600 c 1
 278 496 l 1
 416 496 l 1
 405 442 l 1
 267 442 l 1
 212 183 l 2
 207 159 204 139 204 122 c 0
 204 73 230 50 321 50 c 2
 348 50 l 1
 336 -3 l 1
 312 -3 l 2
 197 -3 134 25 134 124 c 0
 134 146 137 172 143 201 c 2
 216 547 l 2
 218 561 219 572 219 582 c 0
 219 619 206 633 186 650 c 1
 207 668 226 682 248 695 c 1
EndSplineSet
EndChar
StartChar: u
Encoding: 117 117 86
Width: 657
VWidth: 1467
Flags: W
HStem: -13 51<250.825 415.987> 479 20G<201.741 278 573.738 650>
VStem: 133 75<80.1852 170.634 163.02 178.248 178.248 191.435>
Fore
334 38 m 0
 377 38 485 63 513 194 c 2
 578 499 l 1
 650 499 l 1
 575 145 l 2
 570 124 568 107 568 93 c 0
 568 62 579 46 601 25 c 1
 580 8 560 -7 540 -19 c 1
 512 -8 495 21 490 44 c 1
 434 3 370 -13 318 -13 c 0
 235 -13 133 39 133 140 c 0
 133 151 134 163 137 175 c 2
 206 499 l 1
 278 499 l 1
 213 194 l 2
 210 177 208 163 208 149 c 0
 208 61 276 38 334 38 c 0
EndSplineSet
EndChar
StartChar: v
Encoding: 118 118 87
Width: 520
VWidth: 1467
Flags: W
HStem: -10 60<250.25 305.732> 476 20G<164 237.06 488.667 564>
VStem: 165 73<56.1604 136 136 496>
Fore
418 151 m 2
 403 117 341 -10 259 -10 c 0
 177 -10 165 94 165 136 c 2
 164 496 l 1
 237 496 l 1
 238 160 l 2
 238 95 247 50 272 50 c 256
 297 50 329 95 357 160 c 2
 497 496 l 1
 564 496 l 1
 418 151 l 2
EndSplineSet
EndChar
StartChar: w
Encoding: 119 119 88
Width: 735
VWidth: 1467
Flags: W
HStem: -3 21G<150 264 479 579.16> 477 20G<168.24 241 659 775>
VStem: 169 72<404.895 497>
Fore
413 214 m 1
 361 107 309 43 219 -3 c 1
 150 -3 l 1
 169 497 l 1
 241 497 l 1
 234 67 l 1
 308 105 381 258 449 386 c 1
 465 267 465 109 523 69 c 1
 591 241 615 282 703 497 c 1
 775 497 l 1
 571 -3 l 1
 510 -3 l 1
 448 33 421 82 413 214 c 1
EndSplineSet
EndChar
StartChar: x
Encoding: 120 120 89
Width: 603
VWidth: 1467
Flags: W
HStem: 0 496<243 550 243 243>
Fore
243 496 m 1
 362 298 l 1
 566 496 l 1
 652 496 l 1
 408 248 l 1
 550 0 l 1
 464 0 l 1
 342 200 l 1
 141 0 l 1
 54 0 l 1
 301 248 l 1
 156 496 l 1
 243 496 l 1
EndSplineSet
EndChar
StartChar: y
Encoding: 121 121 90
Width: 661
VWidth: 1467
Flags: W
HStem: -242 57<256 404.66> -15 53<250.662 416.177> 477 20<201.714 278 628.5 655.5>
VStem: 133 75<81.1822 170.012 162.461 177.562 177.562 191.333>
Fore
300 -185 m 2
 413 -185 437 -158 461 -45 c 2
 479 37 l 1
 424 0 363 -15 318 -15 c 0
 237 -15 133 35 133 139 c 0
 133 150 134 162 137 175 c 2
 206 497 l 1
 278 497 l 1
 213 192 l 2
 210 177 208 163 208 149 c 0
 208 77 256 38 334 38 c 0
 407 38 490 88 512 192 c 2
 559 414 l 2
 565 442 605 491 652 509 c 1
 659 503 665 496 672 489 c 2
 695 464 l 1
 649 433 631 411 617 345 c 2
 534 -47 l 2
 507 -170 450 -242 286 -242 c 2
 244 -242 l 1
 256 -185 l 1
 300 -185 l 2
EndSplineSet
EndChar
StartChar: z
Encoding: 122 122 91
Width: 625
VWidth: 1467
Flags: W
HStem: -1 64<189.434 536> 434 62<196 520>
Fore
185 103 m 1
 187 71 195 63 249 63 c 2
 549 63 l 1
 536 -1 l 1
 220 -1 l 2
 130 -1 110 63 110 106 c 0
 110 116 111 124 112 131 c 1
 160 171 485 400 520 434 c 1
 183 434 l 1
 196 496 l 1
 641 496 l 1
 629 436 l 1
 185 103 l 1
EndSplineSet
EndChar
StartChar: braceleft
Encoding: 123 123 92
Width: 334
VWidth: 1467
Flags: W
HStem: 697 63<368.765 429.529>
VStem: 145 73<-34.5751 90.3155>
Fore
256 257 m 2
 231 139 l 2
 222 98 218 66 218 40 c 0
 218 -21 241 -46 278 -59 c 1
 265 -122 l 1
 209 -120 145 -81 145 43 c 0
 145 74 149 110 158 153 c 2
 180 261 l 1
 154 281 121 298 89 311 c 1
 125 324 162 341 202 364 c 1
 228 486 l 2
 271 686 369 747 453 760 c 1
 439 697 l 1
 381 681 339 648 307 499 c 2
 279 365 l 2
 272 334 190 318 165 314 c 1
 222 297 257 293 257 265 c 0
 257 263 257 260 256 257 c 2
EndSplineSet
EndChar
StartChar: bar
Encoding: 124 124 93
Width: 296
VWidth: 1467
Flags: W
VStem: 48 311<-261 791 -261 -261>
Fore
48 -261 m 1
 269 791 l 1
 359 791 l 1
 136 -261 l 1
 48 -261 l 1
EndSplineSet
EndChar
StartChar: braceright
Encoding: 125 125 94
Width: 331
VWidth: 1467
Flags: W
HStem: -119 63<11 68.8939>
VStem: 231 74<549.444 675.386>
Fore
194 384 m 2
 219 502 l 2
 227 542 231 574 231 599 c 0
 231 662 208 688 171 701 c 1
 184 763 l 1
 241 761 305 721 305 597 c 0
 305 567 301 531 292 489 c 2
 269 380 l 1
 285 368 311 350 359 330 c 1
 324 317 287 300 247 277 c 1
 221 156 l 2
 210 105 166 -93 -0 -119 c 1
 11 -56 l 1
 67 -40 111 -5 141 137 c 2
 171 276 l 2
 179 314 265 318 284 327 c 1
 211 346 192 353 192 372 c 0
 192 375 193 379 194 384 c 2
EndSplineSet
EndChar
StartChar: asciitilde
Encoding: 126 126 95
Width: 735
VWidth: 1467
Flags: W
HStem: 200 79<510.553 633.226> 323 82<228.497 346.576>
Fore
301 405 m 0
 432 405 476 279 581 279 c 0
 626 279 656 311 669 374 c 1
 739 374 l 1
 735 352 l 2
 716 265 649 200 568 200 c 0
 384 200 377 323 289 323 c 0
 256 323 204 304 187 227 c 1
 118 227 l 1
 121 238 l 2
 133 296 192 405 301 405 c 0
EndSplineSet
EndChar
StartChar: uni0E33.alt1
Encoding: 65537 -1 96
Width: 523
VWidth: 1467
Flags: W
HStem: 0 21<339 422.253> 502 21<164.619 175.5> 539 49<241.432 388.997> 698 34<-251.576 -184.97> 864 37<-233.559 -164.94>
VStem: -309 52<735.668 840.311> -161 53<757.072 861.41> 420 82<378.542 380 395 399.351 400.232 408.124 404.178 502.733>
Back
310 588 m 0
 340 588 368.167 583.167 394.5 573.5 c 128
 420.833 563.833 442.833 550.167 460.5 532.5 c 128
 478.167 514.833 491 494.333 499 471 c 128
 507 447.667 508 422.333 502 395 c 2
 417 -3 l 1
 337 -3 l 1
 417 367 l 2
 422.333 395 425.833 418.333 427.5 437 c 128
 429.167 455.667 424 473.333 412 490 c 0
 402.667 506 388.167 518 368.5 526 c 128
 348.833 534 327 538.333 303 539 c 128
 279 539.667 254 536.833 228 530.5 c 128
 202 524.167 178.333 514.667 157 502 c 1
 173 544 l 1
 185 554 198.333 562 213 568 c 128
 227.667 574 241.5 578.333 254.5 581 c 128
 267.5 583.667 279.167 585.5 289.5 586.5 c 128
 299.833 587.5 306.667 588 310 588 c 0
-308 739 m 0
 -302 767.667 -287 791.5 -263 810.5 c 128
 -239 829.5 -214 839 -188 839 c 0
 -162.667 839 -142.167 829.333 -126.5 810 c 128
 -110.833 790.667 -106.333 766.667 -113 738 c 0
 -117 709.333 -131.167 685.333 -155.5 666 c 128
 -179.833 646.667 -204.667 637 -230 637 c 0
 -258.667 637 -280.333 647.167 -295 667.5 c 128
 -309.667 687.833 -314 711.667 -308 739 c 0
-257 739 m 0
 -261 723 -260.5 707.833 -255.5 693.5 c 128
 -250.5 679.167 -239.667 671.667 -223 671 c 0
 -208.333 671 -195.667 678.333 -185 693 c 128
 -174.333 707.667 -166.333 723 -161 739 c 0
 -158.333 753.667 -159.667 767.667 -165 781 c 128
 -170.333 794.333 -180.333 801.667 -195 803 c 0
 -211.667 801.667 -225.333 794.167 -236 780.5 c 128
 -246.667 766.833 -253.667 753 -257 739 c 0
EndSplineSet
Refer: 261 3634 N 1 0 0 1 0 0 2
Refer: 284 3661 N 1 0 0 1 -192 0 2
EndChar
StartChar: quotedbl
Encoding: 34 34 97
Width: 380
VWidth: 1467
Flags: W
HStem: 497 207<220 245 372 397 193 458 220 220>
Fore
397 497 m 1
 345 497 l 1
 372 704 l 1
 458 706 l 1
 397 497 l 1
245 497 m 1
 193 497 l 1
 220 704 l 1
 306 706 l 1
 245 497 l 1
EndSplineSet
EndChar
StartChar: exclam
Encoding: 33 33 98
Width: 250
VWidth: 1467
Flags: W
HStem: -3 157<117.641 173.126>
VStem: 86 246<52 716 52 52> 86 121<33.6604 120.25> 138 69<219.402 277.572>
Fore
138 207 m 1x90
 231 716 l 1
 332 716 l 1xc0
 207 207 l 1
 138 207 l 1x90
86 52 m 0
 86 104 122 154 162 154 c 0
 191 154 207 130 207 98 c 0xa0
 207 60 181 3 128 -3 c 1
 119 -2 86 8 86 52 c 0
EndSplineSet
EndChar
StartChar: exclamdown
Encoding: 161 161 100
Width: 227
VWidth: 1467
Flags: W
HStem: 352 157<172.545 227.137>
VStem: 14 246<-210 456 -210 -210> 139 121<387.438 473.962> 139 69<240.83 299>
Fore
208 299 m 1x90
 115 -210 l 1
 14 -210 l 1xc0
 139 299 l 1
 208 299 l 1x90
260 456 m 0
 260 405 224 352 184 352 c 0
 155 352 139 378 139 410 c 0xa0
 139 459 177 508 217 509 c 0
 245 508 260 487 260 456 c 0
EndSplineSet
EndChar
StartChar: cent
Encoding: 162 162 101
Width: 627
VWidth: 1467
Flags: W
HStem: 0 21G<296 385.255> 91 57<283.45 315 411 479.313> 547 57<340.895 408.266> 555 48<509 584.487>
VStem: 149 80<194.33 239.5 228.5 250.5 250.5 255.663> 606 57<491.2 531.257>
Fore
597 194 m 1xdc
 555 134 480 104 401 94 c 1
 381 0 l 1
 296 0 l 1
 315 91 l 1
 215 100 149 154 149 218 c 0
 149 225 149 232 151 239 c 2
 197 458 l 2
 212 526 303 596 424 604 c 1xec
 449 720 l 1
 534 720 l 1
 509 603 l 1
 570 595 645 567 663 503 c 1
 606 471 l 1
 596 521 556 548 499 555 c 1
 411 141 l 1
 491 153 528 194 548 226 c 1
 597 194 l 1xdc
231 258 m 2
 230 253 229 248 229 243 c 0
 229 185 310 152 327 148 c 1
 412 547 l 1
 370 538 282 499 269 439 c 2
 231 258 l 2
EndSplineSet
EndChar
StartChar: sterling
Encoding: 163 163 102
Width: 613
VWidth: 1467
Flags: W
HStem: 0 51<216 541> 308 66<171 285 376 500> 643 55<460.751 626.637>
VStem: 292 84<237.333 300 381 456.081>
Fore
529 643 m 0
 406 643 376 484 376 397 c 2
 376 381 l 1
 514 381 l 1
 500 314 l 1
 371 313 l 1
 370 300 l 2
 367 222 349 110 216 51 c 1
 549 53 l 1
 541 0 l 1
 97 0 l 1
 104 48 l 1
 228 97 263 158 279 236 c 0
 285 265 283 258 285 308 c 1
 157 308 l 1
 171 374 l 1
 292 374 l 1
 292 387 l 2
 292 439 297 474 302 496 c 0
 327 610 422 698 538 698 c 0
 592 698 614 689 657 671 c 1
 623 615 l 1
 579 635 569 643 529 643 c 0
EndSplineSet
EndChar
StartChar: currency
Encoding: 164 164 103
Width: 713
VWidth: 1467
Flags: W
HStem: 82 65<302.502 489.188> 536 65<391.603 559.42>
VStem: 146 79<197.081 251.618 240.258 262.977 262.977 267 273 283.734> 620 77<411.38 483.72>
Fore
661 267 m 2
 653 231 645 214 624 188 c 1
 675 122 l 1
 628 85 l 1
 583 145 l 1
 533 106 457 82 373 82 c 0
 324 82 235 92 187 141 c 1
 111 82 l 1
 85 123 l 1
 156 183 l 1
 149 199 146 211 146 225 c 0
 146 237 148 250 152 267 c 2
 184 420 l 2
 192 458 204 481 238 514 c 1
 195 566 l 1
 241 604 l 1
 283 550 l 1
 347 593 431 601 476 601 c 0
 525 601 614 592 659 544 c 1
 728 600 l 1
 762 559 l 1
 687 502 l 1
 694 486 697 472 697 456 c 0
 697 443 695 430 692 414 c 2
 661 267 l 2
466 536 m 0
 365 536 271 482 254 402 c 2
 227 273 l 2
 226 266 225 259 225 253 c 0
 225 189 293 147 382 147 c 0
 481 147 576 200 590 270 c 2
 617 395 l 2
 619 404 620 413 620 421 c 0
 620 491 554 536 466 536 c 0
EndSplineSet
EndChar
StartChar: yen
Encoding: 165 165 104
Width: 641
VWidth: 1467
Flags: W
HStem: 0 21G<276 358.176> 91 81<87 295 391 615> 248 84<121 303 469 649> 678 20G<173 253.16 667.963 752>
Fore
469 332 m 1
 667 332 l 1
 649 248 l 1
 407 248 l 1
 391 172 l 1
 633 172 l 1
 615 91 l 1
 373 91 l 1
 354 0 l 1
 276 0 l 1
 295 91 l 1
 69 91 l 1
 87 172 l 1
 313 172 l 1
 329 248 l 1
 103 248 l 1
 121 332 l 1
 303 332 l 1
 265 408 216 578 173 698 c 1
 246 698 l 1
 362 374 l 2
 371 348 379 340 385 340 c 0
 392 340 404 350 421 370 c 2
 684 698 l 1
 752 698 l 1
 747 691 470 333 469 332 c 1
EndSplineSet
EndChar
StartChar: brokenbar
Encoding: 166 166 105
Width: 247
VWidth: 1467
Flags: W
HStem: 692 20G<233.753 315>
VStem: 48 267<-183 712 -547.301 -183>
Fore
159 340 m 1
 238 712 l 1
 315 712 l 1
 236 340 l 1
 159 340 l 1
48 -183 m 1
 127 189 l 1
 204 189 l 1
 125 -183 l 1
 48 -183 l 1
EndSplineSet
EndChar
StartChar: section
Encoding: 167 167 106
Width: 591
VWidth: 1467
Flags: W
HStem: -50 57<201.769 382.964> 673 53<343.427 522.74>
VStem: 158 82<276.436 381.468> 209 79<526.31 624.918> 441 91<58.0035 159.628> 501 79<299.757 405.642>
Fore
580 367 m 0xd4
 580 308 548 266 450 220 c 1
 487 203 532 175 532 119 c 0
 532 26 422 -50 286 -50 c 0
 203 -50 81 -18 84 65 c 1
 177 65 l 1
 188 25 223 7 297 7 c 0
 398 7 441 71 441 113 c 0
 441 175 356 193 307 201 c 0
 191 220 158 268 158 317 c 0xe8
 158 400 254 460 303 468 c 1
 226 495 209 531 209 564 c 0
 209 656 323 726 443 726 c 0
 544 726 625 681 625 619 c 1
 543 619 l 1
 530 654 510 673 444 673 c 0
 336 673 288 623 288 568 c 0
 288 530 317 516 379 497 c 1
 543 476 580 422 580 367 c 0xd4
368 252 m 1
 468 265 501 313 501 354 c 0xe4
 501 378 490 411 449 422 c 2
 409 434 l 1
 383 434 l 2
 322 434 240 401 240 319 c 0
 240 263 297 264 368 252 c 1
EndSplineSet
EndChar
StartChar: dieresis
Encoding: 168 168 107
Width: 416
VWidth: 1467
Flags: W
HStem: 541 157<204.428 258.04 424.428 478.04>
VStem: 172 120<576.838 663.041> 392 120<576.838 663.041>
Fore
292 642 m 0
 292 593 254 541 215 541 c 0
 188 541 172 563 172 595 c 0
 172 645 207 697 248 698 c 0
 276 697 292 673 292 642 c 0
512 642 m 0
 512 593 474 541 435 541 c 0
 408 541 392 563 392 595 c 0
 392 645 427 697 468 698 c 0
 496 697 512 673 512 642 c 0
EndSplineSet
EndChar
StartChar: copyright
Encoding: 169 169 108
Width: 893
VWidth: 1467
Flags: W
HStem: -23 60<316.361 597.04> 99 48<390.834 552.489> 555 44<463.87 631.702> 660 61<439.232 722.982>
VStem: 133 81<113.477 175.328> 282 72<179.993 237.785 233.5 242.069 242.069 252 252 258.411> 705 56<484.079 530.61> 821 82<517.608 519.216 519.216 546.023 532.619 585.35>
Fore
215 534 m 2
 239 648 405 721 606 721 c 0
 777 721 906 657 906 558 c 0
 906 551 905 542 903 534 c 2
 824 164 l 2
 800 52 635 -23 445 -23 c 0
 315 -23 133 16 133 136 c 0
 133 145 134 154 136 164 c 2
 215 534 l 2
453 37 m 0
 591 37 732 91 754 195 c 2
 821 506 l 2
 823 514 823 521 823 528 c 0
 823 609 723 660 585 660 c 0
 482 660 309 625 284 506 c 2
 217 195 l 2
 215 187 214 179 214 171 c 0
 214 82 328 37 453 37 c 0
705 480 m 1
 690 551 582 555 567 555 c 0
 446 555 408 499 394 434 c 2
 356 252 l 2
 355 247 354 240 354 232 c 0
 354 198 373 147 492 147 c 0
 563 147 627 174 660 227 c 1
 699 200 l 1
 630 102 492 99 468 99 c 0
 343 99 282 165 282 225 c 0
 282 231 283 236 284 242 c 2
 329 453 l 2
 343 518 431 599 569 599 c 0
 637 599 738 578 761 496 c 1
 705 480 l 1
EndSplineSet
EndChar
StartChar: ordfeminine
Encoding: 170 170 109
Width: 422
VWidth: 1467
Flags: W
HStem: 276 41<182.797 300.119> 586 35<252.183 391.731>
VStem: 123 54<326.638 362.86 358 367.719> 412 54<508.009 566.392>
Fore
178 361 m 1
 178 359 177 357 177 355 c 0
 177 338 193 317 250 317 c 0
 273 317 318 324 358 352 c 2
 380 368 l 1
 401 464 l 1
 323 410 196 445 178 361 c 1
440 299 m 1
 427 287 413 289 397 280 c 1
 384 286 371 305 371 324 c 1
 328 295 268 276 229 276 c 0
 186 276 123 298 123 352 c 0
 123 357 124 362 125 368 c 0
 148 474 318 460 378 490 c 0
 398 500 412 511 412 526 c 0
 412 543 397 586 322 586 c 0
 273 586 217 566 193 555 c 1
 206 596 l 1
 255 617 310 621 335 621 c 0
 412 621 466 587 466 536 c 0
 466 530 465 525 464 519 c 2
 428 349 l 2
 426 340 425 333 425 328 c 0
 425 316 429 308 440 299 c 1
EndSplineSet
EndChar
StartChar: guillemotleft
Encoding: 171 171 110
Width: 660
VWidth: 1467
Flags: W
HStem: 67 364<363 369 363 363>
Fore
90 245 m 1
 166 276 276 338 363 431 c 1
 447 431 l 1
 373 349 253 267 201 248 c 1
 245 229 338 134 369 67 c 1
 288 67 l 1
 220 176 140 232 90 245 c 1
325 245 m 1
 401 276 511 338 598 431 c 1
 682 431 l 1
 598 337 475 262 436 248 c 1
 477 230 574 133 604 67 c 1
 523 67 l 1
 503 99 418 221 325 245 c 1
EndSplineSet
EndChar
StartChar: logicalnot
Encoding: 172 172 111
Width: 693
VWidth: 1467
Flags: W
HStem: 354 66<145 638>
Fore
591 134 m 1
 638 354 l 1
 131 354 l 1
 145 420 l 1
 718 420 l 1
 657 134 l 1
 591 134 l 1
EndSplineSet
EndChar
StartChar: registered
Encoding: 174 174 112
Width: 710
VWidth: 1467
Flags: W
HStem: 202 51<318.37 522.08> 445 54<467 496.569> 587 39<495 547.701> 672 53<387.247 595.974>
VStem: 179 72<308.842 377.488 372 382.977 382.977 387 396 403.227> 501 46<341.111 358 359 370.647 370.647 388.96 379.804 435.78> 550 42<522.569 583.535> 658 69<523.773 534 540 546 546 551.98 548.99 616.858>
Fore
402 202 m 0
 277 202 179 264 179 357 c 0
 179 367 180 377 182 387 c 2
 215 540 l 2
 240 660 376 725 510 725 c 0
 621 725 731 678 731 575 c 0
 731 564 730 552 727 540 c 2
 694 387 l 2
 669 267 531 202 402 202 c 0
495 672 m 0
 408 672 304 630 283 533 c 2
 254 396 l 2
 252 387 251 378 251 370 c 0
 251 289 339 253 418 253 c 0
 499 253 607 295 626 387 c 2
 658 534 l 2
 660 542 660 550 660 558 c 0
 660 635 576 672 495 672 c 0
507 465 m 1
 588 485 592 543 592 559 c 0
 592 592 573 626 495 626 c 2
 396 626 l 1
 330 313 l 1
 375 313 l 1
 403 445 l 1
 419 445 l 2
 471 445 505 441 505 393 c 0
 505 383 504 372 501 358 c 2
 492 313 l 1
 538 313 l 1
 547 359 l 2
 551 378 553 393 553 406 c 0
 553 440 538 455 507 465 c 1
550 555 m 0
 550 510 526 505 467 499 c 2
 414 499 l 1
 433 587 l 1
 489 587 l 2
 530 587 550 583 550 555 c 0
EndSplineSet
EndChar
StartChar: macron
Encoding: 175 175 113
Width: 346
VWidth: 1467
Flags: W
HStem: 609 70<197 415 182 430 197 197>
Fore
182 609 m 1
 197 679 l 1
 430 679 l 1
 415 609 l 1
 182 609 l 1
EndSplineSet
EndChar
StartChar: degree
Encoding: 176 176 114
Width: 321
VWidth: 1467
Flags: W
HStem: 483 39<232.117 306.57> 673 43<254.904 332.795>
VStem: 165 60<526.839 640.812> 340 60<558.722 667.068>
Fore
400 623 m 0
 400 545 319 483 259 483 c 0
 199 483 165 526 165 577 c 0
 165 653 237 716 308 716 c 0
 358 716 400 677 400 623 c 0
267 522 m 0
 305 522 340 582 340 619 c 0
 340 645 328 673 299 673 c 0
 260 673 225 626 225 577 c 0
 225 551 234 522 267 522 c 0
EndSplineSet
EndChar
StartChar: plusminus
Encoding: 177 177 115
Width: 657
VWidth: 1467
Flags: W
HStem: 0 75<66 596> 327 76<134 350 440 663>
Fore
424 327 m 1
 384 139 l 1
 310 139 l 1
 350 327 l 1
 118 327 l 1
 134 403 l 1
 366 403 l 1
 407 599 l 1
 481 599 l 1
 440 403 l 1
 679 403 l 1
 663 327 l 1
 424 327 l 1
51 0 m 1
 66 75 l 1
 610 75 l 1
 596 0 l 1
 51 0 l 1
EndSplineSet
EndChar
StartChar: twosuperior
Encoding: 178 178 116
Width: 435
VWidth: 1467
Flags: W
HStem: 280 52<212 417> 660 47<278.593 429.016>
VStem: 435 60<572.178 651.245>
Fore
212 332 m 1
 428 332 l 1
 417 280 l 1
 116 280 l 1
 127 332 l 1
 318 475 l 2
 403 550 435 592 435 617 c 0
 435 637 423 660 370 660 c 0
 318 660 251 631 202 597 c 1
 213 649 l 1
 261 684 319 707 370 707 c 0
 426 707 495 691 495 630 c 0
 495 558 409 486 366 450 c 0
 288 387 212 332 212 332 c 1
EndSplineSet
EndChar
StartChar: threesuperior
Encoding: 179 179 117
Width: 407
VWidth: 1467
Flags: W
HStem: 281 54<166.622 322.891> 477 70<230 300.838> 659 49<280.447 382.536>
VStem: 360 76<370.811 461.011> 394 68<582.935 645.207>
Fore
462 627 m 0xe8
 462 560 395 530 319 515 c 1
 319 514 l 1
 353 514 436 497 436 430 c 0
 436 356 351 281 251 281 c 0
 213 281 143 288 126 301 c 1
 135 358 l 1
 175 343 198 335 244 335 c 0
 332 335 360 388 360 424 c 0xf0
 360 474 297 477 241 477 c 2
 215 477 l 1
 230 547 l 1
 302 547 394 574 394 615 c 0
 394 633 375 659 306 659 c 0
 271 659 237 648 203 638 c 1
 217 690 l 1
 238 695 292 708 335 708 c 0
 392 708 462 686 462 627 c 0xe8
EndSplineSet
EndChar
StartChar: acute
Encoding: 180 180 118
Width: 325
VWidth: 1467
Flags: W
HStem: 514 206<275 297 297 297>
Fore
275 514 m 1
 209 514 l 1
 297 720 l 1
 392 720 l 1
 275 514 l 1
EndSplineSet
EndChar
StartChar: mu
Encoding: 181 181 119
AltUni2: 0003bc.ffffffff.0
Width: 699
VWidth: 1467
Flags: W
HStem: -10 66<291.22 426.848> 491 20G<211.741 303 612.729 705>
Fore
363 56 m 0
 459 56 538 142 554 216 c 2
 617 511 l 1
 705 511 l 1
 596 1 l 1
 512 1 l 1
 532 95 l 1
 468 24 405 -10 335 -10 c 0
 304 -10 238 -6 208 65 c 1
 142 -245 l 1
 55 -245 l 1
 216 511 l 1
 303 511 l 1
 250 264 l 2
 245 242 243 220 243 199 c 0
 243 123 275 56 363 56 c 0
EndSplineSet
EndChar
StartChar: paragraph
Encoding: 182 182 120
Width: 607
VWidth: 1467
Flags: W
HStem: 631 79<449 561>
Fore
133 411 m 0
 133 550 288 710 424 710 c 2
 656 710 l 1
 494 -54 l 1
 416 -54 l 1
 561 631 l 1
 449 631 l 1
 304 -54 l 1
 228 -54 l 1
 306 315 l 1
 282 306 259 301 238 301 c 0
 172 301 133 344 133 411 c 0
EndSplineSet
EndChar
StartChar: periodcentered
Encoding: 183 183 121
Width: 388
VWidth: 1467
Flags: W
HStem: 232 233<216.905 309.139>
VStem: 141 241<303.299 390.498>
Fore
141 323 m 0
 141 401 219 465 287 465 c 0
 347 465 382 424 382 373 c 0
 382 302 317 232 237 232 c 0
 184 232 141 268 141 323 c 0
EndSplineSet
EndChar
StartChar: cedilla
Encoding: 184 184 122
Width: 393
VWidth: 1467
Flags: W
HStem: -200 35<72.5942 180.094>
VStem: 216 70<-133.949 -80.8669>
Fore
286 -88 m 0
 286 -133 217 -200 120 -200 c 0
 112 -200 69 -200 45 -186 c 1
 58 -158 l 1
 68 -162 78 -165 93 -165 c 0
 169 -165 216 -127 216 -101 c 0
 216 -87 202 -79 175 -79 c 0
 146 -79 96 -90 79 -98 c 1
 167 7 l 1
 240 7 l 1
 188 -47 l 1
 198 -46 208 -45 220 -45 c 0
 251 -45 286 -56 286 -88 c 0
EndSplineSet
EndChar
StartChar: onesuperior
Encoding: 185 185 123
Width: 272
VWidth: 1467
Flags: W
HStem: 280 411<239 272 272 272>
Fore
251 634 m 1
 204 609 l 1
 216 663 l 1
 272 691 l 1
 326 691 l 1
 239 280 l 1
 176 280 l 1
 251 634 l 1
EndSplineSet
EndChar
StartChar: ordmasculine
Encoding: 186 186 124
Width: 450
VWidth: 1467
Flags: W
HStem: 273 45<212.857 372> 586 42<265.595 419.721>
VStem: 121 66<344.187 395 388.5 401.5 401.5 412 412 415.545> 444 66<486.455 487 487 498.023 498.023 514.023 506.023 559.886>
Fore
280 273 m 0
 188 273 121 314 121 378 c 0
 121 385 121 392 123 399 c 2
 145 503 l 2
 161 578 250 628 353 628 c 0
 426 628 512 600 512 525 c 0
 512 518 512 511 510 503 c 2
 488 399 l 2
 469 309 357 273 280 273 c 0
350 586 m 0
 307 586 221 566 205 487 c 2
 189 412 l 2
 187 405 187 398 187 391 c 0
 187 333 252 318 289 318 c 0
 331 318 412 337 428 412 c 2
 444 487 l 2
 446 495 446 502 446 509 c 0
 446 570 387 586 350 586 c 0
EndSplineSet
EndChar
StartChar: guillemotright
Encoding: 187 187 125
Width: 607
VWidth: 1467
Flags: W
HStem: 84 363<349 355 349 349>
Fore
628 270 m 1
 552 239 443 177 355 84 c 1
 272 84 l 1
 344 163 466 249 518 267 c 1
 474 285 375 387 349 447 c 1
 430 447 l 1
 451 410 538 294 628 270 c 1
393 270 m 1
 318 239 208 177 121 84 c 1
 37 84 l 1
 109 163 231 249 283 267 c 1
 253 279 151 369 114 447 c 1
 195 447 l 1
 216 410 303 294 393 270 c 1
EndSplineSet
EndChar
StartChar: onequarter
Encoding: 188 188 126
Width: 883
VWidth: 1467
Flags: W
HStem: -6 21G<133 215.208> 92 61<552 689 764 799> 681 20G<260 354 692.82 776>
Fore
279 644 m 1
 233 619 l 1
 244 673 l 1
 300 701 l 1
 354 701 l 1
 267 291 l 1
 204 291 l 1
 279 644 l 1
821 418 m 1
 788 270 l 1
 764 153 l 1
 812 153 l 1
 799 92 l 1
 751 92 l 1
 732 7 l 1
 670 7 l 1
 689 92 l 1
 470 92 l 1
 481 144 l 1
 504 171 672 362 718 418 c 1
 821 418 l 1
702 153 m 1
 721 245 733 292 753 384 c 1
 552 153 l 1
 702 153 l 1
776 706 m 1
 199 -6 l 1
 133 -6 l 1
 709 706 l 1
 776 706 l 1
EndSplineSet
LCarets2: 2 0 0 
Ligature2: "'frac' Diagonal Fractions in Latin lookup 0 subtable" one fraction four
Ligature2: "'frac' Diagonal Fractions in Latin lookup 0 subtable" one slash four
EndChar
StartChar: onehalf
Encoding: 189 189 127
Width: 883
VWidth: 1467
Flags: W
HStem: -15 21G<116 198.236> 21 51<587 789> 400 47<682.527 801.312> 677 20G<675.82 760>
VStem: 808 60<313.063 390.91>
Fore
743 400 m 0
 677 400 581 342 575 337 c 1
 586 389 l 1
 653 437 713 447 744 447 c 0
 801 447 868 431 868 369 c 0
 868 317 829 260 704 162 c 2
 587 72 l 1
 800 72 l 1
 789 21 l 1
 488 21 l 1
 499 72 l 1
 692 216 l 2
 725 244 808 321 808 357 c 0
 808 377 796 400 743 400 c 0
259 632 m 1
 213 607 l 1
 225 662 l 1
 281 690 l 1
 335 690 l 1
 247 279 l 1
 184 279 l 1
 259 632 l 1
760 697 m 1
 182 -15 l 1
 116 -15 l 1
 692 697 l 1
 760 697 l 1
EndSplineSet
LCarets2: 2 0 0 
Ligature2: "'frac' Diagonal Fractions in Latin lookup 0 subtable" one fraction two
Ligature2: "'frac' Diagonal Fractions in Latin lookup 0 subtable" one slash two
EndChar
StartChar: threequarters
Encoding: 190 190 128
Width: 883
VWidth: 1467
Flags: W
HStem: -12 21G<217 299.264> 92 61<569 705 780 815> 274 53<216.821 341.333> 470 70<250 320.281> 651 49<236.749 402.343>
VStem: 379 74<362.774 454.041> 414 68<575.26 636.584>
Fore
482 618 m 0xfa
 482 530 351 510 338 508 c 1
 338 506 l 1
 368 506 453 492 453 422 c 0
 453 351 370 274 271 274 c 0
 218 274 165 283 144 293 c 1
 154 351 l 1
 192 334 227 327 261 327 c 0
 329 327 379 363 379 417 c 0xfc
 379 467 317 470 260 470 c 2
 235 470 l 1
 250 540 l 1
 322 540 414 567 414 607 c 0
 414 627 392 651 322 651 c 0
 284 651 262 641 222 631 c 1
 236 682 l 1
 263 690 303 700 354 700 c 0
 433 700 482 668 482 618 c 0xfa
837 418 m 1
 804 270 l 1
 780 153 l 1
 828 153 l 1
 815 92 l 1
 767 92 l 1
 748 7 l 1
 686 7 l 1
 705 92 l 1
 487 92 l 1
 498 144 l 1
 735 418 l 1
 837 418 l 1
725 190 m 2
 739 254 748 285 761 349 c 2
 769 384 l 1
 569 153 l 1
 718 153 l 1
 725 190 l 2
862 700 m 1
 283 -12 l 1
 217 -12 l 1
 795 700 l 1
 862 700 l 1
EndSplineSet
LCarets2: 2 0 0 
Ligature2: "'frac' Diagonal Fractions in Latin lookup 0 subtable" three fraction four
Ligature2: "'frac' Diagonal Fractions in Latin lookup 0 subtable" three slash four
EndChar
StartChar: questiondown
Encoding: 191 191 129
Width: 616
VWidth: 1467
Flags: W
HStem: -229 49<196.185 327.033> 30 48<403.89 462.143> 382 133<376.658 437.109>
VStem: 76 76<-136.561 4.85888> 293 59<-131.434 -30.896> 351 111<407.878 488.72> 463 58<-75.106 23.3733>
Fore
342 -167 m 1xfa
 305 -152 293 -130 293 -102 c 0
 293 -2 391 78 451 78 c 0
 501 78 521 36 521 -9 c 0
 521 -134 396 -229 261 -229 c 0
 145 -229 76 -160 76 -71 c 0
 76 16 144 87 184 114 c 2
 226 142 l 2
 278 179 291 194 316 252 c 0
 336 302 333 310 334 317 c 1
 422 318 l 1
 422 272 388 192 341 152 c 0
 317 132 274 97 235 75 c 1
 163 17 152 -38 152 -70 c 0
 152 -132 199 -180 266 -180 c 0
 310 -180 328 -174 342 -167 c 1xfa
443 30 m 0
 410 30 352 -40 352 -101 c 0
 352 -125 365 -132 375 -132 c 0
 413 -132 463 -61 463 -3 c 0
 463 14 458 30 443 30 c 0
462 466 m 0xf6
 462 427 433 382 391 382 c 0
 365 382 351 401 351 428 c 0
 351 470 383 515 419 515 c 0
 446 515 462 494 462 466 c 0xf6
EndSplineSet
EndChar
StartChar: Aring
Encoding: 197 197 134
Width: 764
VWidth: 1467
Flags: W
HStem: 0 21G<91 176.194 598.673 675> 211 59<292 584> 647 84<503.767 548.264> 882 42<524.331 601.505>
VStem: 433 63<747.606 853.251> 608 60<765.058 876.443>
Fore
668 830 m 0
 668 785 639 728 572 700 c 1
 596 691 640 674 646 562 c 2
 675 0 l 1
 600 0 l 1
 586 211 l 1
 264 211 l 1
 167 0 l 1
 91 0 l 1
 335 533 l 2
 376 618 420 685 482 701 c 1
 455 716 433 746 433 785 c 0
 433 853 499 924 576 924 c 0
 634 924 668 880 668 830 c 0
535 731 m 0
 579 731 608 793 608 831 c 0
 608 862 592 882 567 882 c 0
 537 882 496 846 496 786 c 0
 496 761 503 731 535 731 c 0
584 270 m 1
 573 508 l 2
 564 576 562 647 514 647 c 0
 458 647 425 546 404 508 c 2
 292 270 l 1
 584 270 l 1
EndSplineSet
EndChar
StartChar: AE
Encoding: 198 198 135
Width: 1113
VWidth: 1467
Flags: W
HStem: 1 77<745.456 1043> 230 69<321 599> 314 69<728 999> 644 76<849.548 1180> 655 71<566.796 673.065>
Fore
755 638 m 1xe8
 783 670 838 718 997 720 c 2
 1196 720 l 1
 1180 644 l 1
 978 644 l 2xf0
 838 644 775 603 753 500 c 2
 728 383 l 1
 1013 383 l 1
 999 314 l 1
 714 314 l 1
 697 235 l 2
 694 218 692 204 692 190 c 0
 692 107 756 81 858 78 c 2
 1060 78 l 1
 1043 1 l 1
 844 1 l 2
 715 5 669 30 643 79 c 1
 626 1 l 1
 550 1 l 1
 599 230 l 1
 269 230 l 1
 101 1 l 1
 18 1 l 1
 411 546 l 2
 501 678 570 726 651 726 c 0
 721 726 755 673 755 638 c 1xe8
616 301 m 1
 674 574 l 2
 677 587 678 599 678 608 c 0
 678 643 660 655 632 655 c 0xe8
 547 655 505 561 473 521 c 2
 321 299 l 1
 616 301 l 1
EndSplineSet
EndChar
StartChar: Eth
Encoding: 208 208 145
Width: 782
VWidth: 1467
Flags: W
HStem: -9 66<197 221.523 221.523 426.57> 308 69<80 163 265 457> 643 66<322 534.018>
VStem: 666 87<403.967 543.025>
Fore
249 709 m 1
 519 709 753 689 753 452 c 0
 753 423 749 389 741 352 c 0
 678 56 472 -9 222 -9 c 2
 96 -9 l 1
 163 308 l 1
 65 308 l 1
 80 377 l 1
 178 377 l 1
 249 709 l 1
656 369 m 0
 663 401 666 429 666 454 c 0
 666 603 549 643 336 643 c 2
 322 643 l 1
 265 377 l 1
 472 377 l 1
 457 308 l 1
 250 308 l 1
 197 57 l 1
 214 56 230 56 246 56 c 0
 481 56 603 119 656 369 c 0
EndSplineSet
EndChar
StartChar: multiply
Encoding: 215 215 152
Width: 660
VWidth: 1467
Flags: W
HStem: -6 21G<67.5714 126.784 522.088 578.714>
Fore
537 -6 m 1
 367 222 l 1
 103 0 l 1
 41 35 l 1
 328 271 l 1
 145 521 l 1
 218 556 l 1
 394 315 l 1
 678 553 l 1
 728 514 l 1
 430 267 l 1
 610 29 l 1
 537 -6 l 1
EndSplineSet
EndChar
StartChar: Oslash
Encoding: 216 216 153
Width: 752
VWidth: 1467
Flags: W
HStem: -15 62<322.904 500.8> 649 64<394.789 565.25>
VStem: 132 89<116.164 163.469 153.477 173.461 173.461 183.409> 673 89<511.591 520.644 520.644 543.523 532.084 583.595>
Fore
522 713 m 0
 565 713 618 701 641 694 c 1
 666 729 l 1
 754 729 l 1
 707 662 l 1
 739 641 765 608 765 559 c 0
 765 549 764 539 762 528 c 2
 685 167 l 2
 656 30 466 -15 358 -15 c 0
 335 -15 299 -12 247 4 c 1
 218 -37 l 1
 128 -37 l 1
 184 41 l 1
 149 69 132 102 132 140 c 0
 132 148 133 158 135 167 c 2
 212 528 l 2
 240 661 422 713 522 713 c 0
512 649 m 0
 429 649 317 621 293 509 c 2
 225 186 l 2
 222 173 221 161 221 150 c 0
 221 134 224 120 230 109 c 1
 603 638 l 1
 576 645 546 649 512 649 c 0
384 47 m 0
 476 47 581 75 605 186 c 2
 673 509 l 2
 676 521 677 532 677 543 c 0
 677 564 672 582 661 597 c 1
 287 62 l 1
 321 48 364 47 384 47 c 0
EndSplineSet
EndChar
StartChar: Thorn
Encoding: 222 222 159
Width: 701
VWidth: 1467
Flags: W
HStem: 94 59<314.697 473.354> 553 60<373.596 537.318> 681 20G<244.741 327>
VStem: 611 86<304.485 481.167>
Fore
697 415 m 0
 697 220 531 94 390 94 c 0
 272 94 241 133 211 157 c 1
 179 6 l 1
 101 6 l 1
 249 701 l 1
 327 701 l 1
 294 546 l 1
 335 592 432 613 476 613 c 0
 614 613 697 541 697 415 c 0
380 153 m 0
 549 153 611 321 611 404 c 0
 611 510 523 553 458 553 c 0
 406 553 319 514 276 459 c 1
 227 229 l 1
 286 156 348 153 380 153 c 0
EndSplineSet
EndChar
StartChar: uni00DF
Encoding: 223 223 160
Width: 793
VWidth: 1467
Flags: W
HStem: -125 59<-11 87.6264> -3 68<312 547.699> 376 92<435 472 472 489> 643 66<361.482 634.062>
VStem: 649 92<166.811 313.784 528.279 627.205>
Fore
509 472 m 2
 568 472 650 517 650 585 c 0
 650 631 606 643 565 643 c 2
 440 643 l 2
 360 643 330 607 312 524 c 2
 213 58 l 2
 194 -35 175 -125 -2 -125 c 2
 -24 -125 l 1
 -11 -66 l 1
 11 -66 l 2
 86 -66 107 -35 115 5 c 2
 226 528 l 2
 249 609 296 709 418 709 c 2
 575 709 l 2
 655 709 737 686 737 601 c 0
 737 459 582 432 551 424 c 1
 613 410 l 2
 683 394 741 347 741 259 c 0
 741 154 673 -3 411 -3 c 2
 297 -3 l 1
 312 65 l 1
 437 65 l 2
 623 65 649 200 649 249 c 0
 649 349 539 371 489 376 c 2
 416 376 l 1
 435 468 l 1
 509 472 l 2
EndSplineSet
EndChar
StartChar: ae
Encoding: 230 230 167
Width: 999
VWidth: 1467
Flags: W
HStem: -16 56<182.652 380.95 602.679 779.832> 220 54<579 903.838> 464 51<263.785 475.759 697.867 873.494>
VStem: 88 73<62.0853 168.362> 933 69<319.443 410.22>
Fore
550 138 m 1
 555 68 624 40 708 40 c 0
 796 40 860 72 896 126 c 1
 943 95 l 1
 866 -12 716 -14 691 -14 c 0
 565 -14 499 44 493 75 c 1
 493 75 410 -16 276 -16 c 0
 173 -16 88 29 88 105 c 0
 88 139 102 242 290 275 c 0
 488 309 518 335 518 375 c 0
 518 416 482 464 384 464 c 0
 327 464 250 445 182 415 c 1
 218 477 l 1
 270 498 329 515 393 515 c 0
 466 515 557 494 579 434 c 1
 628 480 699 510 787 510 c 0
 892 510 1002 466 1002 367 c 0
 1002 357 1000 346 998 335 c 0
 979 245 931 220 793 220 c 2
 568 220 l 1
 550 138 l 1
765 274 m 2
 856 274 933 278 933 351 c 0
 933 394 899 460 794 460 c 0
 745 460 640 443 597 358 c 1
 579 274 l 1
 765 274 l 2
320 228 m 2
 239 214 161 189 161 107 c 0
 161 66 192 40 280 40 c 0
 396 40 459 116 470 129 c 1
 502 276 l 1
 460 255 420 244 370 236 c 2
 320 228 l 2
EndSplineSet
EndChar
StartChar: eth
Encoding: 240 240 177
Width: 729
VWidth: 1467
Flags: W
HStem: 4 65<265.82 484.714> 370 66<301.704 522.314>
VStem: 122 70<131.778 273.772>
Fore
122 184 m 0
 122 304 222 436 417 436 c 0
 469 436 529 422 603 371 c 1
 598 389 582 441 534 544 c 1
 383 483 l 1
 362 538 l 1
 503 594 l 1
 478 645 461 673 427 719 c 1
 510 719 l 1
 541 665 550 658 573 616 c 1
 706 672 l 1
 722 619 l 1
 593 568 l 1
 617 531 680 415 683 301 c 0
 674 151 580 4 350 4 c 0
 221 4 122 67 122 184 c 0
410 370 m 0
 244 370 192 261 192 200 c 0
 192 142 230 69 382 69 c 0
 532 69 588 160 605 241 c 0
 609 260 608 256 610 289 c 1
 563 349 481 370 410 370 c 0
EndSplineSet
EndChar
StartChar: divide
Encoding: 247 247 184
Width: 652
VWidth: 1467
Flags: W
HStem: 246 74<116 646> 384 157<377.113 432.231>
VStem: 277 121<64.0843 149.639> 344 120<418.163 505.984>
Fore
464 484 m 0xd0
 464 436 428 384 387 384 c 0
 359 384 344 407 344 439 c 0
 344 493 384 541 420 541 c 0
 448 541 464 515 464 484 c 0xd0
277 83 m 0xe0
 277 138 318 186 354 186 c 0
 382 186 398 160 398 128 c 0
 398 80 359 29 320 29 c 0
 293 29 277 52 277 83 c 0xe0
662 320 m 1
 646 246 l 1
 100 246 l 1
 116 320 l 1
 662 320 l 1
EndSplineSet
EndChar
StartChar: oslash
Encoding: 248 248 185
Width: 625
VWidth: 1467
Flags: W
HStem: -15 49<269.127 400.784> 456 52<311.328 444.533>
VStem: 99 78<85.6895 168.668 154.5 182.837 182.837 185.574> 533 79<307.561 309.567 309.567 338.009 323.788 403.447>
Fore
556 471 m 1
 604 436 616 396 616 361 c 0
 616 348 614 335 612 324 c 2
 579 169 l 2
 552 43 413 -15 303 -15 c 0
 276 -15 250 -11 225 -4 c 1
 202 -37 l 1
 120 -37 l 1
 162 23 l 1
 123 51 99 93 99 140 c 0
 99 150 100 159 102 169 c 2
 136 330 l 2
 159 437 281 508 413 508 c 0
 442 508 469 504 495 497 c 1
 518 530 l 1
 599 530 l 1
 556 471 l 1
401 456 m 0
 318 456 224 401 201 292 c 2
 181 198 l 2
 178 184 177 171 177 159 c 0
 177 126 187 100 202 81 c 1
 459 446 l 1
 441 453 422 456 401 456 c 0
312 34 m 0
 402 34 492 99 513 198 c 2
 533 291 l 2
 536 304 537 316 537 328 c 0
 537 361 527 388 512 408 c 1
 257 43 l 1
 274 37 292 34 312 34 c 0
EndSplineSet
EndChar
StartChar: thorn
Encoding: 254 254 191
Width: 711
VWidth: 1467
Flags: W
HStem: -212 21G<55 137.231> -15 60<292.686 451.173> 444 61<350.568 514.646> 684 20G<245.742 328>
VStem: 588 86<196.136 373.21>
Fore
674 307 m 0
 674 126 527 -15 359 -15 c 0
 262 -15 226 18 188 48 c 1
 133 -212 l 1
 55 -212 l 1
 250 704 l 1
 328 704 l 1
 271 437 l 1
 311 482 401 505 455 505 c 0
 588 505 674 434 674 307 c 0
358 45 m 0
 522 45 588 206 588 294 c 0
 588 396 507 444 437 444 c 0
 385 444 301 409 253 351 c 1
 204 120 l 1
 263 47 328 45 358 45 c 0
EndSplineSet
EndChar
StartChar: Lslash
Encoding: 321 321 193
Width: 595
VWidth: 1467
Flags: W
HStem: 0 79<192 533> 690 20G<241.736 326>
Fore
95 0 m 1
 158 295 l 1
 138 284 120 273 101 260 c 2
 48 226 l 1
 65 308 l 1
 175 377 l 1
 246 710 l 1
 326 710 l 1
 263 412 l 1
 350 464 l 2
 379 483 408 500 437 516 c 1
 419 433 l 1
 245 330 l 1
 192 79 l 1
 550 79 l 1
 533 0 l 1
 95 0 l 1
EndSplineSet
EndChar
StartChar: lslash
Encoding: 322 322 194
Width: 269
VWidth: 1467
Flags: W
HStem: 0 21G<88 171.239>
VStem: 70 282<266 516 748.583 1038.95>
Fore
245 368 m 1
 167 0 l 1
 88 0 l 1
 158 329 l 1
 70 266 l 1
 88 351 l 1
 175 411 l 1
 249 756 l 1
 328 756 l 1
 264 456 l 1
 352 516 l 1
 334 431 l 1
 245 368 l 1
EndSplineSet
EndChar
StartChar: OE
Encoding: 338 338 195
Width: 1065
VWidth: 1467
Flags: W
HStem: 0 57<269.321 493.762 681.253 1002> 320 59<659 956> 644 57<396.78 613.428 817.471 938 952 999.6 999.6 1094.61 1094.61 1136>
VStem: 141 69<107.57 188.081 179.046 197.117 197.117 204.384> 551 72<123.362 222.289>
Fore
631 247 m 2
 626 222 623 201 623 182 c 0
 623 79 698 57 813 57 c 2
 1011 57 l 1
 1002 0 l 1
 805 0 l 2
 649 2 608 39 584 69 c 1
 521 10 421 -6 357 -6 c 0
 181 -6 141 96 141 169 c 0
 141 185 142 198 145 210 c 2
 208 508 l 2
 223 579 320 706 509 706 c 0
 573 706 666 690 703 631 c 1
 740 661 793 694 952 701 c 0
 971 701 991 703 1049 703 c 0
 1108 703 1128 701 1148 701 c 1
 1136 644 l 1
 938 644 l 2
 816 644 710 621 675 454 c 2
 659 379 l 1
 969 379 l 1
 956 320 l 1
 646 320 l 1
 631 247 l 2
212 188 m 2
 211 183 210 177 210 170 c 0
 210 124 244 53 379 53 c 0
 448 53 519 73 561 116 c 1
 554 134 551 155 551 178 c 0
 551 202 554 228 561 257 c 2
 601 445 l 2
 613 502 632 548 660 584 c 1
 632 632 563 647 508 647 c 0
 387 647 295 581 281 511 c 2
 212 188 l 2
EndSplineSet
EndChar
StartChar: oe
Encoding: 339 339 196
Width: 1022
VWidth: 1467
Flags: W
HStem: -8 51<272.329 430.224 653.825 819.138> 219 55<620 933.504> 458 51<353.389 540.978 737.368 900.857>
VStem: 128 80<96.6129 141.5 130 153 153 157.587> 523 72<122 165.672> 951 65<310.545 410.495>
Fore
1013 330 m 0
 993 235 933 219 767 219 c 2
 609 219 l 1
 597 166 l 2
 596 159 595 152 595 146 c 0
 595 70 691 44 753 44 c 0
 793 44 876 53 923 128 c 1
 960 95 l 1
 910 25 812 -8 716 -8 c 0
 649 -8 565 14 543 59 c 1
 478 6 387 -8 329 -8 c 0
 201 -8 128 50 128 119 c 0
 128 126 128 134 130 141 c 2
 176 359 l 2
 195 447 314 509 440 509 c 0
 498 509 581 495 624 442 c 1
 687 494 769 511 829 511 c 0
 962 511 1016 437 1016 363 c 0
 1016 352 1015 341 1013 330 c 0
854 274 m 2
 915 274 951 285 951 348 c 0
 951 416 890 457 827 457 c 0
 745 457 647 399 633 335 c 2
 620 274 l 1
 854 274 l 2
579 392 m 1
 562 437 511 458 451 458 c 0
 358 458 260 396 248 340 c 2
 210 160 l 2
 209 155 208 151 208 146 c 0
 208 88 287 43 364 43 c 0
 394 43 475 50 523 122 c 1
 523 130 l 2
 523 147 526 166 530 186 c 2
 566 359 l 2
 569 372 573 383 579 392 c 1
EndSplineSet
EndChar
StartChar: florin
Encoding: 402 402 202
Width: 410
VWidth: 1467
Flags: W
HStem: 359 53<109 192 288 381> 640 55<392.332 495>
Fore
69 -94 m 1
 66 -87 26 -80 14 -65 c 1
 44 -45 57 -32 73 13 c 2
 192 359 l 1
 97 359 l 1
 109 412 l 1
 208 412 l 1
 235 489 l 2
 288 649 346 695 491 695 c 2
 516 695 l 1
 495 640 l 1
 469 640 l 2
 396 640 357 609 316 494 c 2
 288 412 l 1
 392 412 l 1
 381 364 l 1
 271 364 l 1
 138 -32 l 2
 132 -50 102 -84 69 -94 c 1
EndSplineSet
EndChar
StartChar: circumflex
Encoding: 710 710 203
Width: 478
VWidth: 1467
Flags: W
HStem: 697 197<204 426 426 426>
VStem: 204 364<697 697 697 697>
Fore
204 697 m 1
 279 742 395 832 426 894 c 1
 437 826 508 744 568 697 c 1
 484 697 l 1
 433 756 414 792 409 804 c 1
 366 758 342 737 293 697 c 1
 204 697 l 1
EndSplineSet
EndChar
StartChar: caron
Encoding: 711 711 204
Width: 507
VWidth: 1467
Flags: W
HStem: 676 197<395 535 535 535>
VStem: 253 364<873 873 873 873>
Fore
411 753 m 1
 452 806 481 832 535 873 c 1
 617 873 l 1
 531 821 424 736 395 676 c 1
 388 723 331 810 253 873 c 1
 333 873 l 1
 367 833 393 804 411 753 c 1
EndSplineSet
EndChar
StartChar: breve
Encoding: 728 728 205
Width: 440
VWidth: 1467
Flags: W
HStem: 612 45<295.935 427.776>
VStem: 192 76<684.644 761.244 760.477 762.012 762.012 775> 494 76<706.779 775>
Fore
357 657 m 256
 424 657 480 709 494 775 c 1
 570 775 l 1
 545 660 422 612 347 612 c 0
 249 612 192 661 192 737 c 0
 192 749 193 762 196 775 c 1
 271 775 l 1
 269 765 268 755 268 746 c 0
 268 695 300 657 357 657 c 256
EndSplineSet
EndChar
StartChar: dotaccent
Encoding: 729 729 206
Width: 231
VWidth: 1467
Flags: W
HStem: 606 133<226.37 285.729>
VStem: 201 110<631.607 714.034>
Fore
201 653 m 0
 201 693 229 739 271 739 c 0
 298 739 311 721 311 694 c 0
 311 649 280 606 243 606 c 0
 216 606 201 626 201 653 c 0
EndSplineSet
EndChar
StartChar: ring
Encoding: 730 730 207
Width: 404
VWidth: 1467
Flags: W
HStem: 577 39<298.983 373.756> 767 43<323.301 399.73>
VStem: 232 60<621.64 735.067> 407 60<651.472 760.445>
Fore
467 716 m 0
 467 637 386 577 325 577 c 0
 265 577 232 620 232 670 c 0
 232 744 301 810 374 810 c 0
 426 810 467 770 467 716 c 0
333 616 m 0
 371 616 407 672 407 715 c 0
 407 743 392 767 365 767 c 0
 334 767 292 727 292 670 c 0
 292 641 305 616 333 616 c 0
EndSplineSet
EndChar
StartChar: tilde
Encoding: 732 732 209
Width: 368
VWidth: 1467
Flags: W
HStem: 596 101<307.578 311 149 478 427 427> 596 57<336.266 407.1> 638 58<227.894 311.661>
Fore
385 653 m 0x40
 392 653 413 656 427 697 c 1
 478 697 l 1
 466 642 424 596 374 596 c 0x80
 335 596 282 638 252 638 c 0
 245 638 218 633 205 594 c 1
 149 594 l 1
 160 646 215 696 263 696 c 0x20
 311 696 369 653 385 653 c 0x40
EndSplineSet
EndChar
StartChar: uni0E01
Encoding: 3585 3585 212
Width: 669
VWidth: 1467
Flags: W
HStem: -1 21G<100 180.27 492 567.246> 523 58<294.469 322.832 322.832 368 345.416 521.515>
VStem: 568 75<369.855 471.853>
Fore
411 526 m 0
 377 526 359 523 325 523 c 0
 314 523 304 523 294 524 c 1
 304 512 337 468 342 462 c 1
 333 417 l 1
 321 409 264 387 236 280 c 2
 176 -1 l 1
 100 -1 l 1
 151 239 l 2
 170 328 214 405 287 446 c 1
 209 538 l 1
 208 538 l 1
 215 578 l 1
 323 581 335 581 350 581 c 0
 496 581 599 580 635 476 c 0
 641 459 643 440 643 417 c 0
 643 390 640 360 632 324 c 2
 563 -1 l 1
 492 -1 l 1
 556 326 l 2
 563 359 568 389 568 415 c 0
 568 483 534 526 411 526 c 0
EndSplineSet
EndChar
StartChar: uni0E02
Encoding: 3586 3586 213
Width: 528
VWidth: 1467
Flags: W
HStem: -11 53<201.423 317.272> 360 49<181.099 230.933> 541 47<234.2 286.835>
VStem: 99 81<63.7872 146.168> 147 51<413.69 501.615> 288 55<446.221 534.62>
Fore
147 426 m 0xec
 147 512 229 588 280 588 c 0
 308 588 343 568 343 501 c 0
 343 340 215 305 184 158 c 0
 181 145 180 133 180 123 c 0
 180 60 226 42 255 42 c 0
 289 42 360 68 381 167 c 2
 469 581 l 1
 546 581 l 1
 454 145 l 2
 432 41 329 -11 240 -11 c 0
 163 -11 99 29 99 106 c 0xf4
 99 116 100 127 103 139 c 0
 129 265 190 304 246 376 c 1
 231 366 209 360 196 360 c 0
 164 360 147 390 147 426 c 0xec
269 541 m 0
 246 541 198 491 198 436 c 0xec
 198 422 202 409 215 409 c 0
 241 409 288 457 288 507 c 0
 288 524 283 541 269 541 c 0
EndSplineSet
EndChar
StartChar: uni0E03
Encoding: 3587 3587 214
Width: 586
VWidth: 1467
Flags: W
HStem: -14 53<241.939 368.452> 354 46<185.634 246.012> 538 52<225.794 286.504>
VStem: 129 87<65.2497 172.815> 142 43<405.274 491.836> 288 40<446.794 507.678> 357 64<412.242 523.86>
Fore
142 417 m 0xee
 142 502 219 590 279 590 c 0
 319 590 351 532 355 521 c 1
 378 585 l 1
 406 585 l 1
 412 561 421 530 421 491 c 0
 421 311 251 307 220 158 c 0
 218 146 216 136 216 126 c 0
 216 71 251 39 300 39 c 0
 354 39 425 81 443 167 c 2
 532 582 l 1
 607 582 l 1
 514 145 l 2
 494 50 392 -14 284 -14 c 0
 202 -14 129 26 129 107 c 0xf6
 129 144 143 216 232 292 c 2
 298 348 l 2
 357 395 357 432 357 442 c 0
 357 461 350 480 328 508 c 1
 328 428 252 354 201 354 c 0
 182 354 142 362 142 417 c 0xee
210 400 m 0
 238 400 288 460 288 504 c 0
 288 524 278 538 262 538 c 0
 230 538 185 477 185 425 c 0xee
 185 411 191 400 210 400 c 0
EndSplineSet
EndChar
StartChar: uni0E04
Encoding: 3588 3588 215
Width: 715
VWidth: 1467
Flags: W
HStem: -1 21G<100 180.286 533 614.225> 213 31<351.921 466.758> 337 33<363.604 477.873> 527 63<344.996 587.903>
VStem: 298 48<251.974 284.744> 484 48<274.025 328.297> 619 81<408.433 416.141 416.141 437.539 426.84 493.795>
Fore
532 304 m 0
 532 259 476 213 399 213 c 256
 332 213 298 246 298 276 c 0
 298 279 298 282 299 285 c 1
 234 242 221 211 206 139 c 2
 176 -1 l 1
 100 -1 l 1
 191 430 l 2
 221 569 390 590 480 590 c 0
 585 590 704 566 704 461 c 0
 704 450 703 438 700 425 c 2
 610 -1 l 1
 533 -1 l 1
 619 403 l 2
 622 416 623 428 623 439 c 0
 623 503 575 527 468 527 c 0
 381 527 283 505 265 417 c 2
 240 299 l 1
 300 352 378 370 433 370 c 0
 487 370 532 344 532 304 c 0
406 244 m 0
 467 244 484 286 484 297 c 0
 484 315 466 337 424 337 c 0
 367 337 346 297 346 284 c 0
 346 268 358 244 406 244 c 0
EndSplineSet
EndChar
StartChar: uni0E05
Encoding: 3589 3589 216
Width: 715
VWidth: 1467
Flags: W
HStem: -1 21G<100 179.225 533 616.241> 211 31<358.614 473.313> 336 32<372.401 485.446> 564 20G<359.5 404 546.682 604.5>
VStem: 306 47<249.51 292.535> 491 49<260.539 327.818> 615 85<397.494 401.568 401.568 424.977 413.273 501.603>
Fore
540 302 m 0
 540 260 488 211 404 211 c 0
 349 211 306 237 306 280 c 0
 306 284 306 288 307 293 c 1
 232 249 218 202 205 141 c 2
 175 -1 l 1
 100 -1 l 1
 189 420 l 2
 202 482 329 577 390 584 c 1
 418 549 447 522 464 496 c 1
 571 584 l 1
 638 574 702 504 702 436 c 0
 702 428 702 421 700 414 c 2
 612 -1 l 1
 533 -1 l 1
 615 387 l 2
 617 398 619 412 619 426 c 0
 619 465 608 508 575 516 c 1
 450 430 l 1
 360 515 l 1
 288 482 267 433 259 395 c 2
 239 301 l 1
 295 353 377 368 439 368 c 0
 495 368 540 342 540 302 c 0
413 242 m 0
 465 242 491 276 491 298 c 0
 491 321 465 336 430 336 c 0
 374 336 353 295 353 281 c 0
 353 265 365 242 413 242 c 0
EndSplineSet
EndChar
StartChar: uni0E06
Encoding: 3590 3590 217
Width: 724
VWidth: 1467
Flags: W
HStem: -4 55<170.869 230.312> -1 61<375.631 530.1> 220 53<197.847 256.789> 360 48<199.037 255.31> 549 43<237.959 288.675>
VStem: 111 54<66.5387 184.313> 154 39<408.526 494.252> 266 66<135.376 214.482> 368 74<394.678 500.599>
Fore
442 501 m 0xbb80
 442 327 332 366 332 163 c 0
 332 152 332 143 333 135 c 1
 367 72 402 60 444 60 c 0
 538 60 571 103 589 186 c 2
 674 588 l 1
 747 588 l 1
 660 180 l 2
 637 71 540 -1 434 -1 c 0x7b80
 386 -1 339 9 292 87 c 1
 274 43 231 -4 185 -4 c 0
 133 -4 111 38 111 90 c 0xbd80
 111 173 164 273 244 273 c 0
 257 273 267 270 275 264 c 1
 298 345 368 387 368 441 c 0
 368 464 356 485 332 506 c 1
 329 495 l 2
 315 429 255 360 203 360 c 0
 168 360 154 392 154 426 c 0
 154 500 225 592 283 592 c 0
 317 592 368 544 374 524 c 1
 398 587 l 1
 440 587 l 1
 441 528 l 2
 442 518 442 509 442 501 c 0xbb80
219 408 m 0
 255 408 295 480 295 521 c 0
 295 544 282 549 271 549 c 0
 240 549 193 468 193 433 c 0
 193 413 208 408 219 408 c 0
196 51 m 256xbd80
 220 51 266 105 266 154 c 0
 266 183 255 220 229 220 c 256
 202 220 165 162 165 108 c 0
 165 82 173 51 196 51 c 256xbd80
EndSplineSet
EndChar
StartChar: uni0E07
Encoding: 3591 3591 218
Width: 522
VWidth: 1467
Flags: W
HStem: -12 21G<227.037 287> 362 48<360.811 399.011> 544 47<397.967 475.569>
VStem: 317 43<415.448 502.473> 449 76<472.411 538.063>
Fore
317 426 m 0
 317 495 379 591 455 591 c 0
 503 591 525 556 525 518 c 0
 525 511 524 504 523 497 c 2
 451 160 l 2
 434 79 342 4 232 -12 c 1
 131 395 l 1
 197 424 l 1
 290 59 l 1
 336 81 361 111 374 176 c 2
 419 384 l 1
 397 366 374 362 364 362 c 0
 335 362 317 389 317 426 c 0
431 544 m 0
 413 544 360 496 360 438 c 0
 360 423 365 410 379 410 c 0
 401 410 449 457 449 511 c 0
 449 530 443 544 431 544 c 0
EndSplineSet
EndChar
StartChar: uni0E08
Encoding: 3592 3592 219
Width: 625
VWidth: 1467
Flags: W
HStem: -1 21G<311 362> 159 50<280.791 327.903> 341 47<285.259 336.571> 525 60<259.006 491.586>
VStem: 229 42<216.518 311.193> 342 4<153.5 174.5> 347 53<166.125 334.421> 534 82<422.249 488.895>
Fore
318 388 m 0
 351 388 400 370 400 257 c 0
 400 205 391 137 373 50 c 1
 399 55 460 69 476 145 c 2
 530 402 l 2
 532 412 534 423 534 435 c 0
 534 477 510 525 378 525 c 0
 274 525 227 488 199 468 c 1
 161 508 l 1
 184 538 259 585 391 585 c 0
 554 585 616 515 616 454 c 0
 616 448 615 442 614 436 c 2
 552 145 l 2
 547 120 513 52 445 28 c 0
 411 13 366 2 358 -1 c 1
 311 -1 l 1
 343 151 l 1
 342 151 342 151 342 150 c 1
 346 178 l 1
 332 167 318 159 304 159 c 0
 260 159 229 208 229 264 c 0
 229 320 263 388 318 388 c 0
313 341 m 0
 286 341 271 290 271 269 c 0
 271 238 290 209 308 209 c 0
 339 209 347 266 347 280 c 0
 347 317 323 341 313 341 c 0
EndSplineSet
EndChar
StartChar: uni0E09
Encoding: 3593 3593 220
Width: 707
VWidth: 1467
Flags: W
HStem: -13 51<556.882 614.644> -11 62<292.277 420.464> 142 46<172.994 202.097> 183 53<602.45 634.626> 322 47<206.825 260.24> 528 62<251.815 510.786>
VStem: 124 48<192.955 283.608> 208 66<70.0338 149.431> 261 47<257.788 315.846> 511 43<48.812 129.611> 560 84<425.641 452.454 437.922 488.783> 639 46<63.1835 181.12>
Fore
124 207 m 0x6f50
 124 294 205 369 258 369 c 0
 282 369 308 347 308 310 c 0x6ec0
 308 304 307 298 306 291 c 2
 279 167 l 2
 276 153 274 139 274 127 c 0
 274 83 295 51 359 51 c 0
 391 51 486 75 517 216 c 2
 557 403 l 2
 559 413 560 423 560 433 c 0
 560 491 515 528 386 528 c 0
 254 528 203 481 193 474 c 1
 153 514 l 1
 187 547 253 590 408 590 c 0
 602 590 644 516 644 463 c 0x6f60
 644 455 643 448 642 442 c 2
 596 227 l 1
 613 236 618 236 624 236 c 0
 671 236 685 196 685 154 c 0
 685 53 622 -13 567 -13 c 0x9e50
 521 -13 511 33 511 70 c 0
 511 84 513 96 514 104 c 1
 484 44 417 -11 337 -11 c 0
 215 -11 208 96 208 138 c 2
 208 150 l 1
 203 147 189 142 177 142 c 0
 140 142 124 172 124 207 c 0x6f50
240 322 m 0
 218 322 172 271 172 217 c 0
 172 202 176 188 192 188 c 0
 213 188 261 232 261 289 c 0
 261 306 257 322 240 322 c 0
608 183 m 0x9e50
 586 183 554 129 554 84 c 0
 554 60 561 38 579 38 c 0
 611 38 639 85 639 135 c 0
 639 164 628 183 608 183 c 0x9e50
EndSplineSet
EndChar
StartChar: uni0E0A
Encoding: 3594 3594 221
Width: 529
VWidth: 1467
Flags: W
HStem: -11 53<202.464 315.92> 357 48<197.529 232.422> 544 42<235.612 292.625>
VStem: 101 82<61.7636 147.798> 153 44<411.499 498.401> 294 48<443.844 537.032> 418 74<303.815 390.145>
Fore
418 338 m 0xf6
 418 379 394 394 355 443 c 1
 418 456 503 552 503 612 c 1
 570 612 l 1
 567 599 l 2
 555 541 506 451 416 437 c 1
 474 398 492 369 492 331 c 0
 492 316 488 298 484 278 c 2
 456 145 l 2
 434 43 334 -11 243 -11 c 0
 169 -11 101 29 101 107 c 0xf6
 101 134 110 220 200 322 c 2
 243 371 l 1
 224 358 209 357 199 357 c 0
 169 357 153 385 153 421 c 0xee
 153 499 227 586 282 586 c 0
 329 586 342 537 342 492 c 0
 342 335 218 303 187 158 c 0
 184 144 183 132 183 121 c 0
 183 60 225 42 254 42 c 0
 310 42 370 99 384 167 c 2
 413 299 l 2
 416 312 418 325 418 338 c 0xf6
273 544 m 256
 242 544 197 484 197 434 c 0xee
 197 418 203 405 219 405 c 0
 248 405 294 452 294 509 c 0
 294 530 287 544 273 544 c 256
EndSplineSet
EndChar
StartChar: uni0E0B
Encoding: 3595 3595 222
Width: 603
VWidth: 1467
Flags: W
HStem: -5 52<256.199 375.228> 365 42<196.926 257.342> 550 44<239.546 293.704>
VStem: 142 86<75.7044 191.79> 156 40<407.465 499.611> 295 116<427.166 524.725> 352 63<411.84 511.652> 486 78<339.048 405.653>
Fore
142 120 m 0xf3
 142 307 352 355 352 473 c 0xf3
 352 493 342 502 333 512 c 1
 318 390 230 365 207 365 c 0
 171 365 156 393 156 428 c 0
 156 513 235 594 288 594 c 0
 327 594 357 537 361 525 c 1
 383 590 l 1
 411 590 l 1xed
 414 530 l 2
 415 521 415 513 415 505 c 0
 415 342 264 326 233 180 c 0
 230 165 228 151 228 139 c 0
 228 65 284 47 312 47 c 0
 351 47 428 78 452 191 c 2
 480 324 l 2
 484 345 486 361 486 375 c 0
 486 423 461 431 429 467 c 1
 488 467 574 539 589 610 c 0
 590 614 589 618 590 622 c 1
 672 622 l 1
 655 569 627 478 507 461 c 1
 535 432 l 2
 559 408 564 381 564 361 c 0
 564 352 563 344 562 339 c 2
 523 153 l 2
 500 46 389 -5 294 -5 c 0
 246 -5 142 12 142 120 c 0xf3
222 407 m 0
 245 407 295 458 295 515 c 0
 295 535 289 550 275 550 c 0
 244 550 196 481 196 435 c 0xed
 196 419 203 407 222 407 c 0
EndSplineSet
EndChar
StartChar: uni0E0C
Encoding: 3596 3596 223
Width: 974
VWidth: 1467
Flags: W
HStem: -3 58<440.221 510.205 645.242 765.742> -3 48<159.583 212.982> 212 57<466.156 531.075> 525 55<295 321.898 321.898 369.692 345.795 519.842>
VStem: 114 45<50.8757 110.915> 247 45<81.8608 168.744> 387 47<59.3254 175.801> 566 73<371.583 471.875>
Fore
292 155 m 0xbf
 292 68 215 -3 163 -3 c 0x7f
 128 -3 114 26 114 58 c 0
 114 68 115 77 117 86 c 0
 132 139 141 199 154 255 c 0
 168 321 210 403 287 447 c 1
 208 538 l 1
 217 580 l 1
 322 581 335 581 348 581 c 0
 496 581 593 580 631 476 c 0
 637 460 639 440 639 418 c 0
 639 392 636 361 628 326 c 2
 584 118 l 1
 583 119 l 1
 583 116 l 1
 620 60 653 56 674 56 c 0
 786 56 817 119 831 182 c 2
 915 581 l 1
 993 581 l 1
 907 175 l 2
 886 76 784 -1 679 -1 c 0
 657 -1 601 -1 552 58 c 1
 535 32 497 -3 461 -3 c 0
 433 -3 387 19 387 89 c 0
 387 180 450 269 519 269 c 0
 526 269 532 267 539 264 c 1
 558 351 l 2
 562 370 566 391 566 413 c 0
 566 471 539 528 418 528 c 0
 399 528 369 525 320 525 c 2
 295 525 l 1
 298 516 341 466 340 462 c 2
 331 417 l 1
 317 407 312 408 302 399 c 0
 268 368 246 329 236 283 c 2
 223 219 l 1
 229 221 235 222 241 222 c 0
 274 222 292 195 292 155 c 0xbf
179 45 m 0
 197 45 247 89 247 142 c 0
 247 161 241 176 228 176 c 0
 207 176 159 124 159 74 c 0
 159 58 164 45 179 45 c 0
506 212 m 0
 470 212 434 158 434 107 c 0
 434 78 446 55 474 55 c 0xbf
 505 55 540 106 540 160 c 0
 540 185 533 212 506 212 c 0
EndSplineSet
EndChar
StartChar: uni0E0D
Encoding: 3597 3597 224
Width: 955
VWidth: 1467
Flags: W
HStem: -209 37<518.326 632.959> -104 34<509.429 623.102> -6 51<168.893 226.478 575 720.357> 198 51<235.206 264.951> 526 55<299.367 328.515 328.515 333.807 333.807 519.185>
VStem: 118 50<51.5008 117.75> 267 49<100.368 189.059> 469 31<-164.343 -117.083> 569 76<367.993 469.542>
Fore
316 185 m 0
 316 119 258 -2 171 -2 c 0
 134 -2 118 32 118 69 c 0
 118 74 118 79 119 84 c 2
 153 243 l 2
 168 313 210 402 289 446 c 1
 211 538 l 1
 220 580 l 1
 345 581 331 581 359 581 c 0
 502 581 599 579 637 474 c 0
 642 458 645 439 645 416 c 0
 645 389 641 358 634 323 c 2
 575 45 l 1
 593 45 l 2
 695 45 785 58 821 227 c 2
 896 581 l 1
 974 581 l 1
 901 235 l 2
 852 6 703 -6 564 -6 c 2
 489 -6 l 1
 558 326 l 2
 565 359 569 387 569 411 c 0
 569 484 532 518 438 526 c 2
 368 526 l 2
 354 525 347 525 298 525 c 1
 299 519 344 465 343 461 c 2
 333 415 l 1
 333 415 261 388 238 279 c 2
 230 242 l 1
 235 245 253 249 260 249 c 0
 279 249 316 239 316 185 c 0
187 51 m 0
 218 51 267 107 267 160 c 0
 267 181 259 198 245 198 c 0
 229 198 168 152 168 82 c 0
 168 61 175 51 187 51 c 0
469 -149 m 0
 469 -98 535 -70 585 -70 c 0
 646 -70 676 -105 673 -134 c 1
 714 -108 751 -70 767 -51 c 1
 839 -51 l 1
 725 -185 620 -209 574 -209 c 0
 527 -209 469 -192 469 -149 c 0
563 -172 m 256
 595 -172 643 -156 643 -132 c 0
 643 -109 588 -104 578 -104 c 0
 545 -104 500 -119 500 -143 c 0
 500 -167 550 -172 563 -172 c 256
EndSplineSet
Substitution2: "Single Substitution lookup 22 subtable" uni0E0D.alt1
Substitution2: "Single Substitution lookup 22 subtable" uni0E0D.alt1
EndChar
StartChar: uni0E0E
Encoding: 3598 3598 225
Width: 676
VWidth: 1467
Flags: W
HStem: -285 34<154.177 272.298> -189 43<141.931 250.198> -7 53<139.108 193.391> 195 52<142.375 195.889> 521 57<304.868 360.792 360.792 515.726>
VStem: 79 46<57.9338 178.387> 90 49<-245.116 -195.122> 573 78<362.729 460.103>
Fore
79 111 m 0xfd
 79 178 118 247 179 247 c 0
 192 247 204 243 214 235 c 1
 265 475 l 1
 212 536 l 1
 211 536 l 1
 220 577 l 1
 325 578 l 2
 486 578 596 577 640 473 c 0
 647 455 651 433 651 408 c 0
 651 383 647 355 641 323 c 2
 508 -301 l 1
 435 -301 l 1
 435 -299 l 1
 433 -299 l 1
 426 -278 406 -255 342 -224 c 1
 307 -266 261 -285 190 -285 c 0
 132 -285 90 -260 90 -227 c 0xfb
 90 -194 138 -146 229 -146 c 0
 249 -146 272 -148 327 -166 c 1
 345 -137 343 -122 351 -103 c 1
 409 -103 l 1
 405 -123 384 -169 372 -182 c 1
 403 -195 429 -212 450 -232 c 1
 563 326 l 2
 569 356 573 381 573 403 c 0
 573 500 488 524 416 524 c 0
 404 524 371 522 303 521 c 1
 304 518 332 482 331 477 c 2
 253 109 l 1
 253 109 239 -7 156 -7 c 0
 110 -7 79 49 79 111 c 0xfd
172 195 m 0
 149 195 125 154 125 116 c 0xfd
 125 78 150 46 166 46 c 0
 187 46 209 86 209 122 c 0
 209 159 188 195 172 195 c 0
202 -189 m 0
 169 -189 139 -196 139 -223 c 0xfb
 139 -246 176 -251 198 -251 c 256
 235 -251 282 -226 298 -213 c 1
 268 -193 222 -189 202 -189 c 0
EndSplineSet
Substitution2: "Single Substitution lookup 22 subtable" uni0E0E.alt1
Substitution2: "Single Substitution lookup 22 subtable" uni0E0E.alt1
EndChar
StartChar: uni0E0F
Encoding: 3599 3599 226
Width: 669
VWidth: 1467
Flags: W
HStem: -280 34<52.6724 141.197> -180 30<60.4756 157.968> -2 52<132.021 180.59> 199 52<137.601 193.925> 527 57<297 355.838 355.838 513.423>
VStem: 7 44<-234.918 -200.38> 73 46<59.4194 181.97> 567 78<366.932 465.718>
Fore
73 114 m 0
 73 180 112 251 172 251 c 0
 185 251 198 247 208 239 c 1
 260 481 l 1
 206 541 l 1
 215 582 l 1
 322 584 l 2
 484 584 590 583 634 478 c 0
 641 460 645 438 645 412 c 0
 645 387 641 359 635 327 c 2
 502 -296 l 1
 429 -296 l 1
 429 -295 l 1
 427 -295 l 1
 360 -198 l 1
 261 -295 l 1
 253 -276 215 -232 215 -232 c 1
 179 -264 138 -280 94 -280 c 0
 39 -280 7 -253 7 -224 c 0
 7 -178 72 -150 120 -150 c 0
 156 -150 187 -167 203 -179 c 1
 221 -159 241 -130 252 -101 c 1
 305 -101 l 1
 295 -120 286 -141 248 -195 c 1
 261 -212 268 -213 275 -229 c 1
 375 -129 l 1
 442 -224 l 1
 557 330 l 2
 563 360 567 386 567 408 c 0
 567 457 545 530 412 530 c 0
 401 530 366 528 297 527 c 1
 314 506 327 486 327 483 c 1
 248 113 l 2
 247 108 247 103 246 99 c 0
 236 51 205 -2 154 -2 c 0
 106 -2 73 52 73 114 c 0
167 199 m 0
 144 199 119 159 119 121 c 0
 119 85 139 50 158 50 c 0
 167 50 204 60 204 124 c 0
 204 158 194 199 167 199 c 0
51 -218 m 0
 51 -226 58 -246 99 -246 c 0
 120 -246 164 -232 183 -204 c 1
 164 -185 118 -180 110 -180 c 0
 71 -180 51 -210 51 -218 c 0
EndSplineSet
Substitution2: "Single Substitution lookup 22 subtable" uni0E0F.alt1
Substitution2: "Single Substitution lookup 22 subtable" uni0E0F.alt1
EndChar
StartChar: uni0E10
Encoding: 3600 3600 227
Width: 648
VWidth: 1467
Flags: W
HStem: -285 36<29.9568 140.393> -185 30<37.2351 158.158 407.707 440> -67 35<390.437 463.358> 0 21G<270 383.5> 93 49<240.78 286.995> 274 46<244.961 296.307> 496 21G<625.5 647.212> 534 51<265.508 543.246>
VStem: -13 42<-245.831 -205.055> 177 63<463.452 509.504> 184 47<148.287 262.475> 307 50<150.585 268.726> 353 36<-136.593 -74.7045> 474 41<-136.337 -77.0693>
Fore
184 193 m 0xffa4
 184 258 229 320 278 320 c 0
 316 320 357 275 357 191 c 0
 357 162 355 133 347 95 c 2
 335 38 l 1
 486 85 504 138 512 174 c 2
 536 285 l 1
 536 287 537 289 537 291 c 0
 537 368 177 380 177 478 c 0
 177 511 216 585 412 585 c 0
 497 585 606 573 650 562 c 1
 646 496 l 1
 605 513 478 534 391 534 c 0
 292 534 240 508 240 484 c 0xffd4
 240 428 608 407 608 307 c 0
 608 304 608 301 607 298 c 258
 575 144 l 2
 562 86 437 0 330 0 c 2
 270 0 l 1
 275 49 281 50 291 101 c 1
 280 94 277 93 264 93 c 0
 223 93 184 135 184 193 c 0xffa4
273 274 m 0
 249 274 231 231 231 204 c 0xffb4
 231 174 246 142 269 142 c 0
 286 142 307 174 307 207 c 0
 307 239 291 274 273 274 c 0
353 -104 m 0xffcc
 353 -90 359 -32 427 -32 c 0
 484 -32 515 -77 515 -115 c 0
 515 -119 515 -122 514 -126 c 2
 477 -299 l 1
 408 -299 l 1
 332 -239 l 1
 240 -299 l 1
 238 -292 228 -267 194 -236 c 1
 155 -271 110 -285 72 -285 c 0
 27 -285 -13 -264 -13 -229 c 0
 -13 -183 45 -155 97 -155 c 0
 130 -155 158 -165 181 -185 c 1
 208 -162 227 -115 229 -106 c 1
 284 -106 l 1
 258 -156 238 -186 223 -202 c 1
 237 -215 256 -237 262 -248 c 1
 342 -192 l 1
 427 -249 l 1
 440 -186 l 1
 391 -186 353 -145 353 -104 c 0xffcc
29 -224 m 0
 29 -240 49 -249 74 -249 c 0
 107 -249 140 -234 160 -208 c 1
 149 -200 121 -185 92 -185 c 0
 43 -185 29 -216 29 -224 c 0
420 -67 m 0
 403 -67 389 -80 389 -97 c 0
 389 -121 413 -149 443 -149 c 0
 457 -149 474 -133 474 -116 c 0
 474 -98 457 -67 420 -67 c 0
EndSplineSet
Substitution2: "Single Substitution lookup 22 subtable" uni0E10.alt1
Substitution2: "Single Substitution lookup 22 subtable" uni0E10.alt1
EndChar
StartChar: uni0E11
Encoding: 3601 3601 228
Width: 856
VWidth: 1467
Flags: W
HStem: 0 21G<260 346.265 669 755.265> 356 46<193.925 243.375> 527 57<602.575 729.101> 538 47<230.93 278.829>
VStem: 149 41<402.566 489.564> 284 41<447.147 500> 346 83<415.781 529.962> 750 88<391.586 398.141 398.141 420.988 409.564 501.142>
Fore
149 417 m 0xef
 149 490 216 585 278 585 c 0xdf
 301 585 314 572 321 559 c 1
 353 532 362 509 364 503 c 1
 369 584 l 1
 410 584 l 1xef
 420 560 429 520 429 475 c 0
 429 455 427 434 423 412 c 2
 406 335 l 1
 514 567 631 585 674 585 c 0xdf
 758 585 842 541 842 446 c 0
 842 434 841 421 838 408 c 2
 751 0 l 1
 669 0 l 1
 750 383 l 2
 754 400 756 417 756 434 c 0
 756 485 734 527 661 527 c 0
 553 527 402 281 371 136 c 2
 342 0 l 1
 260 0 l 1
 337 361 l 2
 344 393 346 417 346 435 c 0
 346 468 338 481 328 493 c 1
 325 500 l 1
 325 456 263 356 200 356 c 0
 164 356 149 383 149 417 c 0xef
207 402 m 0
 238 402 284 464 284 511 c 0
 284 533 272 538 263 538 c 0
 234 538 190 467 190 426 c 0
 190 408 199 402 207 402 c 0
EndSplineSet
EndChar
StartChar: uni0E12
Encoding: 3602 3602 229
Width: 1024
VWidth: 1467
Flags: W
HStem: -13 47<528.142 590.057> -9 59<720.143 839.067> 0 56<188 274.728> 133 45<344.132 379.383> 319 45<382.681 436.774> 574 20<354.5 395 547.824 607.5 963.779 1044>
VStem: 294 49<184.866 274.297> 444 44<225.504 318.501> 480 44<36.2452 143.287> 618 82<407.598 410.993 410.993 435.5 423.246 513.433>
Fore
488 289 m 0x3f40
 488 211 382 33 204 0 c 1
 100 0 l 1x3f40
 191 430 l 2
 204 487 317 585 392 594 c 1
 398 586 405 578 412 570 c 2
 466 509 l 1
 573 594 l 1
 642 584 702 515 702 447 c 0
 702 439 702 432 700 424 c 2
 649 185 l 1
 664 148 l 2
 676 119 713 50 781 50 c 0
 839 50 864 90 880 164 c 2
 968 581 l 1
 1044 581 l 1
 957 170 l 2
 924 16 836 -9 781 -9 c 0x5f40
 720 -9 682 20 644 69 c 1
 620 16 576 -13 542 -13 c 0
 504 -13 480 24 480 72 c 0x9ec0
 480 143 531 203 579 217 c 1
 618 398 l 2
 621 410 622 424 622 438 c 0
 622 478 610 520 577 530 c 1
 452 442 l 1
 363 528 l 1
 315 506 276 469 262 405 c 2
 188 56 l 1
 264 56 315 88 361 134 c 1
 356 133 351 133 346 133 c 0
 313 133 294 161 294 199 c 0
 294 281 371 364 429 364 c 0
 468 364 488 327 488 289 c 0x3f40
417 319 m 0
 387 319 343 255 343 209 c 0
 343 193 349 178 368 178 c 0
 398 178 444 244 444 288 c 0
 444 313 429 319 417 319 c 0
586 171 m 0
 552 171 524 116 524 79 c 0
 524 53 535 34 556 34 c 0x9ec0
 587 34 614 83 614 126 c 0
 614 147 609 171 586 171 c 0
EndSplineSet
EndChar
StartChar: uni0E13
Encoding: 3603 3603 230
Width: 996
VWidth: 1467
Flags: W
HStem: -9 48<160.457 214.614 800.218 861.068> 173 50<225.137 243.71 731.853 781 822.799 833> 525 56<297 340.212 340.212 361.185 350.698 518.727>
VStem: 116 44<43.6842 105.226> 249 47<75.7079 171.275> 568 77<369.234 471.171> 741 57<41.6946 144.882> 885 51<60.852 166.354>
Fore
296 153 m 0
 296 64 210 -9 163 -9 c 0
 152 -9 116 -2 116 54 c 0
 116 61 117 69 118 78 c 2
 150 232 l 2
 169 322 218 408 287 447 c 1
 209 538 l 1
 218 581 l 1
 318 582 334 582 384 582 c 0
 507 582 601 577 637 476 c 0
 643 459 645 440 645 417 c 0
 645 390 642 359 634 323 c 2
 581 87 l 1
 633 166 713 211 833 223 c 1
 908 581 l 1
 987 581 l 1
 908 205 l 1
 925 190 936 167 936 136 c 0
 936 59 876 -12 816 -12 c 0
 773 -12 741 26 741 71 c 0
 741 101 761 149 781 173 c 1
 688 160 607 101 575 1 c 1
 493 0 l 1
 556 326 l 2
 563 359 568 388 568 413 c 0
 568 485 530 527 402 527 c 0
 369 527 361 525 320 525 c 2
 297 525 l 1
 300 516 343 466 342 462 c 2
 333 417 l 1
 319 407 314 408 304 399 c 0
 270 368 248 328 238 280 c 2
 225 216 l 1
 227 218 239 219 244 219 c 0
 281 219 296 188 296 153 c 0
178 39 m 0
 200 39 249 83 249 141 c 0
 249 166 238 172 232 172 c 0
 204 172 160 118 160 67 c 0
 160 52 164 39 178 39 c 0
859 175 m 256
 826 175 798 124 798 74 c 0
 798 54 803 33 824 33 c 0
 858 33 885 86 885 135 c 0
 885 154 880 175 859 175 c 256
EndSplineSet
EndChar
StartChar: uni0E14
Encoding: 3604 3604 231
Width: 717
VWidth: 1467
Flags: W
HStem: 0 54<191 228.042> 135 46<361.981 387.055> 322 48<395.329 458.804> 543 50<351.225 573.527>
VStem: 309 46<181.519 275.144> 460 46<227.472 314.525> 623 81<413.423 418 430 431.023 431.023 442.539 436.781 499.814>
Fore
506 302 m 0
 506 217 410 35 217 0 c 1
 100 0 l 1
 190 423 l 2
 204 491 270 593 487 593 c 0
 645 593 708 544 708 466 c 0
 708 455 707 443 704 430 c 2
 613 -1 l 1
 534 -1 l 1
 623 418 l 2
 625 427 626 436 626 444 c 0
 626 527 527 543 470 543 c 0
 295 543 275 445 269 417 c 2
 191 54 l 1
 204 54 303 56 388 139 c 1
 378 136 368 135 363 135 c 0
 325 135 309 164 309 199 c 0
 309 281 388 370 449 370 c 0
 485 370 506 342 506 302 c 0
432 322 m 0
 393 322 355 247 355 209 c 0
 355 185 373 181 382 181 c 0
 413 181 460 242 460 289 c 0
 460 306 454 322 432 322 c 0
EndSplineSet
EndChar
StartChar: uni0E15
Encoding: 3605 3605 232
Width: 720
VWidth: 1467
Flags: W
HStem: -1 54<189 224.548> 319 50<391.314 452.378> 562 20G<363.5 408.045 548.682 608>
VStem: 306 46<180.832 271.737> 453 49<228.138 318.427> 616 87<395.68 400.568 400.568 422.5 411.534 501.2>
Fore
502 300 m 0
 502 233 407 33 211 -1 c 1
 103 -1 l 1
 192 418 l 2
 206 486 336 577 391 582 c 1
 466 494 l 1
 573 582 l 1
 643 572 705 501 705 433 c 0
 705 426 704 419 703 412 c 2
 614 -3 l 1
 533 -3 l 1
 616 386 l 2
 618 397 620 411 620 425 c 0
 620 464 609 507 576 515 c 1
 452 428 l 1
 363 514 l 1
 290 479 270 431 262 393 c 2
 189 53 l 1
 206 53 299 56 381 138 c 1
 374 135 366 134 359 134 c 0
 317 134 306 168 306 199 c 0
 306 282 383 369 446 369 c 0
 478 369 502 340 502 300 c 0
430 319 m 0
 383 319 352 231 352 206 c 0
 352 182 373 180 376 180 c 0
 401 180 453 239 453 293 c 0
 453 312 445 319 430 319 c 0
EndSplineSet
EndChar
StartChar: uni0E16
Encoding: 3606 3606 233
Width: 671
VWidth: 1467
Flags: W
HStem: -3 46<168.402 215.955> 177 48<227.348 251.873> 523 58<299.469 368 368 525.08>
VStem: 118 46<43.3538 110.03> 253 44<85.5501 171.606> 573 75<369.761 468.617>
Fore
297 162 m 0
 297 90 226 -3 168 -3 c 0
 136 -3 118 22 118 56 c 0
 118 65 119 74 121 83 c 2
 154 239 l 2
 171 322 219 405 292 446 c 1
 212 537 l 1
 211 537 l 1
 220 581 l 1
 353 581 l 2
 501 581 603 580 639 476 c 0
 645 459 648 439 648 415 c 0
 648 389 644 358 637 323 c 2
 571 0 l 1
 493 1 l 1
 561 324 l 2
 568 358 573 387 573 413 c 0
 573 485 536 526 406 526 c 0
 376 526 360 523 330 523 c 0
 319 523 309 523 299 524 c 1
 345 463 343 463 344 462 c 1
 335 417 l 1
 327 411 268 388 240 280 c 2
 227 222 l 1
 234 224 241 225 248 225 c 0
 284 225 297 194 297 162 c 0
181 43 m 0
 196 43 253 84 253 146 c 0
 253 162 249 177 233 177 c 0
 216 177 164 132 164 71 c 0
 164 49 173 43 181 43 c 0
EndSplineSet
EndChar
StartChar: uni0E17
Encoding: 3607 3607 234
Width: 738
VWidth: 1467
Flags: W
HStem: -1 21G<178 258.265 553 636.226> 330 52<195.117 233.161> 528 52<234.573 287.848 504.269 628.002>
VStem: 144 50<388.413 479.128> 290 54<459.458 520.474> 645 79<419.546 509.503>
Fore
144 399 m 0
 144 476 220 580 285 580 c 0
 332 580 344 536 344 507 c 0
 344 501 344 496 343 492 c 2
 308 330 l 1
 365 451 448 578 578 578 c 0
 642 578 724 552 724 454 c 0
 724 440 722 424 718 406 c 2
 632 -1 l 1
 553 -1 l 1
 634 381 l 2
 641 412 645 438 645 458 c 0
 645 505 622 524 560 524 c 0
 442 524 310 263 283 135 c 2
 254 -1 l 1
 178 -1 l 1
 253 351 l 1
 232 336 213 330 197 330 c 0
 162 330 144 360 144 399 c 0
269 528 m 0
 246 528 194 475 194 415 c 0
 194 396 200 382 212 382 c 0
 233 382 290 433 290 491 c 0
 290 512 283 528 269 528 c 0
EndSplineSet
EndChar
StartChar: uni0E18
Encoding: 3608 3608 235
Width: 608
VWidth: 1467
Flags: W
HStem: -6 61<227.011 419.8> 502 21G<603.5 618> 534 47<274.661 574.969>
VStem: 117 86<44.3164 91.3057 81.3631 101.248 101.248 114 114 122> 160 78<134.792 280> 182 66<463.698 493.462 474.281 512.308> 487 83<294.51 295 295 315 305 330.723>
Fore
388 534 m 0xe6
 278 534 248 504 248 484 c 0xe6
 248 439 570 406 570 319 c 0
 570 316 570 314 569 311 c 2
 517 66 l 2
 508 24 413 -6 300 -6 c 0
 239 -6 117 10 117 74 c 0xf2
 117 77 117 81 118 85 c 2
 160 280 l 1
 238 280 l 1xea
 204 122 l 2
 203 119 203 116 203 114 c 0xf2
 203 76 259 55 320 55 c 0
 384 55 441 76 448 109 c 2
 487 292 l 1
 487 294 488 296 488 298 c 0
 488 376 182 393 182 471 c 0
 182 473 183 475 183 477 c 1
 191 512 238 581 431 581 c 0
 507 581 583 569 618 560 c 1
 618 502 l 1
 589 511 473 534 388 534 c 0xe6
EndSplineSet
EndChar
StartChar: uni0E19
Encoding: 3609 3609 236
Width: 768
VWidth: 1467
Flags: W
HStem: -3 59<327.831 451.582 580.625 652.336> 205 59<633.711 676.6> 340 52<204.469 238.476> 539 51<241.916 293.398>
VStem: 151 48<392.065 490.531> 221 81<81.4756 171.115> 296 68<449.757 531.355> 682 53<82.6593 189.324>
Fore
151 409 m 0xfd
 151 497 229 590 290 590 c 0
 343 590 364 527 364 475 c 0xfb
 364 462 362 450 360 439 c 2
 307 183 l 2
 304 168 302 154 302 140 c 0
 302 94 324 56 411 56 c 0
 431 56 462 59 522 109 c 1
 622 581 l 1
 698 581 l 1
 630 258 l 1
 636 261 649 264 666 264 c 0
 713 264 735 219 735 169 c 0
 735 83 668 -7 603 -7 c 0
 577 -7 544 4 530 54 c 1
 478 14 425 -3 369 -3 c 0
 277 -3 221 49 221 132 c 0
 221 146 223 161 226 176 c 2
 267 368 l 1
 236 342 209 340 204 340 c 0
 165 340 151 372 151 409 c 0xfd
275 539 m 0
 253 539 199 484 199 423 c 0
 199 397 211 392 218 392 c 0
 233 392 296 437 296 500 c 0
 296 521 290 539 275 539 c 0
645 205 m 0
 604 205 577 143 577 100 c 0
 577 76 584 50 610 50 c 0
 641 50 682 94 682 151 c 0
 682 176 675 205 645 205 c 0
EndSplineSet
EndChar
StartChar: uni0E1A
Encoding: 3610 3610 237
Width: 739
VWidth: 1467
Flags: W
HStem: -6 60<330.826 525.105> 338 54<193.998 251.188> 537 52<234.184 287.859>
VStem: 144 49<397.975 488.613> 212 87<85.0573 168.055> 290 70<446.958 528.622>
Fore
144 407 m 0xf8
 144 494 225 589 285 589 c 0
 339 589 360 528 360 474 c 0xf4
 360 461 358 448 356 437 c 2
 304 192 l 2
 300 175 299 160 299 147 c 0
 299 71 356 54 421 54 c 0
 486 54 571 60 599 194 c 2
 681 580 l 1
 758 580 l 1
 668 157 l 2
 649 67 551 -6 410 -6 c 0
 294 -6 212 42 212 126 c 0
 212 136 213 146 215 157 c 2
 260 365 l 1
 253 360 226 338 196 338 c 0
 158 338 144 371 144 407 c 0xf8
271 537 m 0
 246 537 193 486 193 425 c 0
 193 405 199 392 213 392 c 0
 237 392 290 441 290 497 c 0
 290 517 284 537 271 537 c 0
EndSplineSet
EndChar
StartChar: uni0E1B
Encoding: 3611 3611 238
Width: 736
VWidth: 1467
Flags: W
HStem: -14 55<328.352 509.01> 344 54<180.563 229.869> 543 53<229.837 286.061>
VStem: 141 50<398.756 494.595> 209 84<74.6795 168.35> 288 68<453.347 535.119>
Fore
141 414 m 0xf8
 141 501 224 596 283 596 c 0
 335 596 356 531 356 478 c 0xf4
 356 466 355 455 353 445 c 2
 301 203 l 2
 296 180 293 159 293 141 c 0
 293 78 326 41 421 41 c 0
 534 41 578 117 594 192 c 2
 734 850 l 1
 812 850 l 1
 668 174 l 2
 657 121 599 -14 404 -14 c 0
 319 -14 209 15 209 125 c 0
 209 137 211 151 214 166 c 2
 258 374 l 1
 237 354 211 344 193 344 c 0
 160 344 141 374 141 414 c 0xf8
267 543 m 0
 237 543 191 485 191 430 c 0
 191 405 202 398 211 398 c 0
 226 398 288 440 288 506 c 0
 288 524 284 543 267 543 c 0
EndSplineSet
EndChar
StartChar: uni0E1C
Encoding: 3612 3612 239
Width: 720
VWidth: 1467
Flags: W
HStem: 0 21G<100 190.5 510.5 622.131> 357 46<261.512 313.81> 535 50<297.593 349.199>
VStem: 350 46<443.136 530.783>
Fore
396 520 m 0
 396 410 305 357 267 357 c 0
 263 357 259 357 255 358 c 1
 194 69 l 1
 287 104 349 196 422 288 c 1
 442 197 506 82 551 69 c 1
 659 581 l 1
 738 581 l 1
 618 0 l 1
 550 0 l 1
 471 44 446 88 403 194 c 1
 305 71 218 27 163 0 c 1
 100 0 l 1
 190 423 l 2
 199 464 248 585 343 585 c 0
 385 585 396 552 396 520 c 0
333 535 m 0
 310 535 261 488 261 433 c 0
 261 418 265 403 279 403 c 0
 297 403 350 448 350 506 c 0
 350 521 347 535 333 535 c 0
EndSplineSet
EndChar
StartChar: uni0E1D
Encoding: 3613 3613 240
Width: 720
VWidth: 1467
Flags: W
HStem: 0 21G<100 191.5 509.5 620.189> 358 48<260.31 313.802> 537 49<296.136 347.977>
VStem: 349 49<442.896 532.068>
Fore
398 522 m 0
 398 429 312 358 264 358 c 0
 261 358 257 359 254 359 c 1
 193 69 l 1
 243 89 299 123 420 288 c 1
 434 224 497 85 551 69 c 1
 716 845 l 1
 793 845 l 1
 616 0 l 1
 550 0 l 1
 469 42 440 97 402 194 c 1
 302 64 222 34 161 0 c 1
 100 0 l 1
 190 423 l 2
 199 466 248 586 342 586 c 0
 381 586 398 558 398 522 c 0
277 406 m 0
 292 406 349 443 349 507 c 0
 349 523 345 537 331 537 c 0
 303 537 260 482 260 434 c 0
 260 420 264 406 277 406 c 0
EndSplineSet
EndChar
StartChar: uni0E1E
Encoding: 3614 3614 241
Width: 771
VWidth: 1467
Flags: W
HStem: 1 21G<173 286.5 563.5 672.241> 328 54<210.205 242.358> 530 56<215.34 269.329>
VStem: 150 46<393.863 511.89> 282 66<417.982 521.878>
Fore
150 444 m 0
 150 501 184 586 260 586 c 0
 307 586 348 540 348 474 c 0
 348 463 347 451 344 439 c 2
 264 59 l 1
 353 133 467 394 519 494 c 1
 555 228 570 85 600 60 c 1
 710 581 l 1
 791 581 l 1
 668 1 l 1
 588 1 l 1
 539 24 490 152 490 348 c 0
 490 354 l 1
 436 194 325 37 248 1 c 1
 173 1 l 1
 243 330 l 1
 240 329 236 328 233 328 c 0
 181 328 150 386 150 444 c 0
246 530 m 0
 224 530 196 493 196 452 c 0
 196 413 222 382 238 382 c 0
 266 382 282 433 282 462 c 0
 282 500 260 530 246 530 c 0
EndSplineSet
EndChar
StartChar: uni0E1F
Encoding: 3615 3615 242
Width: 768
VWidth: 1467
Flags: W
HStem: 1 21G<170 283.5 560.5 669.25> 328 54<207.572 239.614> 529 56<210.775 266.816>
VStem: 148 45<394.673 514.356> 279 66<438.785 519.623>
Fore
148 444 m 0
 148 489 172 585 255 585 c 0
 304 585 345 539 345 474 c 0
 345 463 344 451 341 439 c 2
 261 59 l 1
 350 133 464 394 516 494 c 1
 556 196 568 84 597 60 c 1
 764 848 l 1
 845 848 l 1
 665 1 l 1
 585 1 l 1
 536 24 490 141 487 354 c 1
 433 194 322 37 245 1 c 1
 170 1 l 1
 240 330 l 1
 237 329 233 328 230 328 c 0
 180 328 148 384 148 444 c 0
240 529 m 0
 212 529 193 480 193 452 c 0
 193 413 219 382 235 382 c 0
 267 382 279 443 279 461 c 0
 279 497 259 529 240 529 c 0
EndSplineSet
EndChar
StartChar: uni0E20
Encoding: 3616 3616 243
Width: 691
VWidth: 1467
Flags: W
HStem: -6 55<145.958 200.276> 198 53<150.753 203.911> 534 53<313 368.208 368.208 526.126>
VStem: 83 48<60.46 179.87> 586 79<364.826 482.29>
Fore
83 114 m 0
 83 190 136 251 182 251 c 0
 196 251 209 247 221 239 c 1
 273 483 l 1
 220 544 l 1
 229 587 l 1
 425 587 l 2
 604 587 665 521 665 414 c 0
 665 388 661 360 655 329 c 2
 586 4 l 1
 512 4 l 1
 577 332 l 2
 582 354 586 380 586 405 c 0
 586 471 556 534 423 534 c 0
 397 534 348 532 313 531 c 1
 342 486 l 1
 260 99 l 2
 248 40 209 -6 165 -6 c 0
 120 -6 83 50 83 114 c 0
178 198 m 0
 159 198 131 156 131 118 c 0
 131 79 158 49 171 49 c 0
 195 49 216 90 216 126 c 0
 216 165 196 198 178 198 c 0
EndSplineSet
EndChar
StartChar: uni0E21
Encoding: 3617 3617 244
Width: 677
VWidth: 1467
Flags: W
HStem: -5 60<143.074 215.536 349.121 480.863> 207 58<149.342 212.731> 343 52<195.925 250.168> 542 53<252.024 332.125>
VStem: 76 53<68.2789 186.922> 161 50<401.276 493.036> 307 75<451.977 535.657>
Fore
161 413 m 0
 161 481 227 595 311 595 c 0
 358 595 382 552 382 499 c 0
 382 477 378 459 373 443 c 2
 303 113 l 1
 337 59 372 56 392 56 c 0
 502 56 537 121 551 188 c 2
 635 582 l 1
 712 582 l 1
 626 179 l 2
 604 77 498 -3 395 -3 c 0
 317 -3 264 69 264 69 c 1
 250 39 218 -5 175 -5 c 0
 131 -5 76 46 76 118 c 0
 76 196 139 265 194 265 c 0
 207 265 227 262 251 236 c 1
 280 371 l 1
 261 356 234 343 213 343 c 0
 180 343 161 373 161 413 c 0
288 542 m 0
 265 542 211 489 211 428 c 0
 211 408 218 395 230 395 c 0
 246 395 307 436 307 509 c 0
 307 526 303 542 288 542 c 0
187 207 m 0
 152 207 129 163 129 124 c 0
 129 84 155 55 177 55 c 0
 220 55 231 107 231 131 c 0
 231 165 217 207 187 207 c 0
EndSplineSet
EndChar
StartChar: uni0E22
Encoding: 3618 3618 245
Width: 691
VWidth: 1467
Flags: W
HStem: -1 63<204.32 519> 289 38<302.658 369> 408 46<376.403 470.94> 545 44<359.31 447.949>
VStem: 96 88<83.3139 182.908> 180 75<371.861 493.982> 311 47<472.273 527.781> 472 45<465.493 521.393>
Fore
96 123 m 0xfb
 96 275 262 302 287 307 c 1
 266 312 180 331 180 415 c 0
 180 519 278 589 399 589 c 0
 458 589 517 538 517 486 c 0
 517 439 470 408 428 408 c 0
 342 408 311 474 311 517 c 0
 311 521 311 525 312 528 c 1
 282 511 255 470 255 431 c 0xf7
 255 377 302 327 378 327 c 1
 369 289 l 1
 325 284 214 285 188 163 c 0
 186 152 184 142 184 133 c 0
 184 77 231 62 281 62 c 2
 519 62 l 1
 630 584 l 1
 711 584 l 1
 587 -1 l 1
 257 -1 l 2
 129 -1 96 65 96 123 c 0xfb
395 545 m 0
 366 545 358 530 358 519 c 0
 358 500 377 454 424 454 c 0
 465 454 472 475 472 481 c 0
 472 499 445 545 395 545 c 0
EndSplineSet
EndChar
StartChar: uni0E23
Encoding: 3619 3619 246
Width: 588
VWidth: 1467
Flags: W
HStem: -10 44<243.103 337.28> 123 45<233.188 316.567> 503 21G<590.5 610.212> 537 54<260.874 528.108>
VStem: 167 66<441.431 513.476> 176 49<66.8723 121.211> 449 88<290.392 309.391 297.945 323.78>
Fore
167 477 m 0xfa
 167 509 207 591 418 591 c 0
 486 591 564 582 613 569 c 1
 609 503 l 1
 572 516 483 537 373 537 c 0
 277 537 233 505 233 497 c 0xfa
 233 470 537 409 537 316 c 0
 537 313 537 310 536 307 c 2
 485 65 l 2
 475 20 377 -10 298 -10 c 0
 239 -10 176 40 176 94 c 0xf6
 176 142 223 168 262 168 c 0
 310 168 383 130 383 65 c 2
 383 57 l 1
 397 66 405 76 407 87 c 2
 449 283 l 1
 449 285 450 288 450 290 c 0
 450 366 167 401 167 477 c 0xfa
301 34 m 0
 334 34 339 54 339 59 c 0
 339 74 321 123 256 123 c 0
 240 123 225 114 225 101 c 0xf6
 225 88 232 34 301 34 c 0
EndSplineSet
EndChar
StartChar: uni0E24
Encoding: 3620 3620 247
Width: 671
VWidth: 1467
Flags: W
HStem: -3 46<168.175 215.514> 177 48<227.348 251.88> 523 58<299.469 368 368 525.08>
VStem: 118 46<43.6887 110.03> 253 49<82.4372 171.524> 440 75<-231.452 336.68> 573 75<369.761 468.617>
Fore
302 153 m 0
 302 76 221 -3 169 -3 c 0
 137 -3 118 22 118 57 c 0
 118 65 119 74 121 83 c 2
 154 239 l 2
 171 322 219 405 292 446 c 1
 212 537 l 1
 211 537 l 1
 220 581 l 1
 353 581 l 2
 501 581 603 580 639 476 c 0
 645 459 648 439 648 415 c 0
 648 389 644 358 637 323 c 2
 515 -247 l 1
 440 -247 l 1
 561 324 l 2
 568 358 573 387 573 413 c 0
 573 485 536 526 406 526 c 0
 376 526 360 523 330 523 c 0
 319 523 309 523 299 524 c 1
 345 463 343 463 344 462 c 1
 335 417 l 1
 327 411 268 388 240 280 c 2
 227 222 l 1
 234 224 241 225 248 225 c 0
 284 225 302 190 302 153 c 0
181 43 m 0
 196 43 253 84 253 146 c 0
 253 162 249 177 233 177 c 0
 216 177 164 132 164 71 c 0
 164 49 173 43 181 43 c 0
EndSplineSet
EndChar
StartChar: uni0E25
Encoding: 3621 3621 248
Width: 693
VWidth: 1467
Flags: W
HStem: -6 40<214.407 310.313> 109 41<218.254 321.436> 533 52<324.607 561.587>
VStem: 107 100<57.3096 153.63> 343 49<50.7153 99.3388> 601 82<418.774 499.914>
Fore
392 84 m 0
 392 30 324 -6 251 -6 c 0
 150 -6 107 69 107 134 c 0
 107 209 182 330 300 346 c 0
 426 364 476 340 550 386 c 0
 573 400 601 406 601 453 c 0
 601 517 515 533 466 533 c 0
 385 533 318 513 253 483 c 1
 274 549 l 1
 311 567 387 585 473 585 c 0
 643 585 683 519 683 462 c 0
 683 452 682 443 680 434 c 2
 588 0 l 1
 509 0 l 1
 584 355 l 1
 556 336 555 330 532 318 c 0
 455 287 387 304 301 278 c 0
 246 261 196 211 186 166 c 0
 184 154 180 130 179 107 c 1
 193 123 232 150 292 150 c 0
 349 150 392 122 392 84 c 0
282 109 m 0
 257 109 207 92 207 69 c 0
 207 50 243 34 267 34 c 0
 290 34 343 51 343 76 c 0
 343 97 301 109 282 109 c 0
EndSplineSet
EndChar
StartChar: uni0E26
Encoding: 3622 3622 249
Width: 691
VWidth: 1467
Flags: W
HStem: -6 55<145.958 199.661> 198 53<150.753 203.911> 534 53<313 368.208 368.208 526.126>
VStem: 83 48<60.46 179.87> 458 74<-233.127 223.556> 586 79<364.826 482.29>
Fore
83 114 m 0
 83 190 136 251 182 251 c 0
 196 251 209 247 221 239 c 1
 273 483 l 1
 220 544 l 1
 229 587 l 1
 425 587 l 2
 604 587 665 521 665 414 c 0
 665 388 661 360 655 329 c 2
 532 -248 l 1
 458 -248 l 1
 577 332 l 2
 582 354 586 380 586 405 c 0
 586 471 556 534 423 534 c 0
 397 534 348 532 313 531 c 1
 313 529 349 487 349 486 c 2
 267 101 l 2
 256 46 212 -6 165 -6 c 0
 120 -6 83 50 83 114 c 0
178 198 m 0
 159 198 131 156 131 118 c 0
 131 79 158 49 171 49 c 0
 195 49 216 90 216 127 c 0
 216 165 196 198 178 198 c 0
EndSplineSet
EndChar
StartChar: uni0E27
Encoding: 3623 3623 250
Width: 627
VWidth: 1467
Flags: W
HStem: -6 46<300.27 393.407> 129 45<280.969 372.621> 535 49<266.956 480.007>
VStem: 231 49<60.678 120.487> 534 84<420.034 488.71>
Fore
231 97 m 0
 231 143 272 174 319 174 c 0
 363 174 426 142 438 84 c 1
 465 99 475 141 485 189 c 2
 531 403 l 2
 533 413 534 422 534 431 c 0
 534 514 443 535 379 535 c 0
 291 535 231 500 208 478 c 1
 167 506 l 1
 190 536 275 584 393 584 c 0
 527 584 618 524 618 452 c 0
 618 446 617 440 616 434 c 2
 557 154 l 2
 536 58 453 -6 364 -6 c 0
 296 -6 231 39 231 97 c 0
311 129 m 0
 291 129 280 113 280 104 c 0
 280 86 299 40 357 40 c 0
 381 40 392 52 394 60 c 1
 394 63 391 129 311 129 c 0
EndSplineSet
EndChar
StartChar: uni0E28
Encoding: 3624 3624 251
Width: 739
VWidth: 1467
Flags: W
HStem: 1 21G<100 180.286 531 614.276> 211 37<353.863 467.002> 339 47<363.836 481.763> 527 64<339.522 584.418>
VStem: 486 45<278.808 330.628>
Fore
531 306 m 0
 531 258 470 211 397 211 c 256
 327 211 294 253 297 288 c 1
 236 244 222 216 206 141 c 2
 176 1 l 1
 100 1 l 1
 192 431 l 2
 219 559 362 591 478 591 c 0
 657 591 682 528 685 524 c 1
 711 565 745 595 791 615 c 1
 824 566 l 1
 782 545 713 484 703 436 c 2
 610 1 l 1
 531 1 l 1
 622 430 l 2
 623 436 624 442 624 448 c 0
 624 511 539 527 467 527 c 0
 399 527 285 514 266 423 c 2
 240 302 l 1
 290 346 355 386 426 386 c 0
 502 386 531 342 531 306 c 0
408 248 m 0
 467 248 486 291 486 304 c 0
 486 325 459 339 424 339 c 0
 375 339 348 308 348 288 c 0
 348 267 368 248 408 248 c 0
EndSplineSet
EndChar
StartChar: uni0E29
Encoding: 3625 3625 252
Width: 779
VWidth: 1467
Flags: W
HStem: -3 60<339.452 538.743> 212 43<441.304 530.362> 330 40<452.909 562.965> 336 57<192.177 262.276> 539 52<246.473 330.511>
VStem: 151 54<393.916 493.064> 225 85<86.965 157.465 148.469 166.461 166.461 176.605> 302 73<448.362 532.159> 390 31<263.818 316.959> 566 31<278.12 322.572>
Fore
390 281 m 0xdec0
 390 324 440 370 510 370 c 256
 559 370 597 346 597 307 c 0
 597 288 590 273 577 260 c 1
 616 269 617 271 626 274 c 1
 691 581 l 1
 773 581 l 1
 717 317 l 1
 743 334 770 358 777 387 c 1
 817 389 l 1
 810 372 786 310 706 264 c 1
 684 160 l 2
 664 64 545 -3 417 -3 c 0
 343 -3 225 24 225 127 c 0xeec0
 225 137 226 148 229 160 c 2
 272 364 l 1
 250 348 228 336 206 336 c 0
 170 336 151 370 151 412 c 0
 151 510 243 591 301 591 c 0
 360 591 375 536 375 488 c 0xddc0
 375 470 373 453 370 440 c 2
 314 179 l 2
 311 166 310 154 310 143 c 0
 310 90 342 57 433 57 c 0
 504 57 583 69 607 183 c 2
 616 227 l 1
 584 218 550 212 507 212 c 0
 415 212 390 249 390 281 c 0xdec0
480 255 m 0
 496 255 566 264 566 299 c 0
 566 318 536 330 501 330 c 0
 480 330 421 322 421 288 c 0
 421 261 471 255 480 255 c 0
283 539 m 0
 259 539 205 488 205 424 c 0
 205 397 218 393 223 393 c 0
 247 393 302 438 302 503 c 0xddc0
 302 522 298 539 283 539 c 0
EndSplineSet
EndChar
StartChar: uni0E2A
Encoding: 3626 3626 253
Width: 730
VWidth: 1467
Flags: W
HStem: -7 39<221.085 335.758> 109 45<226.437 328.689> 539 52<338.412 570.902>
VStem: 114 70<108.251 174.863> 351 49<49.8439 99.03>
Fore
400 83 m 0
 400 39 341 -7 266 -7 c 0
 194 -7 114 39 114 135 c 0
 114 190 144 331 342 351 c 0
 458 359 515 372 557 386 c 0
 573 391 608 400 608 455 c 0
 608 526 521 539 472 539 c 0
 391 539 310 511 261 487 c 1
 284 556 l 1
 318 574 398 591 476 591 c 0
 654 591 668 528 671 524 c 1
 699 564 734 593 779 612 c 1
 813 565 l 1
 800 556 707 507 682 414 c 2
 594 -1 l 1
 516 -1 l 1
 591 355 l 1
 570 339 565 341 535 330 c 0
 464 303 441 307 327 282 c 0
 223 255 198 197 191 166 c 0
 186 142 184 130 184 122 c 0
 184 115 185 111 187 107 c 1
 211 132 253 154 300 154 c 0
 366 154 400 116 400 83 c 0
287 109 m 0
 263 109 215 92 215 67 c 0
 215 48 246 32 275 32 c 0
 312 32 351 59 351 76 c 0
 351 100 303 109 287 109 c 0
EndSplineSet
EndChar
StartChar: uni0E2B
Encoding: 3627 3627 254
Width: 761
VWidth: 1467
Flags: W
HStem: 0 21G<186 268.276 578 661.221> 339 53<188.803 243.252> 422 39<526.097 569.303> 537 52<228.602 282.822 539.701 690.529>
VStem: 138 50<397.672 485.963> 285 77<449.517 530.279> 479 42<469.935 527.076> 639 83<291.415 306.886 307.686 339.56 323.623 379.57> 693 41<481.284 534.287>
Fore
734 515 m 0xfe80
 734 470 681 445 672 440 c 1
 692 430 728 421 728 360 c 0
 728 345 727 328 722 308 c 2
 657 0 l 1
 578 0 l 1
 639 289 l 2xff
 642 305 646 323 646 340 c 0
 646 363 640 385 619 398 c 0
 592 414 566 422 540 422 c 0
 433 422 328 300 295 145 c 2
 264 0 l 1
 186 0 l 1
 265 374 l 1
 249 358 220 339 194 339 c 0
 158 339 138 367 138 407 c 0
 138 480 211 589 279 589 c 0
 339 589 362 531 362 480 c 0
 362 468 361 457 359 447 c 2
 334 327 l 1
 411 429 462 446 496 455 c 1
 484 465 479 477 479 492 c 0
 479 550 557 585 623 585 c 0
 684 585 734 557 734 515 c 0xfe80
265 537 m 0
 242 537 188 485 188 424 c 0
 188 407 192 392 208 392 c 0
 221 392 285 434 285 502 c 0
 285 523 278 537 265 537 c 0
614 543 m 0
 563 543 521 525 521 498 c 0
 521 481 538 461 595 461 c 0
 638 461 693 481 693 510 c 0xfe80
 693 525 678 543 614 543 c 0
EndSplineSet
EndChar
StartChar: uni0E2C
Encoding: 3628 3628 255
Width: 849
VWidth: 1467
Flags: W
HStem: 0 21G<179 299 555.5 677.167> 324 54<215.115 247.596> 423 39<615.035 680.535> 525 55<220.369 272.886> 541 41<611.744 712.869>
VStem: 147 54<389.02 505.42> 286 66<413.133 515.315> 545 53<468.544 526.274>
Fore
545 490 m 0xf7
 545 547 622 582 683 582 c 0xef
 740 582 775 570 784 530 c 1
 818 556 837 572 863 606 c 1
 937 606 l 1
 886 536 825 487 768 456 c 1
 673 0 l 1
 597 0 l 1
 514 35 478 176 468 222 c 1
 427 146 343 42 255 0 c 1
 179 0 l 1
 248 326 l 1
 243 325 239 324 234 324 c 0
 196 324 147 367 147 436 c 0
 147 502 193 580 262 580 c 0
 317 580 352 523 352 464 c 0
 352 454 351 444 349 434 c 2
 269 57 l 1
 381 151 457 289 494 362 c 1
 523 202 575 80 604 59 c 1
 681 425 l 1
 668 423 652 423 649 423 c 0
 590 423 545 450 545 490 c 0xf7
248 525 m 0xf7
 230 525 201 483 201 447 c 0
 201 408 226 378 241 378 c 0
 264 378 286 419 286 456 c 0
 286 495 264 525 248 525 c 0xf7
674 541 m 256xef
 636 541 598 522 598 493 c 0
 598 468 636 462 657 462 c 256
 695 462 726 482 726 512 c 0
 726 535 698 541 674 541 c 256xef
EndSplineSet
Substitution2: "Single Substitution lookup 22 subtable" uni0E2C.alt1
Substitution2: "Single Substitution lookup 22 subtable" uni0E2C.alt1
EndChar
StartChar: uni0E2D
Encoding: 3629 3629 256
Width: 682
VWidth: 1467
Flags: W
HStem: -9 63<222.045 401.115> 198 44<270.146 372.385> 324 50<295.594 402.484> 539 53<322.45 532.298>
VStem: 104 78<90.4444 196.117> 403 48<270.363 322.025> 587 86<428.116 494.243>
Fore
214 255 m 1
 191 218 182 162 182 145 c 0
 182 73 256 54 320 54 c 0
 407 54 517 92 529 150 c 2
 584 411 l 2
 586 420 587 429 587 437 c 0
 587 518 494 539 431 539 c 0
 325 539 272 492 261 483 c 1
 221 514 l 1
 243 538 332 592 452 592 c 0
 584 592 673 529 673 459 c 0
 673 453 672 448 671 442 c 2
 609 150 l 2
 563 3 360 -9 309 -9 c 0
 200 -9 104 31 104 135 c 0
 104 284 283 374 379 374 c 0
 428 374 451 344 451 313 c 0
 451 267 390 198 299 198 c 0
 224 198 214 241 214 249 c 0
 214 251 215 253 214 255 c 1
362 324 m 0
 305 324 269 283 269 267 c 0
 269 258 275 242 297 242 c 0
 373 242 403 289 403 304 c 0
 403 316 391 324 362 324 c 0
EndSplineSet
EndChar
StartChar: uni0E2E
Encoding: 3630 3630 257
Width: 713
VWidth: 1467
Flags: W
HStem: 0 62<240.034 454.565> 186 42<284.359 379.226> 308 43<308.039 410.886> 384 52<285.307 539.859> 531 49<332.416 552.877>
VStem: 119 79<99.9133 224.477> 217 61<450.182 493.297> 411 49<258.289 301.044>
Fore
217 466 m 0
 217 504 290 580 458 580 c 0
 574 580 639 536 658 506 c 1
 677 532 718 573 764 594 c 1
 788 563 l 1
 737 542 689 491 670 402 c 2
 618 156 l 2
 596 51 435 0 326 0 c 0
 223 0 119 39 119 140 c 0
 119 297 305 351 380 351 c 0
 443 351 460 324 460 301 c 0
 460 260 403 186 309 186 c 0
 238 186 226 222 227 239 c 1
 217 223 198 194 198 153 c 0
 198 87 262 62 333 62 c 0
 430 62 530 104 541 156 c 2
 595 409 l 1
 553 393 489 384 426 384 c 0
 314 384 217 418 217 466 c 0
370 308 m 0
 330 308 277 272 277 248 c 0
 277 232 298 228 317 228 c 0
 371 228 411 275 411 287 c 0
 411 296 404 308 370 308 c 0
605 465 m 1
 595 490 546 531 443 531 c 0
 359 531 278 493 278 468 c 0
 278 455 302 436 432 436 c 0
 556 436 601 460 605 465 c 1
EndSplineSet
EndChar
StartChar: uni0E2F
Encoding: 3631 3631 258
Width: 547
VWidth: 1467
Flags: W
HStem: 0 21G<362 446.259> 423 42<271.483 367.112> 567 20G<472.5 567> 588 36<249.432 307.442>
VStem: 195 47<496.374 587.526> 338 42<486.375 554.269>
Fore
195 529 m 0
 195 563 210 624 269 624 c 0
 353 624 380 556 380 515 c 0
 380 497 374 483 369 475 c 1
 416 488 446 522 499 587 c 1
 567 587 l 1
 442 0 l 1
 362 0 l 1
 467 493 l 1
 407 437 368 423 306 423 c 0
 272 423 195 451 195 529 c 0
269 588 m 0
 259 588 242 584 242 559 c 0
 242 523 271 465 314 465 c 0
 333 465 338 481 338 492 c 0
 338 521 310 588 269 588 c 0
EndSplineSet
EndChar
StartChar: uni0E30
Encoding: 3632 3632 259
Width: 531
VWidth: 1467
Flags: W
HStem: 47 38<132.555 269.627> 161 34<139.743 274.578> 358 38<198.52 336.311> 471 34<206.851 338.948>
VStem: 90 37<95.3415 145.456> 155 38<406.516 455.19> 281 30<120.813 149.622> 346 30<430.113 459.625>
Fore
155 420 m 0
 155 471 230 505 290 505 c 0
 360 505 376 465 376 438 c 2
 376 430 l 1
 421 450 422 462 475 522 c 1
 554 522 l 1
 520 480 419 358 269 358 c 0
 202 358 155 383 155 420 c 0
277 471 m 0
 226 471 193 446 193 429 c 0
 193 411 231 396 262 396 c 0
 304 396 346 413 346 434 c 0
 346 453 313 471 277 471 c 0
90 109 m 0
 90 163 166 195 224 195 c 0
 297 195 311 153 311 126 c 0
 311 120 l 1
 348 138 354 145 409 213 c 1
 488 213 l 1
 453 169 353 47 202 47 c 0
 135 47 90 71 90 109 c 0
197 85 m 0
 229 85 281 101 281 124 c 0
 281 147 243 161 211 161 c 0
 175 161 127 144 127 119 c 0
 127 98 168 85 197 85 c 0
EndSplineSet
EndChar
StartChar: uni0E31
Encoding: 3633 3633 260
Width: 0
VWidth: 1467
Flags: W
HStem: 698 40<-89.7174 42.4809> 814 33<-81.8461 45.4757>
VStem: -136 40<748.254 797.351> 53 30<772.305 802.5>
Fore
-136 762 m 0
 -136 813 -62 847 -1 847 c 0
 73 847 83 802 83 780 c 2
 83 772 l 1
 132 794 136 810 184 867 c 1
 266 867 l 1
 242 839 127 698 -28 698 c 0
 -89 698 -136 723 -136 762 c 0
-28 738 m 0
 36 738 53 767 53 779 c 0
 53 795 18 814 -15 814 c 0
 -41 814 -96 797 -96 772 c 0
 -96 753 -59 738 -28 738 c 0
EndSplineSet
Substitution2: "Single Substitution lookup 22 subtable" uni0E31.alt1
Substitution2: "Single Substitution lookup 22 subtable" uni0E31.alt1
EndChar
StartChar: uni0E32
Encoding: 3634 3634 261
Width: 523
VWidth: 1467
Flags: W
HStem: 0 21G<339 422.253> 502 21G<164.619 175.5> 539 49<241.432 388.997>
VStem: 420 82<378.542 380 395 399.351 400.232 408.124 404.178 502.733>
Fore
310 588 m 0
 423 588 506 519 506 428 c 0
 506 418 504 406 502 395 c 2
 418 0 l 1
 339 0 l 1
 420 380 l 2
 423 397 427 417 427 437 c 0
 427 488 404 539 296 539 c 0
 246 539 194 523 157 502 c 1
 173 544 l 1
 214 578 278 588 310 588 c 0
EndSplineSet
EndChar
StartChar: uni0E33
Encoding: 3635 3635 262
Width: 523
VWidth: 1467
Flags: W
HStem: 0 21<339 422.253> 502 21<164.619 175.5> 539 49<241.432 388.997> 698 34<-59.5765 7.02962> 864 37<-41.5591 27.0601>
VStem: -117 52<735.668 840.311> 31 53<757.072 861.41> 420 82<378.542 380 395 399.351 400.232 408.124 404.178 502.733>
Back
324 588 m 0
 354.667 588 383.167 583.167 409.5 573.5 c 128
 435.833 563.833 457.833 550.167 475.5 532.5 c 128
 493.167 514.833 505.833 494.333 513.5 471 c 128
 521.167 447.667 522 422.333 516 395 c 2
 431 -3 l 1
 352 -3 l 1
 431 367 l 2
 437 395 440.833 418.333 442.5 437 c 128
 444.167 455.667 439 473.333 427 490 c 0
 417 506 402.333 518 383 526 c 128
 363.667 534 342 538.333 318 539 c 128
 294 539.667 269 536.833 243 530.5 c 128
 217 524.167 193.333 514.667 172 502 c 1
 188 544 l 1
 199.333 554 212.333 562 227 568 c 128
 241.667 574 255.667 578.333 269 581 c 128
 282.333 583.667 294.167 585.5 304.5 586.5 c 128
 314.833 587.5 321.333 588 324 588 c 0
-145 738 m 0
 -139 766.667 -124.167 790.5 -100.5 809.5 c 128
 -76.8333 828.5 -51.6667 838 -25 838 c 0
 -0.333334 838 20 828 36 808 c 128
 52 788 56.6667 764.333 50 737 c 0
 46.6667 723 41.1667 709.833 33.5 697.5 c 128
 25.8333 685.167 16.6667 674.333 6 665 c 128
 -4.66667 655.667 -16.3333 648.333 -29 643 c 128
 -41.6667 637.667 -54.3333 635 -67 635 c 0
 -95.6667 635 -117.333 645.333 -132 666 c 128
 -146.667 686.667 -151 710.667 -145 738 c 0
-94 738 m 0
 -98 721.333 -97.5 706 -92.5 692 c 128
 -87.5 678 -76.6667 670.333 -60 669 c 0
 -45.3333 669 -32.6667 676.333 -22 691 c 128
 -11.3333 705.667 -3.66667 721.333 1 738 c 0
 4.33333 752.667 3.5 766.667 -1.5 780 c 128
 -6.5 793.333 -16.6667 800.333 -32 801 c 0
 -48 800.333 -61.5 793.167 -72.5 779.5 c 128
 -83.5 765.833 -90.6667 752 -94 738 c 0
EndSplineSet
Refer: 261 3634 N 1 0 0 1 0 0 2
Refer: 284 3661 N 1 0 0 1 0 0 2
Substitution2: "Single Substitution lookup 22 subtable" uni0E33.alt1
Substitution2: "Single Substitution lookup 22 subtable" uni0E33.alt1
EndChar
StartChar: uni0E34
Encoding: 3636 3636 263
Width: 0
VWidth: 1467
Flags: W
HStem: 697 37<-346 -10> 795 47<-242.598 -46.9901>
VStem: -404 448<697 708 697 697 697 697>
Fore
-402 708 m 2
 -392 754 -301 842 -155 842 c 0
 -60 842 26 803 38 726 c 2
 44 697 l 1
 -404 697 l 1
 -402 708 l 2
-10 734 m 1
 -21 779 -98 795 -160 795 c 0
 -209 795 -305 783 -346 734 c 1
 -10 734 l 1
EndSplineSet
Substitution2: "Single Substitution lookup 22 subtable" uni0E34.alt1
Substitution2: "Single Substitution lookup 22 subtable" uni0E34.alt1
EndChar
StartChar: uni0E35
Encoding: 3637 3637 264
Width: 0
VWidth: 1467
Flags: W
HStem: 697 35<-333 -20> 697 167<17 44 -401 80 17 17> 793 46<-276.61 -61.4609>
Fore
-399 708 m 2x40
 -387 761 -292 839 -159 839 c 0x20
 -57 839 -14 798 0 781 c 1
 17 864 l 1
 80 864 l 1
 44 697 l 1
 -401 697 l 1
 -399 708 l 2x40
-20 735 m 1
 -47 781 -119 793 -168 793 c 0
 -226 793 -302 776 -333 732 c 1
 -20 732 l 1xa0
 -20 735 l 1
EndSplineSet
Substitution2: "Single Substitution lookup 22 subtable" uni0E35.alt1
Substitution2: "Single Substitution lookup 22 subtable" uni0E35.alt1
EndChar
StartChar: uni0E36
Encoding: 3638 3638 265
Width: 0
VWidth: 1467
Flags: W
HStem: 697 32<-373 -45> 794 47<-296.274 -121.104> 855 41<-86.4399 17.0699>
VStem: 23 42<792.121 847.63>
Fore
-19 896 m 0
 34 896 65 857 65 820 c 0
 65 787 38 755 1 738 c 1
 0 734 4 730 10 697 c 1
 -430 697 l 1
 -428 708 l 2
 -415 767 -305 841 -180 841 c 0
 -162 841 -144 840 -127 836 c 1
 -112 871 -65 896 -19 896 c 0
-45 729 m 1
 -66 776 -130 794 -191 794 c 0
 -251 794 -337 777 -373 729 c 1
 -45 729 l 1
-91 828 m 1
 -53 817 -34 799 -16 772 c 1
 11 777 23 808 23 817 c 0
 23 833 7 855 -30 855 c 0
 -57 855 -78 846 -91 828 c 1
EndSplineSet
Substitution2: "Single Substitution lookup 22 subtable" uni0E36.alt1
Substitution2: "Single Substitution lookup 22 subtable" uni0E36.alt1
EndChar
StartChar: uni0E37
Encoding: 3639 3639 266
Width: 0
VWidth: 1467
Flags: W
HStem: 697 35<-330 -32> 697 167<14 45 -404 81 14 14> 793 46<-278.669 -109.556>
Fore
-402 708 m 2x40
 -391 757 -301 839 -163 839 c 0x20
 -142 839 -123 837 -105 833 c 1
 -98 864 l 1
 -24 864 l 1
 -36 808 l 1
 -23 801 -12 792 -1 781 c 1
 14 864 l 1
 81 864 l 1
 45 697 l 1
 -404 697 l 1
 -402 708 l 2x40
-32 735 m 1
 -58 779 -122 793 -173 793 c 0
 -231 793 -300 775 -330 732 c 1
 -32 732 l 1xa0
 -32 735 l 1
EndSplineSet
Substitution2: "Single Substitution lookup 22 subtable" uni0E37.alt1
Substitution2: "Single Substitution lookup 22 subtable" uni0E37.alt1
EndChar
StartChar: uni0E38
Encoding: 3640 3640 267
Width: 0
VWidth: 1467
Flags: W
HStem: -293 230<-223 -160> -225 39<-268.179 -207.086> -95 32<-224.009 -173.315>
VStem: -298 42<-200.999 -128.755> -298 174 -171 47<-140.106 -96.8635>
Fore
-298 -192 m 0x54
 -298 -135 -242 -63 -178 -63 c 0
 -132 -63 -124 -93 -124 -114 c 0
 -124 -121 -125 -128 -126 -131 c 2
 -160 -293 l 1
 -223 -293 l 1x94
 -204 -201 l 1
 -218 -213 -231 -225 -264 -225 c 0
 -285 -225 -298 -216 -298 -192 c 0x54
-243 -186 m 0x74
 -221 -186 -171 -135 -171 -108 c 0
 -171 -100 -176 -95 -185 -95 c 0
 -220 -95 -256 -155 -256 -172 c 0
 -256 -184 -245 -186 -243 -186 c 0x74
EndSplineSet
Substitution2: "Single Substitution lookup 21 subtable" a
Substitution2: "Single Substitution lookup 22 subtable" uni0E38.alt1
Substitution2: "Single Substitution lookup 21 subtable" a
Substitution2: "Single Substitution lookup 22 subtable" uni0E38.alt1
EndChar
StartChar: uni0E39
Encoding: 3641 3641 268
Width: 0
VWidth: 1467
Flags: W
HStem: -292 40<-290 -237.914> -292 230<-354 -290.34> -231 37<-383.156 -352.095> -95 33<-348.308 -282.907>
VStem: -425 303<-194 -69 -194 -194> -425 39<-206.282 -134.265> -294 33<-136.504 -86.9463>
Fore
-425 -194 m 0x28
 -425 -140 -359 -62 -294 -62 c 0
 -267 -62 -261 -74 -261 -96 c 0x42
 -261 -103 -261 -111 -262 -120 c 2
 -290 -252 l 1
 -255 -252 l 2
 -243 -252 -219 -247 -211 -211 c 2
 -181 -69 l 1
 -122 -69 l 1
 -148 -192 l 2
 -159 -243 -192 -292 -282 -292 c 2x88
 -354 -292 l 1x48
 -337 -211 l 1
 -348 -221 -368 -231 -385 -231 c 0
 -405 -231 -425 -224 -425 -194 c 0x28
-311 -95 m 0x36
 -347 -95 -386 -163 -386 -179 c 0
 -386 -188 -379 -194 -369 -194 c 0
 -335 -194 -294 -128 -294 -110 c 0
 -294 -101 -299 -95 -311 -95 c 0x36
EndSplineSet
Substitution2: "Single Substitution lookup 21 subtable" b
Substitution2: "Single Substitution lookup 22 subtable" uni0E39.alt1
Substitution2: "Single Substitution lookup 21 subtable" b
Substitution2: "Single Substitution lookup 22 subtable" uni0E39.alt1
EndChar
StartChar: uni0E3A
Encoding: 3642 3642 269
Width: 0
VWidth: 1467
Flags: W
HStem: -213 133<-206.542 -146.658>
VStem: -231 110<-186.781 -104.356>
Fore
-231 -167 m 0
 -231 -119 -199 -80 -161 -80 c 0
 -135 -80 -121 -99 -121 -126 c 0
 -121 -168 -153 -213 -189 -213 c 0
 -208 -213 -231 -203 -231 -167 c 0
EndSplineSet
Substitution2: "Single Substitution lookup 21 subtable" c
Substitution2: "Single Substitution lookup 22 subtable" uni0E3A.alt1
Substitution2: "Single Substitution lookup 21 subtable" c
Substitution2: "Single Substitution lookup 22 subtable" uni0E3A.alt1
EndChar
StartChar: uni0E3F
Encoding: 3647 3647 270
Width: 714
VWidth: 1467
Flags: W
HStem: 0 60<188 276 361 458.734> 389 66<445 520.799> 641 56<311 409 496 596.01>
VStem: 614 73<189.927 318.354 515.057 623.152>
Fore
685 594 m 0
 685 524 640 448 523 418 c 1
 602 399 687 353 687 253 c 0
 687 239 685 225 682 210 c 0
 640 14 453 1 431 0 c 2
 351 0 l 1
 323 -132 l 1
 248 -132 l 1
 276 0 l 1
 100 0 l 1
 248 697 l 1
 421 697 l 1
 449 829 l 1
 524 829 l 1
 496 697 l 1
 568 697 l 2
 638 688 685 661 685 594 c 0
486 456 m 2
 534 459 613 499 613 576 c 0
 613 617 583 638 539 641 c 2
 484 641 l 1
 445 455 l 1
 486 456 l 2
286 60 m 1
 409 641 l 1
 311 641 l 1
 188 60 l 1
 286 60 l 1
419 60 m 2
 583 60 614 195 614 249 c 0
 614 336 534 381 462 389 c 2
 431 389 l 1
 361 60 l 1
 419 60 l 2
EndSplineSet
EndChar
StartChar: uni0E40
Encoding: 3648 3648 271
Width: 325
VWidth: 1467
Flags: W
HStem: -9 48<161.799 211.29> 171 45<225.017 232.347 228.682 247.298> 560 20G<218.752 301>
VStem: 115 46<43.9381 106.057> 248 44<78.4717 165.238>
Fore
292 158 m 0
 292 75 218 -9 166 -9 c 0
 139 -9 115 15 115 58 c 0
 115 65 116 73 117 81 c 2
 223 580 l 1
 301 580 l 1
 224 216 l 1
 228 216 233 220 245 220 c 0
 267 220 292 203 292 158 c 0
228 171 m 0
 208 171 161 120 161 68 c 0
 161 51 166 39 178 39 c 0
 192 39 248 80 248 141 c 0
 248 156 244 171 228 171 c 0
EndSplineSet
EndChar
StartChar: uni0E41
Encoding: 3649 3649 272
Width: 620
VWidth: 1467
Flags: W
HStem: -9 47<162.131 215.139 435.615 489.066> 172 49<226.156 251.285 501.476 525.737> 560 20G<218.76 302 492.76 578>
VStem: 114 47<44.1164 106.205> 252 48<77.9229 165.862> 388 47<43.6667 105.44> 527 48<78.5776 165.866>
Fore
300 152 m 0
 300 76 224 -9 169 -9 c 0
 134 -9 114 17 114 54 c 0
 114 62 115 71 117 80 c 2
 223 580 l 1
 302 580 l 1
 225 217 l 1
 231 219 239 221 247 221 c 0
 276 221 300 195 300 152 c 0
180 38 m 0
 197 38 252 81 252 142 c 0
 252 158 247 172 231 172 c 0
 215 172 161 126 161 70 c 0
 161 54 165 38 180 38 c 0
575 151 m 0
 575 71 497 -9 442 -9 c 0
 408 -9 388 16 388 54 c 0
 388 62 389 71 391 80 c 2
 497 580 l 1
 578 580 l 1
 501 217 l 1
 509 219 516 220 522 220 c 0
 556 220 575 189 575 151 c 0
453 38 m 0
 468 38 527 78 527 141 c 0
 527 157 522 172 506 172 c 0
 484 172 435 119 435 67 c 0
 435 51 441 38 453 38 c 0
EndSplineSet
EndChar
StartChar: uni0E42
Encoding: 3650 3650 273
Width: 378
VWidth: 1467
Flags: W
HStem: -9 48<214.667 268.606> 1001 42<293.335 471.594>
VStem: 167 47<44.338 105.748> 200 51<912.773 959.475> 305 46<78.7801 166.651> 323 80<784.507 807 807 807 807 850.172>
Fore
200 928 m 0xd4
 200 969 256 1043 388 1043 c 0
 449 1043 524 1026 580 1012 c 1
 580 958 l 1
 476 994 422 1001 381 1001 c 0
 310 1001 253 957 252 951 c 1
 251 949 251 946 251 944 c 0
 251 889 405 889 405 814 c 0
 405 809 404 805 403 800 c 2xd4
 279 217 l 1
 286 219 293 221 300 221 c 0
 323 221 351 205 351 160 c 0
 351 81 279 -9 222 -9 c 0
 197 -9 167 8 167 53 c 0xe8
 167 61 168 70 170 80 c 2
 323 801 l 2
 324 805 324 809 324 813 c 0
 324 877 200 868 200 928 c 0xd4
233 39 m 0
 251 39 305 82 305 141 c 0
 305 157 301 172 285 172 c 0
 269 172 214 129 214 69 c 0xe8
 214 54 218 39 233 39 c 0
EndSplineSet
EndChar
StartChar: uni0E43
Encoding: 3651 3651 274
Width: 338
VWidth: 1467
Flags: W
HStem: -12 48<179.903 234.076> 169 44<243.92 248.539 246.229 269.259> 767 49<171.046 225.674> 991 57<278.022 409.31>
VStem: 121 49<823.032 917.388> 134 45<40.9195 102.19> 255 44<847.635 947.534> 270 40<74.4489 162.58> 436 61<832.647 962.99>
Fore
121 839 m 0xfa80
 121 934 215 1048 353 1048 c 0
 441 1048 497 985 497 908 c 0
 497 773 350 705 339 663 c 2
 243 213 l 1
 246 213 249 218 259 218 c 0
 298 218 310 179 310 143 c 0
 310 56 225 -12 182 -12 c 0
 148 -12 134 18 134 52 c 0xf580
 134 60 134 68 136 76 c 2
 268 695 l 1
 318 739 l 2
 366 782 436 820 436 904 c 0
 436 951 407 991 345 991 c 0
 299 991 290 982 275 980 c 1
 287 967 299 946 299 917 c 0
 299 838 230 767 176 767 c 0
 141 767 121 798 121 839 c 0xfa80
230 948 m 0
 201 948 170 893 170 849 c 0
 170 833 175 816 192 816 c 0
 217 816 255 866 255 909 c 0xfa80
 255 934 244 948 230 948 c 0
197 36 m 0
 220 36 270 79 270 137 c 0
 270 155 264 169 251 169 c 0
 233 169 179 126 179 65 c 0xf580
 179 50 183 36 197 36 c 0
EndSplineSet
EndChar
StartChar: uni0E44
Encoding: 3652 3652 275
Width: 440
VWidth: 1467
Flags: W
HStem: -12 47<265.156 328.458> 978 68<376.783 453.042>
VStem: 228 47<39.6473 101.443> 367 40<75.1626 162.833> 422 77<942.916 997.684>
Fore
407 145 m 0
 407 55 325 -12 276 -12 c 0
 255 -12 228 -0 228 45 c 0
 228 54 229 65 232 77 c 2
 399 862 l 2
 409 907 422 941 422 962 c 0
 422 974 418 978 412 978 c 0
 398 978 350 964 293 852 c 2
 272 810 l 1
 260 856 256 957 204 962 c 1
 223 1049 l 1
 283 1023 286 993 290 916 c 1
 306 945 353 1046 444 1046 c 0
 487 1046 499 1020 499 985 c 0
 499 965 495 941 490 918 c 2
 340 212 l 1
 351 215 352 218 357 218 c 0
 392 218 407 182 407 145 c 0
292 35 m 0
 311 35 367 78 367 137 c 0
 367 155 361 169 347 169 c 0
 322 169 275 116 275 63 c 0
 275 49 279 35 292 35 c 0
EndSplineSet
EndChar
StartChar: uni0E45
Encoding: 3653 3653 276
Width: 453
VWidth: 1467
Flags: W
HStem: 527 51<207.907 339.497>
VStem: 367 82<366.493 371 383 395.652 395.652 407.993 401.823 493.59>
Fore
245 578 m 0
 367 578 453 516 453 420 c 0
 453 408 452 396 449 383 c 2
 315 -249 l 1
 235 -249 l 1
 367 371 l 2
 371 392 374 410 374 426 c 0
 374 510 316 527 248 527 c 0
 228 527 206 524 183 518 c 1
 206 575 l 1
 214 577 227 578 245 578 c 0
EndSplineSet
EndChar
StartChar: uni0E46
Encoding: 3654 3654 277
Width: 642
VWidth: 1467
Flags: W
HStem: 289 51<219.757 270.702> 568 20G<343 415.5 493 564>
VStem: 163 53<340.747 465.858> 297 54<369.973 479.155> 408 78<-231.74 417.674> 559 78<446.681 531.864>
Fore
351 453 m 0
 351 390 302 289 230 289 c 256
 186 289 163 327 163 379 c 0
 163 522 279 569 407 588 c 1
 424 538 423 557 441 508 c 1
 483 557 472 539 514 588 c 1
 614 576 637 526 637 479 c 0
 637 464 635 450 632 437 c 2
 486 -248 l 1
 408 -248 l 1
 547 403 l 2
 556 443 559 471 559 491 c 0
 559 524 549 533 533 533 c 1
 422 420 l 1
 363 525 l 1
 345 520 351 520 332 515 c 1
 343 499 351 479 351 453 c 0
242 340 m 0
 270 340 297 404 297 450 c 0
 297 475 290 499 272 499 c 0
 245 499 216 435 216 388 c 0
 216 360 225 340 242 340 c 0
EndSplineSet
EndChar
StartChar: uni0E47
Encoding: 3655 3655 278
Width: 0
VWidth: 1467
Flags: W
HStem: 690 42<-104.416 -52.4248> 691 52<-298.813 -265.68> 829 36<-58.4621 -25.9859> 917 51<-252.063 -92.6651>
VStem: -358 55<754.951 864.605> -24 34<761.549 827.04>
Fore
-184 917 m 2x7c
 -261 917 -303 853 -303 794 c 0
 -303 769 -297 743 -278 743 c 0x7c
 -269 743 -257 750 -244 764 c 2
 -160 860 l 1
 -122 786 l 1
 -74 865 -41 865 -29 865 c 0
 1 865 10 847 10 825 c 0
 10 752 -60 690 -101 690 c 0xbc
 -115 690 -132 699 -136 716 c 1
 -176 782 l 1
 -249 691 l 1
 -289 691 -358 713 -358 781 c 0
 -358 811 -334 968 -167 968 c 0
 -45 968 15 988 77 1053 c 1
 120 1027 l 1
 33 923 -103 917 -151 917 c 2
 -184 917 l 2x7c
-86 732 m 0xbc
 -57 732 -24 788 -24 815 c 0
 -24 824 -28 829 -35 829 c 0
 -58 829 -100 775 -100 749 c 0
 -100 736 -89 732 -86 732 c 0xbc
EndSplineSet
Substitution2: "Single Substitution lookup 22 subtable" uni0E47.alt1
Substitution2: "Single Substitution lookup 22 subtable" uni0E47.alt1
EndChar
StartChar: uni0E48
Encoding: 3656 3656 279
Width: 0
VWidth: 1467
Flags: W
HStem: 952 148<61 93 29 125 61 61>
Fore
93 952 m 1
 29 952 l 1
 61 1100 l 1
 125 1100 l 1
 93 952 l 1
EndSplineSet
Substitution2: "Single Substitution lookup 22 subtable" uni0E48.alt2
Substitution2: "Single Substitution lookup 22 subtable" uni0E48.alt2
EndChar
StartChar: uni0E49
Encoding: 3657 3657 280
Width: 0
VWidth: 1467
Flags: W
HStem: 954 197<36 66 28 59 59 59> 954 36<-73 -13> 1016 25<4.98993 29.7481> 1124 27<20.7915 58.9364>
VStem: -19 23<1041.9 1107.49> 60 35<1057.4 1122.96>
Fore
95 1107 m 0x8c
 95 1068 68 1011 31 986 c 1
 132 995 180 1014 230 1115 c 1
 275 1115 l 1
 203 969 107 954 28 954 c 2x8c
 -80 954 l 1
 -73 990 l 1
 -13 990 l 1
 -5 996 4 1001 16 1006 c 1
 25 1015 26 1017 31 1021 c 1
 27 1016 15 1016 9 1016 c 0x6c
 -13 1016 -19 1034 -19 1052 c 0
 -19 1115 36 1151 59 1151 c 0
 66 1151 95 1148 95 1107 c 0x8c
13 1041 m 0x3c
 32 1041 60 1078 60 1112 c 0
 60 1122 56 1124 50 1124 c 0
 33 1124 4 1089 4 1054 c 0
 4 1044 7 1041 13 1041 c 0x3c
EndSplineSet
Substitution2: "Single Substitution lookup 22 subtable" uni0E49.alt2
Substitution2: "Single Substitution lookup 22 subtable" uni0E49.alt2
EndChar
StartChar: uni0E4A
Encoding: 3658 3658 281
Width: 0
VWidth: 1467
Flags: W
HStem: 941 24<-76.4946 -15.5509> 1019 24<-74.7265 -39.9209>
VStem: -127 37<973.52 1035.46> -15 21<969.567 1005.93> 113 40<1008.91 1092.07> 249 45<1048.98 1159>
Fore
6 983 m 0
 6 966 -5 941 -47 941 c 0
 -60 941 -127 950 -127 1006 c 0
 -127 1058 -68 1127 -8 1127 c 1
 33 1084 l 1
 73 1127 l 1
 134 1127 153 1086 153 1050 c 0
 153 1033 148 1012 136 992 c 1
 184 1026 226 1089 249 1159 c 1
 294 1159 l 1
 263 1052 184 955 85 946 c 1
 86 955 81 960 80 967 c 1
 93 982 113 1015 113 1047 c 0
 113 1084 84 1097 84 1097 c 1
 77 1097 45 1061 25 1051 c 1
 -19 1096 l 1
 -34 1090 -58 1078 -75 1040 c 1
 -66 1042 -58 1043 -54 1043 c 0
 -20 1043 6 1011 6 983 c 0
-67 1019 m 0
 -76 1019 -90 1008 -90 999 c 0
 -90 985 -67 965 -37 965 c 0
 -22 965 -15 976 -15 981 c 0
 -15 998 -55 1019 -67 1019 c 0
EndSplineSet
Substitution2: "Single Substitution lookup 22 subtable" uni0E4A.alt2
Substitution2: "Single Substitution lookup 22 subtable" uni0E4A.alt2
EndChar
StartChar: uni0E4B
Encoding: 3659 3659 282
Width: 0
VWidth: 1467
Flags: W
HStem: 951 195<91 105> 1017 53<0 63 130 185 -11 196 1.53064e-18 1.53064e-18>
Fore
185 1017 m 1x40
 119 1017 l 1x40
 105 951 l 1
 49 951 l 1x80
 63 1017 l 1
 -11 1017 l 1
 0 1070 l 1
 74 1070 l 1x40
 91 1146 l 1
 147 1146 l 1x80
 130 1070 l 1
 196 1070 l 1
 185 1017 l 1x40
EndSplineSet
Substitution2: "Single Substitution lookup 22 subtable" uni0E4B.alt2
Substitution2: "Single Substitution lookup 22 subtable" uni0E4B.alt2
EndChar
StartChar: uni0E4C
Encoding: 3660 3660 283
Width: 0
VWidth: 1467
Flags: W
HStem: 872 41<54.5034 99.6338>
VStem: 16 38<916.19 993.957> 117 36<930.015 1007.82>
Fore
153 1002 m 0
 153 945 113 872 62 872 c 0
 41 872 16 888 16 929 c 0
 16 1066 208 1073 233 1144 c 0
 235 1152 238 1161 240 1172 c 1
 286 1171 l 1
 278 1134 238 1071 138 1043 c 1
 148 1032 153 1019 153 1002 c 0
100 1013 m 0
 79 1013 54 963 54 933 c 0
 54 922 58 913 70 913 c 0
 95 913 117 961 117 985 c 0
 117 1001 111 1013 100 1013 c 0
EndSplineSet
Substitution2: "Single Substitution lookup 22 subtable" uni0E4C.alt2
Substitution2: "Single Substitution lookup 22 subtable" uni0E4C.alt2
EndChar
StartChar: uni0E4D
Encoding: 3661 3661 284
Width: 0
VWidth: 1467
Flags: W
HStem: 698 34<-59.5765 7.02962> 864 37<-41.5591 27.0601>
VStem: -117 52<735.668 840.311> 31 53<757.072 861.41>
Fore
84 821 m 0
 84 754 16 698 -37 698 c 0
 -88 698 -117 735 -117 780 c 0
 -117 848 -53 901 4 901 c 0
 46 901 84 869 84 821 c 0
-28 732 m 0
 7 732 31 790 31 820 c 0
 31 844 20 864 -1 864 c 0
 -27 864 -65 831 -65 781 c 0
 -65 754 -53 732 -28 732 c 0
EndSplineSet
Substitution2: "Single Substitution lookup 22 subtable" uni0E4D.alt1
Substitution2: "Single Substitution lookup 22 subtable" uni0E4D.alt1
EndChar
StartChar: uni0E4E
Encoding: 3662 3662 285
Width: 0
VWidth: 1467
Flags: W
HStem: 706 43<-11.0552 58.9004 54.309 63.4918 63.4918 72> 995 44<92.6874 194.161>
VStem: -108 93<756.158 820.567> -3 80<910.111 978.07>
Fore
-3 942 m 0
 -3 981 28 1039 147 1039 c 0
 173 1039 199 1036 226 1031 c 1
 207 989 l 1
 190 992 169 995 155 995 c 0
 111 995 77 972 77 939 c 0
 77 911 115 902 140 899 c 1
 118 845 l 1
 82 841 -15 842 -15 782 c 0
 -15 766 -2 749 53 749 c 0
 64 749 76 749 91 751 c 1
 72 710 l 1
 54 707 37 706 20 706 c 0
 -53 706 -108 728 -108 765 c 0
 -108 787 -83 878 42 878 c 0
 47 878 51 877 57 877 c 1
 33 883 -3 904 -3 942 c 0
EndSplineSet
Substitution2: "Single Substitution lookup 22 subtable" uni0E4E.alt1
Substitution2: "Single Substitution lookup 22 subtable" uni0E4E.alt1
EndChar
StartChar: uni0E4F
Encoding: 3663 3663 286
Width: 745
VWidth: 1467
Flags: W
HStem: 3 60<293.198 490.07> 125 63<352.341 484.95> 414 61<389.919 522.688> 537 62<385.636 582.302>
VStem: 133 63<158.861 349.086> 260 62<217.242 344.006> 554 63<256.531 382.921> 679 64<252.632 441.274>
Fore
462 414 m 0
 386 414 322 345 322 277 c 0
 322 227 357 188 414 188 c 0
 493 188 554 259 554 324 c 0
 554 373 518 414 462 414 c 0
260 263 m 0
 260 375 364 475 475 475 c 256
 559 475 617 417 617 338 c 0
 617 227 510 125 401 125 c 256
 317 125 260 184 260 263 c 0
387 63 m 0
 541 63 679 207 679 351 c 0
 679 460 601 537 488 537 c 0
 335 537 196 398 196 249 c 0
 196 141 274 63 387 63 c 0
743 363 m 0
 743 180 568 3 375 3 c 256
 232 3 133 102 133 237 c 0
 133 423 308 599 501 599 c 0
 644 599 743 497 743 363 c 0
EndSplineSet
EndChar
StartChar: uni0E50
Encoding: 3664 3664 287
Width: 868
VWidth: 1467
Flags: W
HStem: -1 55<340.468 546.187> 439 59<411.211 627.573>
VStem: 182 67<138.188 291.221> 707 69<204.438 366.744>
Fore
182 199 m 0
 182 336 297 498 515 498 c 0
 660 498 776 443 776 309 c 0
 776 127 606 -1 430 -1 c 0
 310 -1 182 60 182 199 c 0
521 439 m 0
 345 439 249 305 249 213 c 0
 249 132 315 54 440 54 c 0
 573 54 707 151 707 286 c 0
 707 361 662 439 521 439 c 0
EndSplineSet
EndChar
StartChar: uni0E51
Encoding: 3665 3665 288
Width: 868
VWidth: 1467
Flags: W
HStem: -1 63<284.943 581.426> 155 35<351.016 500.959> 282 36<413.687 538.512> 439 46<386.747 632.778>
VStem: 188 67<232.604 339.441> 335 42<202.42 249.374> 539 41<222.759 278.853> 719 81<276.375 287 287 300.061 300.061 303.5 301.78 371.346>
Fore
580 261 m 0
 580 232 533 155 398 155 c 0
 319 155 188 178 188 267 c 0
 188 371 318 485 545 485 c 0
 674 485 805 458 805 333 c 0
 805 319 804 304 800 287 c 2
 778 182 l 2
 767 132 687 -1 427 -1 c 0
 284 -1 196 46 186 88 c 1
 245 106 l 1
 252 96 308 62 432 62 c 0
 558 62 677 93 703 217 c 258
 719 293 l 2
 721 300 721 307 721 314 c 0
 721 392 626 439 507 439 c 0
 346 439 255 354 255 278 c 0
 255 236 298 213 335 202 c 1
 334 204 335 205 335 206 c 0
 335 280 439 318 494 318 c 0
 541 318 580 294 580 261 c 0
420 190 m 0
 474 190 539 223 539 256 c 0
 539 272 526 282 492 282 c 0
 450 282 377 255 377 214 c 0
 377 194 395 190 420 190 c 0
EndSplineSet
EndChar
StartChar: uni0E52
Encoding: 3666 3666 289
Width: 868
VWidth: 1467
Flags: W
HStem: 0 66<284.562 633.915> 241 39<361.741 420.317> 434 53<379.528 439.236>
VStem: 146 79<120.911 236.67> 240 76<275.035 657> 306 49<296.576 407.177> 751 80<306.628 394.593>
Fore
306 329 m 0xf6
 306 406 359 487 421 487 c 0
 445 487 472 474 482 459 c 2
 571 351 l 1
 704 477 l 1
 761 472 831 450 831 353 c 0
 831 336 829 317 824 295 c 2
 808 219 l 2
 775 68 634 0 530 0 c 2
 352 0 l 2
 207 0 146 91 146 188 c 0
 146 205 147 221 151 238 c 2
 240 657 l 1
 316 657 l 1xfa
 233 268 l 2
 228 243 225 222 225 202 c 0
 225 88 311 66 368 66 c 2
 519 66 l 2
 700 66 707 155 736 245 c 2
 743 277 l 2
 749 304 751 324 751 341 c 0
 751 378 737 395 706 411 c 1
 561 277 l 1
 482 374 l 1
 482 366 l 2
 482 282 413 241 381 241 c 0
 345 241 306 267 306 329 c 0xf6
413 434 m 0
 384 434 355 383 355 339 c 0xf6
 355 313 363 280 387 280 c 0
 432 280 443 367 443 387 c 0
 443 415 432 434 413 434 c 0
EndSplineSet
EndChar
StartChar: uni0E53
Encoding: 3667 3667 290
Width: 868
VWidth: 1467
Flags: W
HStem: 1 36<205.911 262.146> 186 49<248.655 305.534>
VStem: 138 62<37.3612 112.369> 306 46<88.6614 180.957> 718 87<279 306.185 306.185 327.477 316.831 377.808>
Fore
352 175 m 0
 352 121 310 1 213 1 c 0
 153 1 138 44 138 74 c 0
 138 81 139 87 140 92 c 2
 185 307 l 2
 198 366 269 411 320 440 c 0
 348 454 388 469 470 481 c 1
 508 365 l 1
 545 409 554 438 591 481 c 1
 674 468 701 456 723 442 c 0
 793 397 807 360 807 335 c 0
 807 330 806 324 805 320 c 2
 737 1 l 1
 659 1 l 1
 718 279 l 2
 720 289 723 303 723 318 c 0
 723 352 709 392 642 412 c 2
 595 424 l 1
 491 289 l 1
 444 424 l 1
 391 412 l 2
 333 398 271 359 254 279 c 2
 238 204 l 1
 249 215 275 235 302 235 c 0
 324 235 352 221 352 175 c 0
221 37 m 0
 266 37 306 113 306 162 c 0
 306 175 301 186 280 186 c 0
 262 186 200 132 200 66 c 0
 200 42 212 37 221 37 c 0
EndSplineSet
EndChar
StartChar: uni0E54
Encoding: 3668 3668 291
Width: 868
VWidth: 1467
Flags: W
HStem: -1 68<363 503 542.418 706> 114 30<523.014 590.766> 274 34<583.597 659.956> 400 65<387.886 672.205>
VStem: 169 74<131.187 266.713> 465 43<122.809 202.117> 661 39<208.068 272.975> 778 74<542.892 634>
Fore
465 143 m 0
 465 229 561 308 649 308 c 0
 689 308 700 282 700 258 c 0
 700 206 638 114 523 114 c 1
 528 96 563 66 589 66 c 2
 651 66 l 1
 720 67 l 1
 706 -1 l 1
 346 -1 l 1
 270 10 169 57 169 171 c 0
 169 302 297 465 488 465 c 2
 580 465 l 2
 624 465 728 469 778 634 c 1
 852 634 l 1
 832 582 756 400 574 400 c 2
 504 400 l 2
 366 400 243 311 243 197 c 0
 243 118 312 87 363 67 c 1
 503 67 l 1
 478 92 465 115 465 143 c 0
633 274 m 0
 588 274 508 191 508 161 c 0
 508 147 522 144 532 144 c 0
 586 144 661 219 661 247 c 0
 661 262 648 274 633 274 c 0
EndSplineSet
EndChar
StartChar: uni0E55
Encoding: 3669 3669 292
Width: 868
VWidth: 1467
Flags: W
HStem: 3 66<375 511 584.756 717> 118 37<534.551 539.711 537.131 609.664> 279 35<595.854 672.271> 413 57<500.455 603.048> 555 35<470.001 609.846>
VStem: 182 64<133.657 280.401> 409 48<481.441 538.274> 485 49<106.673 194.356> 617 37<495.489 543.925> 673 37<214.217 278.703> 805 72<549.161 638>
Fore
710 269 m 0
 710 201 610 118 545 118 c 0
 542 118 538 119 534 119 c 1
 538 96 546 104 567 82 c 256
 581 70 593 69 641 69 c 2
 664 69 l 1
 731 70 l 1
 717 3 l 1
 359 3 l 1
 210 28 182 121 182 187 c 0
 182 307 279 434 441 461 c 1
 425 478 409 490 409 506 c 0
 409 546 481 590 553 590 c 0
 609 590 654 565 654 526 c 0
 654 515 652 494 627 471 c 1
 671 476 761 495 805 638 c 1
 877 638 l 1
 793 428 643 413 586 413 c 2
 517 413 l 2
 376 413 246 318 246 201 c 0
 246 97 360 70 375 65 c 1
 511 65 l 1
 493 83 485 99 485 121 c 0
 485 132 487 144 490 159 c 0
 513 270 614 314 664 314 c 0
 698 314 710 292 710 269 c 0
564 155 m 0
 597 155 673 221 673 256 c 0
 673 269 663 279 648 279 c 0
 605 279 534 214 534 182 c 0
 534 166 550 155 564 155 c 0
546 555 m 0
 514 555 457 541 457 510 c 0
 457 481 503 470 528 470 c 0
 586 470 617 496 617 515 c 0
 617 544 576 555 546 555 c 0
EndSplineSet
EndChar
StartChar: uni0E56
Encoding: 3670 3670 293
Width: 868
VWidth: 1467
Flags: W
HStem: -7 57<384.945 558.238> 238 28<380.555 455.859> 414 61<380.67 619.726>
VStem: 259 77<518.545 616.287 605.597 626.977 626.977 644> 267 33<107.801 168.096> 456 27<173.363 233.766> 701 67<185.268 341.274>
Fore
483 220 m 0xee
 483 172 423 103 367 84 c 1
 390 64 419 50 465 50 c 0
 595 50 701 166 701 268 c 0
 701 352 630 414 525 414 c 2
 452 414 l 2
 333 414 259 475 259 584 c 0
 259 602 261 623 266 644 c 1
 337 644 l 1
 336 632 336 621 336 610 c 0xf6
 336 485 405 475 474 475 c 2
 543 475 l 2
 697 475 768 377 768 275 c 0
 768 135 630 -7 462 -7 c 0
 334 -7 267 84 267 115 c 0
 267 177 359 266 436 266 c 0
 468 266 483 244 483 220 c 0xee
325 107 m 0
 392 107 456 190 456 219 c 0
 456 230 448 238 435 238 c 0
 395 238 300 168 300 126 c 0xee
 300 114 308 107 325 107 c 0
EndSplineSet
EndChar
StartChar: uni0E57
Encoding: 3671 3671 294
Width: 868
VWidth: 1467
Flags: W
HStem: -2 25<128.327 182.876> 198 24<191.32 235.772>
VStem: 75 53<23.5672 112.192> 237 34<92.7012 191.965> 636 69<308.865 392.913>
Fore
271 161 m 0
 271 92 205 -2 141 -2 c 0
 107 -2 75 40 75 81 c 0
 75 86 75 91 76 96 c 2
 121 305 l 2
 127 334 144 360 169 382 c 0
 232 435 288 462 400 478 c 1
 435 362 l 1
 472 406 483 434 520 478 c 1
 625 462 705 430 705 336 c 0
 705 326 704 315 702 304 c 2
 667 141 l 2
 663 122 656 94 601 47 c 1
 662 59 687 70 721 106 c 0
 744 126 775 159 796 257 c 2
 876 637 l 1
 945 637 l 1
 859 229 l 2
 833 110 741 18 607 6 c 0
 585 3 550 1 494 1 c 1
 507 32 l 1
 540 50 577 53 601 163 c 2
 628 291 l 2
 633 313 636 331 636 346 c 0
 636 391 609 407 523 425 c 1
 419 286 l 1
 372 425 l 1
 324 415 268 404 215 354 c 0
 201 340 191 319 185 291 c 2
 168 200 l 1
 186 215 203 222 220 222 c 0
 260 222 271 190 271 161 c 0
145 23 m 0
 183 23 237 109 237 166 c 0
 237 183 232 198 217 198 c 0
 186 198 128 115 128 51 c 0
 128 36 132 23 145 23 c 0
EndSplineSet
EndChar
StartChar: uni0E58
Encoding: 3672 3672 295
Width: 868
VWidth: 1467
Flags: W
HStem: -1 21G<292.5 338 498.977 622> 118 34<634.512 679.36> 283 43<598.254 679.161> 406 64<389.111 698.532>
VStem: 168 69<117.552 264.212> 561 34<194.252 279.216> 718 46<157.954 241.87> 794 67<534.182 634>
Fore
168 168 m 0
 168 287 281 470 502 470 c 2
 571 470 l 2
 678 470 762 485 794 634 c 1
 861 634 l 1
 830 489 723 406 585 406 c 2
 492 406 l 2
 336 406 237 277 237 185 c 0
 237 130 274 81 328 70 c 1
 467 208 l 1
 529 63 l 1
 583 75 610 63 664 120 c 1
 658 119 653 118 649 118 c 0
 628 118 561 156 561 228 c 0
 561 292 607 326 647 326 c 0
 705 326 764 270 764 201 c 0
 764 160 736 26 508 -1 c 1
 448 132 l 1
 331 -2 347 22 329 -1 c 1
 256 7 168 63 168 168 c 0
677 152 m 0
 695 152 718 165 718 188 c 0
 718 222 677 283 632 283 c 0
 616 283 595 270 595 249 c 0
 595 213 639 152 677 152 c 0
EndSplineSet
EndChar
StartChar: uni0E59
Encoding: 3673 3673 296
Width: 868
VWidth: 1467
Flags: W
HStem: 2 42<228.398 318.251> 196 40<304.395 357.687>
VStem: 78 62<97.7147 269.834> 215 42<49.0759 140.692> 367 45<98.4191 195.156> 914 56<610.798 663>
Fore
412 173 m 0
 412 110 354 2 254 2 c 0
 191 2 78 53 78 178 c 0
 78 313 213 491 423 494 c 1
 493 321 l 1
 548 387 572 422 629 487 c 1
 694 487 l 2
 724 487 853 487 891 590 c 0
 902 616 909 640 914 663 c 1
 970 660 l 1
 944 538 891 441 701 430 c 2
 654 427 l 1
 523 258 l 1
 598 53 l 1
 550 7 l 1
 370 436 l 1
 234 411 140 282 140 179 c 0
 140 134 156 76 223 44 c 1
 217 55 215 65 215 77 c 0
 215 152 291 236 346 236 c 0
 358 236 412 231 412 173 c 0
280 44 m 0
 315 44 367 112 367 165 c 0
 367 191 353 196 342 196 c 0
 308 196 257 128 257 73 c 0
 257 50 270 44 280 44 c 0
EndSplineSet
EndChar
StartChar: uni0E5A
Encoding: 3674 3674 297
Width: 751
VWidth: 1467
Flags: W
HStem: 0 21G<354 437.238 568 651.262> 374 53<248.914 331.167> 547 35<235.248 288.943>
VStem: 176 50<449.481 546.212> 310 38<447.667 526.473>
Fore
176 487 m 0
 176 523 194 582 263 582 c 0
 300 582 348 549 348 493 c 0
 348 480 343 450 330 428 c 1
 388 444 444 513 470 547 c 1
 549 547 l 1
 525 434 l 1
 624 462 661 514 685 549 c 1
 764 549 l 1
 647 0 l 1
 568 0 l 1
 664 453 l 1
 664 453 620 404 515 387 c 1
 433 0 l 1
 354 0 l 1
 452 459 l 1
 395 403 339 374 276 374 c 0
 234 374 176 422 176 487 c 0
255 547 m 0
 243 547 226 541 226 510 c 0
 226 470 256 427 284 427 c 0
 294 427 310 434 310 462 c 0
 310 497 287 547 255 547 c 0
EndSplineSet
EndChar
StartChar: uni0E5B
Encoding: 3675 3675 298
Width: 1181
VWidth: 1467
Flags: W
HStem: 1 68<295.624 465.134> 185 42<397.179 451.353> 347 36<1020.72 1153.56> 393 36<439.878 494.792> 514 55<349.901 478.159>
VStem: 144 82<142.013 359.104> 343 48<227.518 333.405> 501 57<302.421 438.525 427 485.036> 638 49<333.625 383> 720 50<269.432 331.905>
Fore
379 69 m 0
 587 69 638 322 638 406 c 0
 638 428 635 446 629 462 c 1
 695 462 l 1
 735 426 770 392 770 314 c 0
 770 300 768 284 766 267 c 1
 833 346 840 405 851 461 c 1
 873 374 l 2
 887 320 896 302 914 283 c 1
 928 291 936 314 940 335 c 2
 966 456 l 1
 978 445 1014 383 1101 383 c 0
 1140 383 1179 396 1214 425 c 1
 1194 397 1149 347 1075 347 c 0
 1045 347 1016 360 991 376 c 1
 991 373 990 371 989 364 c 0
 969 270 941 244 920 224 c 1
 892 222 l 1
 853 275 857 286 845 326 c 1
 828 256 802 225 751 191 c 1
 707 191 l 1
 714 218 720 250 720 270 c 0
 720 299 713 336 687 383 c 1
 687 373 l 2
 687 345 683 317 677 289 c 0
 638 103 497 1 352 1 c 0
 231 1 144 98 144 237 c 0
 144 402 255 569 450 569 c 0
 520 569 558 505 558 418 c 0
 558 267 465 185 406 185 c 0
 370 185 343 213 343 259 c 0
 343 322 399 429 484 429 c 0
 499 429 501 427 505 427 c 1
 501 477 474 514 421 514 c 0
 326 514 226 402 226 246 c 0
 226 162 258 69 379 69 c 0
412 227 m 0
 454 227 501 311 501 363 c 0
 501 387 487 393 476 393 c 0
 444 393 391 320 391 258 c 0
 391 233 403 227 412 227 c 0
EndSplineSet
EndChar
StartChar: zerowidthnonjoiner
Encoding: 8204 8204 299
Width: 0
VWidth: 1467
Flags: W
VStem: -136 251<-452 352 -452 -452>
Fore
-56 -452 m 1
 -136 -452 l 1
 35 352 l 1
 115 352 l 1
 -56 -452 l 1
EndSplineSet
EndChar
StartChar: zerowidthjoiner
Encoding: 8205 8205 300
Width: 0
VWidth: 1467
Flags: W
VStem: -136 302<-452 327 -452 -452>
Fore
-56 -452 m 1
 -136 -452 l 1
 7 220 l 1
 -26 189 l 1
 -52 222 l 1
 12 274 l 1
 -23 327 l 1
 13 361 l 1
 64 296 l 1
 137 359 l 1
 166 327 l 1
 102 270 l 1
 149 220 l 1
 109 189 l 1
 87 220 l 1
 -56 -452 l 1
EndSplineSet
EndChar
StartChar: lefttorightmark
Encoding: 8206 8206 301
Width: 0
VWidth: 1467
Flags: W
HStem: 246 53<92 236>
VStem: -136 455<-452 273 -452 -452>
Fore
-56 -452 m 1
 -136 -452 l 1
 24 299 l 1
 248 299 l 1
 228 326 l 1
 258 351 l 1
 319 273 l 1
 224 195 l 1
 206 222 l 1
 236 246 l 1
 92 246 l 1
 -56 -452 l 1
EndSplineSet
EndChar
StartChar: righttoleftmark
Encoding: 8207 8207 302
Width: 0
VWidth: 1467
Flags: W
HStem: 246 53<-116 12>
VStem: -198 302<273 299 273 273>
Fore
-56 -452 m 1
 -136 -452 l 1
 12 246 l 1
 -128 246 l 1
 -108 222 l 1
 -137 195 l 1
 -198 273 l 1
 -103 351 l 1
 -86 326 l 1
 -116 299 l 1
 104 299 l 1
 -56 -452 l 1
EndSplineSet
EndChar
StartChar: endash
Encoding: 8211 8211 303
Width: 569
VWidth: 1467
Flags: W
HStem: 227 78<116 564 99 581 116 116>
Fore
99 227 m 1
 116 305 l 1
 581 305 l 1
 564 227 l 1
 99 227 l 1
EndSplineSet
EndChar
StartChar: emdash
Encoding: 8212 8212 304
Width: 1091
VWidth: 1467
Flags: W
HStem: 227 78<115 1085>
Fore
98 227 m 1
 115 305 l 1
 1102 305 l 1
 1085 227 l 1
 98 227 l 1
EndSplineSet
EndChar
StartChar: quoteleft
Encoding: 8216 8216 305
Width: 362
VWidth: 1467
Flags: W
HStem: 487 213<261 353 353 353>
VStem: 215 135<519.985 589.99>
Fore
350 572 m 0
 350 538 314 487 261 487 c 0
 222 487 215 514 215 533 c 0
 215 579 264 661 353 700 c 1
 397 700 l 1
 352 677 299 640 280 591 c 1
 291 599 303 603 314 603 c 0
 333 603 350 596 350 572 c 0
EndSplineSet
EndChar
StartChar: quoteright
Encoding: 8217 8217 306
Width: 355
VWidth: 1467
Flags: W
HStem: 493 213<246 338 338 338>
VStem: 248 136<602.59 672.275>
Fore
248 620 m 0
 248 654 284 706 338 706 c 0
 377 706 384 679 384 660 c 0
 384 622 346 539 246 493 c 1
 202 493 l 1
 247 516 300 553 319 602 c 1
 307 594 295 590 283 590 c 0
 267 590 248 597 248 620 c 0
EndSplineSet
EndChar
StartChar: quotesinglbase
Encoding: 8218 8218 307
Width: 218
VWidth: 1467
Flags: W
HStem: -109 214<44 136 136 136> -20 20<69.5 89 113.5 116>
VStem: 47 136<0.981201 70.3609>
Fore
183 59 m 0xa0
 183 1 120 -76 44 -109 c 1
 2 -109 l 1xa0
 90 -60 112 -19 120 0 c 1x60
 107 -8 95 -12 83 -12 c 0
 56 -12 47 0 47 16 c 0
 47 52 83 105 136 105 c 0
 169 105 183 84 183 59 c 0xa0
EndSplineSet
EndChar
StartChar: quotedblleft
Encoding: 8220 8220 308
Width: 535
VWidth: 1467
Flags: W
HStem: 487 116<280.516 315.903 478.516 513.903> 680 20G<308.5 397 506.5 595>
VStem: 215 135<519.985 589.99> 413 135<519.985 589.99>
Fore
350 572 m 0
 350 538 314 487 261 487 c 0
 222 487 215 514 215 533 c 0
 215 579 264 661 353 700 c 1
 397 700 l 1
 352 677 299 640 280 591 c 1
 291 599 303 603 314 603 c 0
 333 603 350 596 350 572 c 0
548 572 m 0
 548 538 512 487 459 487 c 0
 420 487 413 514 413 533 c 0
 413 579 462 661 551 700 c 1
 595 700 l 1
 550 677 497 640 478 591 c 1
 489 599 501 603 512 603 c 0
 531 603 548 596 548 572 c 0
EndSplineSet
EndChar
StartChar: quotedblright
Encoding: 8221 8221 309
Width: 545
VWidth: 1467
Flags: W
HStem: 588 117<286.963 322.438 484.975 520.484>
VStem: 252 135<600.446 669.582> 450 135<600.262 669.582>
Fore
450 618 m 0
 450 657 492 705 539 705 c 0
 576 705 585 679 585 659 c 0
 585 607 526 522 448 492 c 1
 404 492 l 1
 446 513 501 550 521 600 c 1
 510 592 498 588 486 588 c 0
 464 588 450 596 450 618 c 0
252 618 m 0
 252 657 294 705 341 705 c 0
 378 705 387 679 387 659 c 0
 387 607 328 522 250 492 c 1
 206 492 l 1
 248 513 303 550 323 600 c 1
 311 592 299 588 287 588 c 0
 261 588 252 601 252 618 c 0
EndSplineSet
EndChar
StartChar: quotedblbase
Encoding: 8222 8222 310
Width: 465
VWidth: 1467
Flags: W
HStem: -12 117<104.943 143.391 305.943 344.391>
VStem: 70 136<1.01611 70.423> 271 136<1.01611 70.423>
Fore
70 18 m 0
 70 63 116 105 159 105 c 0
 197 105 206 78 206 57 c 0
 206 3 142 -77 68 -109 c 1
 24 -109 l 1
 68 -86 121 -50 144 0 c 1
 131 -8 119 -12 107 -12 c 0
 79 -12 70 1 70 18 c 0
271 18 m 0
 271 63 317 105 360 105 c 0
 398 105 407 78 407 57 c 0
 407 3 343 -77 269 -109 c 1
 225 -109 l 1
 269 -86 322 -50 345 0 c 1
 332 -8 320 -12 307 -12 c 0
 280 -12 271 1 271 18 c 0
EndSplineSet
EndChar
StartChar: dagger
Encoding: 8224 8224 311
Width: 498
VWidth: 1467
Flags: W
HStem: 425 65<161 297 390 529 147 543 161 161>
Fore
543 490 m 1
 529 425 l 1
 376 425 l 1
 275 -51 l 1
 196 -51 l 1
 297 425 l 1
 147 425 l 1
 161 490 l 1
 311 490 l 1
 359 716 l 1
 438 716 l 1
 390 490 l 1
 543 490 l 1
EndSplineSet
EndChar
StartChar: daggerdbl
Encoding: 8225 8225 312
Width: 498
VWidth: 1467
Flags: W
HStem: 277 65<132 267 361 499> 424 65<163 298 392 530>
VStem: 118 426<277 489 309 443.472>
Fore
530 424 m 1
 378 424 l 1
 361 342 l 1
 513 342 l 1
 499 277 l 1
 347 277 l 1
 277 -53 l 1
 197 -53 l 1
 267 277 l 1
 118 277 l 1
 132 342 l 1
 281 342 l 1
 298 424 l 1
 149 424 l 1
 163 489 l 1
 312 489 l 1
 360 715 l 1
 440 715 l 1
 392 489 l 1
 544 489 l 1
 530 424 l 1
EndSplineSet
EndChar
StartChar: bullet
Encoding: 8226 8226 313
Width: 512
VWidth: 1467
Flags: W
HStem: 153 383<281.005 367.434>
VStem: 146 353<294.534 385.621>
Fore
146 293 m 0
 146 398 234 536 366 536 c 0
 451 536 499 473 499 391 c 0
 499 263 391 153 284 153 c 0
 207 153 146 206 146 293 c 0
EndSplineSet
EndChar
StartChar: ellipsis
Encoding: 8230 8230 314
Width: 1056
VWidth: 1467
Flags: W
HStem: -16 133<153.891 213.375 501.502 561.608 849.893 908.375>
VStem: 129 110<9.49171 91.4419> 477 110<9.96941 91.9837> 824 110<9.36191 90.4219>
Fore
129 32 m 0
 129 71 157 117 200 117 c 0
 226 117 239 99 239 72 c 0
 239 34 212 -16 172 -16 c 0
 145 -16 129 4 129 32 c 0
477 31 m 0
 477 75 506 117 547 117 c 0
 574 117 587 99 587 72 c 0
 587 28 555 -16 519 -16 c 0
 492 -16 477 3 477 31 c 0
824 30 m 0
 824 63 849 117 895 117 c 0
 921 117 934 99 934 72 c 0
 934 34 907 -16 867 -16 c 0
 840 -16 824 3 824 30 c 0
EndSplineSet
EndChar
StartChar: perthousand
Encoding: 8240 8240 315
Width: 1478
VWidth: 1467
Flags: W
HStem: 15 61<736.33 841.143 1191.64 1296.56> 295 62<254.122 358.068> 361 64<787.403 890.642 1241.17 1345.85> 641 63<307.969 407.066>
VStem: 151 79<382.677 541.085> 429 85<450.078 618.873> 624 85<103.932 260.922> 915 89<176.774 336.318> 1079 84<106.081 259.877> 1370 89<175.523 336.365>
Fore
897 707 m 1
 320 -4 l 1
 228 -4 l 1
 804 707 l 1
 897 707 l 1
151 451 m 0
 151 583 262 704 377 704 c 0
 459 704 514 634 514 547 c 0
 514 438 422 295 285 295 c 0
 208 295 151 359 151 451 c 0
363 641 m 0
 281 641 230 522 230 448 c 0
 230 387 267 357 304 357 c 0
 369 357 429 447 429 542 c 0
 429 599 406 641 363 641 c 0
624 173 m 0
 624 301 739 425 852 425 c 0
 948 425 1004 357 1004 273 c 0
 1004 177 922 15 775 15 c 0
 678 15 624 84 624 173 c 0
840 361 m 0
 767 361 709 248 709 171 c 0
 709 103 755 76 787 76 c 0
 853 76 915 168 915 263 c 0
 915 317 893 361 840 361 c 0
1079 173 m 0
 1079 297 1189 425 1307 425 c 0
 1403 425 1459 358 1459 273 c 0
 1459 166 1369 15 1230 15 c 0
 1133 15 1079 84 1079 173 c 0
1295 361 m 0
 1221 361 1163 247 1163 171 c 0
 1163 101 1213 76 1242 76 c 0
 1303 76 1370 161 1370 263 c 0
 1370 316 1349 361 1295 361 c 0
EndSplineSet
EndChar
StartChar: minute
Encoding: 8242 8242 316
Width: 325
VWidth: 1467
Flags: W
HStem: 514 206<275 297 297 297>
Fore
275 514 m 1
 209 514 l 1
 297 720 l 1
 392 720 l 1
 275 514 l 1
EndSplineSet
EndChar
StartChar: second
Encoding: 8243 8243 317
Width: 510
VWidth: 1467
Flags: W
HStem: 514 206<275 297 297 297>
Fore
275 514 m 1
 209 514 l 1
 297 720 l 1
 392 720 l 1
 275 514 l 1
466 514 m 1
 400 514 l 1
 488 720 l 1
 583 720 l 1
 466 514 l 1
EndSplineSet
EndChar
StartChar: guilsinglleft
Encoding: 8249 8249 318
Width: 378
VWidth: 1467
Flags: W
HStem: 88 364<350 356 350 350>
VStem: 78 355<266 452 266 266>
Fore
78 266 m 1
 154 298 263 359 350 452 c 1
 433 452 l 1
 335 342 208 276 188 268 c 1
 221 255 326 155 356 88 c 1
 276 88 l 1
 242 140 168 237 78 266 c 1
EndSplineSet
EndChar
StartChar: guilsinglright
Encoding: 8250 8250 319
Width: 387
VWidth: 1467
Flags: W
HStem: 85 364<116 122 116 116>
VStem: 39 356<85 271 85 85>
Fore
395 271 m 1
 318 239 209 178 122 85 c 1
 39 85 l 1
 123 178 251 258 284 268 c 1
 244 284 142 391 116 449 c 1
 196 449 l 1
 217 415 295 302 395 271 c 1
EndSplineSet
EndChar
StartChar: fraction
Encoding: 8260 8260 320
Width: 305
VWidth: 1467
Flags: W
HStem: 0 21G<-41 47.4324>
VStem: -41 490<0 666 1.53064e-18 1.53064e-18>
Fore
35 0 m 1
 -41 0 l 1
 374 666 l 1
 449 666 l 1
 35 0 l 1
EndSplineSet
EndChar
StartChar: Euro
Encoding: 8364 8364 321
Width: 735
VWidth: 1467
Flags: W
HStem: 0 59<349.871 535.349> 219 79<129 222 315 565> 403 78<168 261 354 604> 651 60<467.688 657.161>
VStem: 217 74<109.748 202.342> 744 48<594.104 622.8>
Fore
293 194 m 2
 292 187 291 180 291 172 c 0
 291 121 328 59 456 59 c 0
 481 59 600 61 655 145 c 1
 685 103 l 1
 635 33 533 0 434 0 c 0
 259 0 217 97 217 173 c 0
 217 190 219 205 222 219 c 1
 113 219 l 1
 129 298 l 1
 238 298 l 1
 261 403 l 1
 152 403 l 1
 168 481 l 1
 277 481 l 1
 284 514 l 2
 300 588 398 711 585 711 c 0
 680 711 772 678 792 607 c 1
 744 565 l 1
 723 649 603 651 581 651 c 0
 434 651 373 570 362 516 c 2
 354 481 l 1
 620 481 l 1
 604 403 l 1
 338 403 l 1
 315 298 l 1
 581 298 l 1
 565 219 l 1
 299 219 l 1
 293 194 l 2
EndSplineSet
EndChar
StartChar: uni2113
Encoding: 8467 8467 322
Width: 378
VWidth: 1467
Flags: W
HStem: 0 73<171.144 241.383> 621 55<307.635 355.237>
VStem: 117 82<46.0297 106.83> 359 69<536.734 619.835>
Fore
428 596 m 0
 428 543 386 408 245 329 c 1
 201 120 l 2
 199 112 199 106 199 100 c 0
 199 82 207 73 223 73 c 0
 242 73 271 85 312 110 c 1
 296 35 l 1
 251 11 213 0 183 0 c 0
 143 0 117 19 117 65 c 0
 117 77 119 89 122 104 c 2
 161 285 l 1
 108 252 l 1
 79 302 l 1
 177 361 l 1
 217 549 l 2
 238 648 307 676 346 676 c 0
 378 676 428 663 428 596 c 0
337 621 m 256
 313 621 301 595 292 549 c 2
 260 401 l 1
 354 472 359 582 359 596 c 0
 359 617 351 621 337 621 c 256
EndSplineSet
EndChar
StartChar: trademark
Encoding: 8482 8482 323
Width: 950
VWidth: 1467
Flags: W
HStem: 293 423<256 927 1109 1236> 643 70<149 259 331 458>
Fore
149 713 m 1x40
 473 713 l 1
 458 643 l 1
 331 643 l 1x40
 256 293 l 1
 184 293 l 1x80
 259 643 l 1
 134 643 l 1
 149 713 l 1x40
736 569 m 1
 792 635 894 703 927 716 c 1
 1000 716 l 1
 910 293 l 1
 840 293 l 1
 915 646 l 1
 872 629 742 520 717 478 c 1
 688 556 629 625 588 644 c 1
 513 293 l 1
 443 293 l 1
 533 716 l 1
 604 716 l 1x80
 643 695 703 639 736 569 c 1
EndSplineSet
EndChar
StartChar: Ohm
Encoding: 8486 8486 324
Width: 701
VWidth: 1467
Flags: W
HStem: 1 53<74 249 474 635> 603 68<374.824 579.155>
VStem: 143 78<263.809 440.331> 646 77<349.856 539.467>
Fore
143 328 m 0
 143 487 278 671 498 671 c 0
 643 671 723 585 723 464 c 0
 723 378 679 217 491 138 c 1
 474 57 l 1
 647 57 l 1
 635 1 l 1
 408 1 l 1
 449 192 l 1
 533 228 646 292 646 455 c 0
 646 531 609 603 483 603 c 0
 293 603 221 436 221 344 c 0
 221 266 270 221 331 183 c 1
 292 1 l 1
 63 1 l 1
 74 54 l 1
 249 54 l 1
 267 135 l 1
 178 189 143 253 143 328 c 0
EndSplineSet
EndChar
StartChar: estimated
Encoding: 8494 8494 325
Width: 595
VWidth: 1467
Flags: W
HStem: -13 54<231.335 381.423> 238 66<232 480.336> 508 60<322.769 462.755>
VStem: 129 70<72.5305 147.939 137.523 158.356 158.356 166.558> 507 67<330.935 463.99>
Fore
495 110 m 1
 450 14 350 -13 288 -13 c 0
 186 -13 129 58 129 125 c 0
 129 134 130 142 132 150 c 2
 184 396 l 2
 199 466 283 568 411 568 c 0
 531 568 574 488 574 415 c 0
 574 239 423 238 349 238 c 2
 218 238 l 1
 203 170 l 2
 200 158 199 147 199 136 c 0
 199 73 243 41 297 41 c 0
 358 41 421 75 451 126 c 1
 495 110 l 1
507 401 m 0
 507 460 459 508 399 508 c 0
 358 508 270 485 247 376 c 2
 232 304 l 1
 373 304 l 2
 451 304 507 306 507 401 c 0
EndSplineSet
EndChar
StartChar: partialdiff
Encoding: 8706 8706 326
Width: 642
VWidth: 1467
Flags: W
HStem: -14 77<203.257 336.572> 622 61<369.745 540.751>
VStem: 105 80<82.2597 175.557> 574 77<478.095 587.812>
Fore
340 282 m 0
 193 247 185 149 185 128 c 0
 185 83 222 63 269 63 c 0
 346 63 413 117 475 170 c 1
 538 364 l 1
 475 307 409 298 340 282 c 0
486 683 m 0
 616 683 651 607 651 540 c 0
 651 509 644 490 642 478 c 2
 543 145 l 1
 526 110 351 -14 247 -14 c 0
 204 -14 105 10 105 110 c 0
 105 150 124 309 351 354 c 0
 416 367 574 396 574 522 c 0
 574 565 555 622 466 622 c 0
 406 622 333 595 281 563 c 1
 311 634 l 1
 373 670 436 683 486 683 c 0
EndSplineSet
EndChar
StartChar: Delta
Encoding: 8710 8710 327
Width: 613
VWidth: 1467
Flags: W
HStem: 0 62<116 524>
Fore
612 0 m 1
 0 0 l 1
 449 621 l 1
 612 0 l 1
524 62 m 1
 423 493 l 1
 116 62 l 1
 524 62 l 1
EndSplineSet
EndChar
StartChar: product
Encoding: 8719 8719 328
Width: 736
VWidth: 1467
Flags: W
HStem: 594 68<295 698>
Fore
608 -156 m 1
 539 -156 l 1
 698 594 l 1
 295 594 l 1
 136 -156 l 1
 67 -156 l 1
 241 662 l 1
 782 662 l 1
 608 -156 l 1
EndSplineSet
EndChar
StartChar: summation
Encoding: 8721 8721 329
Width: 868
VWidth: 1467
Flags: W
HStem: -200 75<161 235.815 235.815 771> 604 72<326 942>
Fore
606 263 m 1
 513 269 341 315 229 604 c 1
 245 676 l 1
 958 678 l 1
 942 604 l 1
 326 604 l 1
 363 452 566 291 741 268 c 1
 571 248 184 -37 161 -126 c 1
 207 -125 257 -125 311 -125 c 2
 787 -125 l 1
 771 -200 l 1
 58 -200 l 1
 74 -128 l 1
 161 18 457 229 606 263 c 1
EndSplineSet
EndChar
StartChar: minus
Encoding: 8722 8722 330
Width: 494
VWidth: 1467
Flags: W
HStem: 249 78<114 493 97 510 114 114>
Fore
493 249 m 1
 97 249 l 1
 114 327 l 1
 510 327 l 1
 493 249 l 1
EndSplineSet
EndChar
StartChar: radical
Encoding: 8730 8730 331
Width: 604
VWidth: 1467
Flags: W
HStem: 324 57<134 183>
Fore
314 16 m 1
 208 16 l 1
 183 324 l 1
 122 324 l 1
 134 381 l 1
 253 381 l 1
 278 82 l 1
 625 666 l 1
 700 666 l 1
 314 16 l 1
EndSplineSet
EndChar
StartChar: infinity
Encoding: 8734 8734 332
Width: 846
VWidth: 1467
Flags: W
HStem: 58 61<544.792 667.486> 79 59<239.682 360.969> 413 66<288.971 404.377> 432 71<623.015 721.361>
VStem: 153 59<166.475 327.528> 457 60<148.042 200> 747 69<225.402 404.605>
Fore
153 220 m 0x4e
 153 323 216 479 366 479 c 0x6e
 430 479 465 452 490 365 c 1
 543 495 649 503 679 503 c 0
 768 503 816 441 816 347 c 0
 816 235 754 58 582 58 c 0x9e
 507 58 458 105 457 200 c 1
 441 168 399 79 284 79 c 0
 229 79 153 113 153 220 c 0x4e
351 413 m 0
 280 413 212 336 212 238 c 0
 212 183 238 138 295 138 c 0
 366 138 431 208 431 312 c 0
 431 372 402 413 351 413 c 0
601 119 m 0x9e
 689 119 747 212 747 323 c 0
 747 378 730 432 667 432 c 0
 576 432 517 323 517 226 c 0
 517 174 535 119 601 119 c 0x9e
EndSplineSet
EndChar
StartChar: integral
Encoding: 8747 8747 333
Width: 403
VWidth: 1467
Flags: W
HStem: -139 54<-52 -39.6687 -39.6687 -38.4003 -39.0345 42.9437> 609 56<400.722 479.58 474.954 484.207 484.207 490>
Fore
155 -13 m 2
 113 -133 21 -145 -20 -145 c 0
 -36 -145 -53 -143 -71 -139 c 1
 -52 -85 l 1
 -41 -87 -31 -89 -21 -89 c 0
 29 -89 68 -58 93 3 c 2
 292 534 l 2
 324 621 384 665 474 665 c 0
 486 665 498 664 511 663 c 1
 490 606 l 1
 479 608 469 609 460 609 c 0
 425 609 391 600 355 518 c 2
 155 -13 l 2
EndSplineSet
EndChar
StartChar: approxequal
Encoding: 8776 8776 334
Width: 592
VWidth: 1467
Flags: W
HStem: 109 79<375.869 495.9> 170 78<179.065 303.37> 267 79<410.803 526.144> 329 77<208.774 339.489>
VStem: 126 454<119 396 119 119>
Fore
477 346 m 0x28
 506 350 541 367 580 396 c 1
 563 315 l 1
 525 283 488 267 452 267 c 0x28
 408 267 315 329 268 329 c 0
 237 329 200 311 160 276 c 1
 176 355 l 1
 206 389 241 406 282 406 c 0x18
 375 406 422 346 477 346 c 0x28
263 248 m 0x48
 332 248 388 188 443 188 c 0
 474 188 509 205 547 239 c 1
 530 158 l 1
 495 125 462 109 430 109 c 0x88
 370 109 279 170 234 170 c 0
 203 166 168 149 126 119 c 1
 143 197 l 1
 175 231 216 248 263 248 c 0x48
EndSplineSet
EndChar
StartChar: notequal
Encoding: 8800 8800 335
Width: 519
VWidth: 1467
Flags: W
HStem: -10 21G<151 233.221> 144 54<107 222 319 495> 352 53<151 316 415 539>
VStem: 96 454<144 405 218 342>
Fore
495 144 m 1
 295 144 l 1
 224 -10 l 1
 151 -10 l 1
 222 144 l 1
 96 144 l 1
 107 198 l 1
 244 198 l 1
 316 352 l 1
 140 352 l 1
 151 405 l 1
 341 405 l 1
 407 546 l 1
 480 546 l 1
 415 405 l 1
 550 405 l 1
 539 352 l 1
 390 352 l 1
 319 198 l 1
 506 198 l 1
 495 144 l 1
EndSplineSet
EndChar
StartChar: lessequal
Encoding: 8804 8804 336
Width: 514
VWidth: 1467
Flags: W
HStem: 18 57<61 474> 568 20G<535 590.616>
Fore
250 348 m 1
 367 318 444 258 509 183 c 1
 493 109 l 1
 394 243 213 325 122 346 c 1
 309 399 475 487 595 588 c 1
 579 515 l 1
 410 395 322 366 250 348 c 1
49 18 m 1
 61 75 l 1
 486 75 l 1
 474 18 l 1
 49 18 l 1
EndSplineSet
EndChar
StartChar: greaterequal
Encoding: 8805 8805 337
Width: 513
VWidth: 1467
Flags: W
HStem: 18 57<61 474> 570 20G<165.733 213.5>
VStem: 49 493<18 352 18 18>
Fore
49 18 m 1
 61 75 l 1
 486 75 l 1
 474 18 l 1
 49 18 l 1
414 351 m 1
 297 380 220 440 154 515 c 1
 170 590 l 1
 257 466 439 377 542 352 c 1
 361 303 188 211 68 110 c 1
 84 183 l 1
 264 311 356 336 414 351 c 1
EndSplineSet
EndChar
StartChar: lozenge
Encoding: 9674 9674 338
Width: 578
VWidth: 1467
Flags: W
HStem: -28 21G<275 308.5> 692 20G<401.5 448>
Fore
437 712 m 1
 459 551 555 403 622 342 c 1
 623 342 l 1
 622 342 l 1
 480 253 334 70 283 -28 c 1
 267 83 212 234 98 342 c 1
 96 342 l 1
 98 342 l 1
 205 410 366 575 437 712 c 1
418 612 m 1
 356 493 246 394 176 342 c 1
 286 204 298 96 301 72 c 1
 364 192 474 290 545 342 c 1
 436 477 422 580 418 612 c 1
EndSplineSet
EndChar
StartChar: dottedcircle
Encoding: 9676 9676 339
Width: 787
VWidth: 1467
Flags: W
HStem: 41 67<384.949 429.351> 63 66<276.97 321.663 499.583 544.595> 119 66<196.462 241.854 602.408 648.625> 204 67<152.541 197.039 682.566 728.258> 304 66<148.44 195.187 728.301 772.861> 403 67<193.58 239.35 725.211 770.31> 492 66<276.462 321.933 679.27 727.139> 549 64<379.537 425.064 600.095 645.83> 566 66<495.523 540.56>
VStem: 145 57<207.759 262.954 306.885 365.879> 190 57<122.656 178.643 407.22 464.458> 271 55<86.8738 124.098 496 553.901> 378 56<44.5851 100.709 572.431 609.305> 494 55<65.907 121.976 570.046 603.588> 595 59<144.879 155.586 551.419 609.272> 677 56<208.233 264.677 495.96 553.079> 723 56<309.051 365.026 406.39 464.557>
Fore
143 329 m 0x1c1e
 143 346 158 370 180 370 c 0
 193 370 200 362 200 348 c 0
 200 325 186 304 166 304 c 256
 151 304 143 316 143 329 c 0x1c1e
245 445 m 0
 245 424 227 403 209 403 c 256
 197 403 187 413 187 427 c 0
 187 449 209 470 223 470 c 0
 236 470 245 459 245 445 c 0
327 532 m 0
 327 516 312 492 291 492 c 256
 280 492 270 500 270 514 c 0
 270 530 284 558 305 558 c 256x1e1e
 319 558 327 546 327 532 c 0
374 571 m 0
 374 588 388 613 409 613 c 0
 422 613 429 604 429 591 c 0
 429 577 422 549 396 549 c 0x1d1e
 383 549 374 557 374 571 c 0
546 607 m 0
 546 590 531 566 509 566 c 256
 497 566 489 574 489 587 c 0
 489 603 503 632 523 632 c 0x1c9e
 537 632 546 621 546 607 c 0
652 592 m 0
 652 570 636 547 615 547 c 256
 607 547 595 551 595 569 c 0
 595 588 606 612 629 612 c 0
 644 612 652 605 652 592 c 0
732 532 m 0
 732 510 711 492 698 492 c 0
 684 492 674 502 674 517 c 0
 674 542 697 558 712 558 c 0x1e1e
 724 558 732 546 732 532 c 0
776 446 m 0
 776 422 758 402 739 402 c 256
 727 402 719 412 719 426 c 0
 719 445 734 468 753 468 c 0
 769 468 776 461 776 446 c 0
723 328 m 0x1c1e80
 723 348 738 371 757 371 c 256
 770 371 779 361 779 347 c 0
 779 326 761 305 743 305 c 256
 730 305 723 314 723 328 c 0x1c1e80
677 226 m 0x1c1f
 677 245 691 270 711 270 c 0
 725 270 733 260 733 245 c 0
 733 221 713 204 697 204 c 256
 688 204 677 210 677 226 c 0x1c1f
595 141 m 0
 595 155 610 185 632 185 c 256
 647 185 654 170 654 157 c 0
 654 146 640 119 618 119 c 256x3c1e
 607 119 595 126 595 141 c 0
494 84 m 0
 494 105 508 129 529 129 c 0
 545 129 549 116 549 105 c 0
 549 85 536 63 515 63 c 0x5c1e
 501 63 494 70 494 84 c 0
378 62 m 0
 378 79 392 108 413 108 c 0
 426 108 434 98 434 83 c 0
 434 59 417 41 398 41 c 256x9c1e
 386 41 378 49 378 62 c 0
271 85 m 0
 271 106 288 129 306 129 c 0
 322 129 326 116 326 105 c 0
 326 92 319 63 292 63 c 0x5c1e
 279 63 271 71 271 85 c 0
190 141 m 0x3c3e
 190 157 204 185 225 185 c 256
 240 185 247 171 247 158 c 0
 247 144 233 119 211 119 c 256
 199 119 190 128 190 141 c 0x3c3e
145 226 m 0x1c5e
 145 247 166 271 183 271 c 0
 192 271 202 263 202 247 c 0
 202 223 185 204 166 204 c 256
 154 204 145 213 145 226 c 0x1c5e
EndSplineSet
EndChar
StartChar: uni0E10.alt1
Encoding: 63232 63232 340
Width: 648
VWidth: 1467
Flags: W
HStem: 0 21G<270 383.5> 93 49<240.78 286.995> 274 46<244.961 296.307> 496 21G<625.5 647.212> 534 51<265.508 543.246>
VStem: 177 63<463.452 509.504> 184 47<148.287 262.475> 307 50<150.585 268.726>
Fore
184 193 m 0xfb
 184 258 229 320 278 320 c 0
 316 320 357 275 357 191 c 0
 357 162 355 133 347 95 c 2
 335 38 l 1
 486 85 504 138 512 174 c 2
 536 285 l 1
 536 287 537 289 537 291 c 0
 537 368 177 380 177 478 c 0
 177 511 216 585 412 585 c 0
 497 585 606 573 650 562 c 1
 646 496 l 1
 605 513 478 534 391 534 c 0
 292 534 240 508 240 484 c 0xfd
 240 428 608 407 608 307 c 0
 608 304 608 301 607 298 c 258
 575 144 l 2
 562 86 437 0 330 0 c 2
 270 0 l 1
 275 49 281 50 291 101 c 1
 280 94 277 93 264 93 c 0
 223 93 184 135 184 193 c 0xfb
273 274 m 0
 249 274 231 231 231 204 c 0xfb
 231 174 246 142 269 142 c 0
 286 142 307 174 307 207 c 0
 307 239 291 274 273 274 c 0
EndSplineSet
EndChar
StartChar: uni0E48.alt2
Encoding: 63242 63242 350
Width: 0
VWidth: 1467
Flags: W
HStem: 694 178<6 45 6 45 6 6>
Fore
45 694 m 1
 -31 694 l 1
 6 872 l 1
 82 872 l 1
 45 694 l 1
EndSplineSet
Substitution2: "Single Substitution lookup 20 subtable" uni0E48.alt3
Substitution2: "Single Substitution lookup 21 subtable" uni0E48
Substitution2: "Single Substitution lookup 22 subtable" uni0E48.alt1
Substitution2: "Single Substitution lookup 20 subtable" uni0E48.alt3
Substitution2: "Single Substitution lookup 21 subtable" uni0E48
Substitution2: "Single Substitution lookup 22 subtable" uni0E48.alt1
EndChar
StartChar: uni0E49.alt2
Encoding: 63243 63243 351
Width: 0
VWidth: 1467
Flags: W
HStem: 669 47<-250 -206> 746 31<-177.014 -150.32> 878 33<-156.216 -115.04>
VStem: -216 35<777.143 852.258> -111 48<796.221 877.681>
Fore
-216 791 m 0
 -216 849 -155 911 -114 911 c 0
 -92 911 -63 896 -63 856 c 0
 -63 813 -100 741 -147 710 c 1
 -14 728 8 761 78 858 c 1
 138 858 l 1
 67 743 -14 669 -174 669 c 2
 -260 669 l 1
 -250 716 l 1
 -206 716 l 1
 -181 726 -161 733 -145 754 c 1
 -151 750 -163 746 -174 746 c 0
 -206 746 -216 768 -216 791 c 0
-127 878 m 0
 -148 878 -181 829 -181 797 c 0
 -181 780 -170 777 -163 777 c 0
 -133 777 -111 828 -111 856 c 0
 -111 875 -123 878 -127 878 c 0
EndSplineSet
Substitution2: "Single Substitution lookup 20 subtable" uni0E49.alt3
Substitution2: "Single Substitution lookup 21 subtable" uni0E49
Substitution2: "Single Substitution lookup 22 subtable" uni0E49.alt1
Substitution2: "Single Substitution lookup 20 subtable" uni0E49.alt3
Substitution2: "Single Substitution lookup 21 subtable" uni0E49
Substitution2: "Single Substitution lookup 22 subtable" uni0E49.alt1
EndChar
StartChar: uni0E4A.alt2
Encoding: 63244 63244 352
Width: 0
VWidth: 1467
Flags: W
HStem: 664 30<-259.454 -190.472> 756 31<-250.874 -201.297>
VStem: -307 39<703.887 774.486> -190 25<698.997 742.983> -53 41<765.18 846.414>
Fore
-165 714 m 0
 -165 681 -198 664 -227 664 c 0
 -246 664 -307 680 -307 740 c 0
 -307 797 -246 886 -182 886 c 1
 -135 836 l 1
 -94 886 l 1
 -87 886 l 2
 -34 886 -12 841 -12 795 c 0
 -12 774 -16 750 -29 725 c 1
 39 781 80 888 92 924 c 1
 140 924 l 1
 95 766 -6 679 -84 672 c 1
 -83 682 -89 687 -91 695 c 1
 -65 726 -53 769 -53 794 c 0
 -53 835 -80 851 -80 851 c 1
 -121 820 -117 815 -145 795 c 1
 -190 850 l 1
 -209 841 -232 827 -252 783 c 1
 -249 784 -233 787 -228 787 c 0
 -203 787 -165 752 -165 714 c 0
-245 756 m 0
 -256 756 -268 748 -268 736 c 0
 -268 720 -248 694 -215 694 c 0
 -196 694 -190 706 -190 714 c 0
 -190 731 -223 756 -245 756 c 0
EndSplineSet
Substitution2: "Single Substitution lookup 20 subtable" uni0E4A.alt3
Substitution2: "Single Substitution lookup 21 subtable" uni0E4A
Substitution2: "Single Substitution lookup 22 subtable" uni0E4A.alt1
Substitution2: "Single Substitution lookup 20 subtable" uni0E4A.alt3
Substitution2: "Single Substitution lookup 21 subtable" uni0E4A
Substitution2: "Single Substitution lookup 22 subtable" uni0E4A.alt1
EndChar
StartChar: uni0E4B.alt2
Encoding: 63245 63245 353
Width: 0
VWidth: 1467
Flags: W
HStem: 619 232<12 26> 697 63<-98 -21 56 129 -112 143 -98 -98>
Fore
129 697 m 1x40
 42 697 l 1x40
 26 619 l 1
 -37 619 l 1x80
 -21 697 l 1
 -112 697 l 1
 -98 760 l 1
 -7 760 l 1x40
 12 851 l 1
 75 851 l 1x80
 56 760 l 1
 143 760 l 1
 129 697 l 1x40
EndSplineSet
Substitution2: "Single Substitution lookup 20 subtable" uni0E4B.alt3
Substitution2: "Single Substitution lookup 21 subtable" uni0E4B
Substitution2: "Single Substitution lookup 22 subtable" uni0E4B.alt1
Substitution2: "Single Substitution lookup 20 subtable" uni0E4B.alt3
Substitution2: "Single Substitution lookup 21 subtable" uni0E4B
Substitution2: "Single Substitution lookup 22 subtable" uni0E4B.alt1
EndChar
StartChar: uni0E4C.alt2
Encoding: 63246 63246 354
Width: 0
VWidth: 1467
Flags: W
HStem: 648 46<-53.5078 -6.28946>
VStem: -99 45<699.017 767.134> 15 43<714.355 805.435> 158 53<930.242 995>
Fore
58 795 m 0
 58 745 17 648 -43 648 c 0
 -60 648 -99 657 -99 713 c 0
 -99 742 -91 798 -24 844 c 2
 6 864 l 1
 150 930 145 947 158 995 c 1
 211 993 l 1
 205 964 173 883 39 847 c 1
 53 828 58 812 58 795 c 0
-3 810 m 0
 -28 810 -54 764 -54 723 c 0
 -54 708 -50 694 -35 694 c 0
 -5 694 15 759 15 783 c 0
 15 796 11 810 -3 810 c 0
EndSplineSet
Substitution2: "Single Substitution lookup 20 subtable" uni0E4C.alt3
Substitution2: "Single Substitution lookup 21 subtable" uni0E4C
Substitution2: "Single Substitution lookup 22 subtable" uni0E4C.alt1
Substitution2: "Single Substitution lookup 20 subtable" uni0E4C.alt3
Substitution2: "Single Substitution lookup 21 subtable" uni0E4C
Substitution2: "Single Substitution lookup 22 subtable" uni0E4C.alt1
EndChar
StartChar: uni0E0D.alt1
Encoding: 63247 63247 355
Width: 955
VWidth: 1467
Flags: W
HStem: -6 51<168.893 226.478 575 720.357> 198 51<235.206 264.951> 526 55<299.367 328.515 328.515 333.807 333.807 519.185>
VStem: 118 50<51.5008 117.75> 267 49<100.368 189.059> 569 76<367.993 469.542>
Fore
316 185 m 0
 316 119 258 -2 171 -2 c 0
 134 -2 118 32 118 69 c 0
 118 74 118 79 119 84 c 2
 153 243 l 2
 168 313 210 402 289 446 c 1
 211 538 l 1
 220 580 l 1
 345 581 331 581 359 581 c 0
 502 581 599 579 637 474 c 0
 642 458 645 439 645 416 c 0
 645 389 641 358 634 323 c 2
 575 45 l 1
 593 45 l 2
 695 45 785 58 821 227 c 2
 896 581 l 1
 974 581 l 1
 901 235 l 2
 852 6 703 -6 564 -6 c 2
 489 -6 l 1
 558 326 l 2
 565 359 569 387 569 411 c 0
 569 484 532 518 438 526 c 2
 368 526 l 2
 354 525 347 525 298 525 c 1
 299 519 344 465 343 461 c 2
 333 415 l 1
 333 415 261 388 238 279 c 2
 230 242 l 1
 235 245 253 249 260 249 c 0
 279 249 316 239 316 185 c 0
187 51 m 0
 218 51 267 107 267 160 c 0
 267 181 259 198 245 198 c 0
 229 198 168 152 168 82 c 0
 168 61 175 51 187 51 c 0
EndSplineSet
EndChar
StartChar: uni0E0E.alt1
Encoding: 63259 63259 367
Width: 676
VWidth: 1467
Flags: W
HStem: -285 34<154.177 272.298> -189 43<141.931 250.198> -7 53<139.108 193.391> 195 52<142.375 195.889> 521 57<304.868 360.792 360.792 515.726>
VStem: 79 46<57.9338 178.387> 90 49<-245.116 -195.122> 573 78<362.729 460.103>
Fore
79 111 m 0xfd
 79 178 118 247 179 247 c 0
 192 247 204 243 214 235 c 1
 265 475 l 1
 212 536 l 1
 211 536 l 1
 220 577 l 1
 325 578 l 2
 486 578 596 577 640 473 c 0
 647 455 651 433 651 408 c 0
 651 383 647 355 641 323 c 2
 508 -301 l 1
 435 -301 l 1
 435 -299 l 1
 433 -299 l 1
 426 -278 406 -255 342 -224 c 1
 307 -266 261 -285 190 -285 c 0
 132 -285 90 -260 90 -227 c 0xfb
 90 -194 138 -146 229 -146 c 0
 249 -146 272 -148 327 -166 c 1
 345 -137 343 -122 351 -103 c 1
 409 -103 l 1
 405 -123 384 -169 372 -182 c 1
 403 -195 429 -212 450 -232 c 1
 563 326 l 2
 569 356 573 381 573 403 c 0
 573 500 488 524 416 524 c 0
 404 524 371 522 303 521 c 1
 304 518 332 482 331 477 c 2
 253 109 l 1
 253 109 239 -7 156 -7 c 0
 110 -7 79 49 79 111 c 0xfd
172 195 m 0
 149 195 125 154 125 116 c 0xfd
 125 78 150 46 166 46 c 0
 187 46 209 86 209 122 c 0
 209 159 188 195 172 195 c 0
202 -189 m 0
 169 -189 139 -196 139 -223 c 0xfb
 139 -246 176 -251 198 -251 c 256
 235 -251 282 -226 298 -213 c 1
 268 -193 222 -189 202 -189 c 0
EndSplineSet
EndChar
StartChar: uni0E0F.alt1
Encoding: 63260 63260 368
Width: 669
VWidth: 1467
Flags: W
HStem: -280 34<52.6724 141.197> -180 30<60.4756 157.968> -2 52<132.021 180.59> 199 52<137.601 193.925> 527 57<297 355.838 355.838 513.423>
VStem: 7 44<-234.918 -200.38> 73 46<59.4194 181.97> 567 78<366.932 465.718>
Fore
73 114 m 0
 73 180 112 251 172 251 c 0
 185 251 198 247 208 239 c 1
 260 481 l 1
 206 541 l 1
 215 582 l 1
 322 584 l 2
 484 584 590 583 634 478 c 0
 641 460 645 438 645 412 c 0
 645 387 641 359 635 327 c 2
 502 -296 l 1
 429 -296 l 1
 429 -295 l 1
 427 -295 l 1
 360 -198 l 1
 261 -295 l 1
 253 -276 215 -232 215 -232 c 1
 179 -264 138 -280 94 -280 c 0
 39 -280 7 -253 7 -224 c 0
 7 -178 72 -150 120 -150 c 0
 156 -150 187 -167 203 -179 c 1
 221 -159 241 -130 252 -101 c 1
 305 -101 l 1
 295 -120 286 -141 248 -195 c 1
 261 -212 268 -213 275 -229 c 1
 375 -129 l 1
 442 -224 l 1
 557 330 l 2
 563 360 567 386 567 408 c 0
 567 457 545 530 412 530 c 0
 401 530 366 528 297 527 c 1
 314 506 327 486 327 483 c 1
 248 113 l 2
 247 108 247 103 246 99 c 0
 236 51 205 -2 154 -2 c 0
 106 -2 73 52 73 114 c 0
167 199 m 0
 144 199 119 159 119 121 c 0
 119 85 139 50 158 50 c 0
 167 50 204 60 204 124 c 0
 204 158 194 199 167 199 c 0
51 -218 m 0
 51 -226 58 -246 99 -246 c 0
 120 -246 164 -232 183 -204 c 1
 164 -185 118 -180 110 -180 c 0
 71 -180 51 -210 51 -218 c 0
EndSplineSet
EndChar
StartChar: uni0E2C.alt1
Encoding: 63261 63261 369
Width: 849
VWidth: 1467
Flags: W
HStem: 0 21G<179 299 555.5 677.167> 324 54<215.115 247.596> 423 39<615.035 680.535> 525 55<220.369 272.886> 541 41<611.744 712.869>
VStem: 147 54<389.02 505.42> 286 66<413.133 515.315> 545 53<468.544 526.274>
Fore
545 490 m 0xf7
 545 547 622 582 683 582 c 0xef
 740 582 775 570 784 530 c 1
 818 556 837 572 863 606 c 1
 937 606 l 1
 886 536 825 487 768 456 c 1
 673 0 l 1
 597 0 l 1
 514 35 478 176 468 222 c 1
 427 146 343 42 255 0 c 1
 179 0 l 1
 248 326 l 1
 243 325 239 324 234 324 c 0
 196 324 147 367 147 436 c 0
 147 502 193 580 262 580 c 0
 317 580 352 523 352 464 c 0
 352 454 351 444 349 434 c 2
 269 57 l 1
 381 151 457 289 494 362 c 1
 523 202 575 80 604 59 c 1
 681 425 l 1
 668 423 652 423 649 423 c 0
 590 423 545 450 545 490 c 0xf7
248 525 m 0xf7
 230 525 201 483 201 447 c 0
 201 408 226 378 241 378 c 0
 264 378 286 419 286 456 c 0
 286 495 264 525 248 525 c 0xf7
674 541 m 256xef
 636 541 598 522 598 493 c 0
 598 468 636 462 657 462 c 256
 695 462 726 482 726 512 c 0
 726 535 698 541 674 541 c 256xef
EndSplineSet
EndChar
StartChar: uni0E24.liga
Encoding: 63617 63617 371
Width: 956
VWidth: 1448
Flags: W
HStem: -3 46<160.073 209.413> 523 58<293.469 362 362 520.539> 531 52<653.346 828.128>
VStem: 112 47<49.1493 111.528> 247 49<82.1244 171.173> 435 74<-232.744 342.572> 567 74<365.692 467.611> 855 82<370.493 376 387 399.988 399.988 410.726 405.357 497.992>
Fore
296 153 m 0xdf
 296 77 216 -3 162 -3 c 0
 130 -3 112 22 112 57 c 0
 112 65 113 74 115 84 c 2
 148 239 l 2
 166 326 218 408 286 446 c 1
 206 537 l 1
 205 537 l 1
 214 581 l 1
 339 581 l 2xdf
 490 581 528 573 565 555 c 1
 579 557 675 583 739 583 c 0
 856 583 941 521 941 425 c 0
 941 413 940 400 937 387 c 2
 803 -245 l 1
 723 -245 l 1
 855 376 l 2
 859 397 861 415 861 431 c 0
 861 513 807 531 737 531 c 0xbf
 697 531 640 519 614 514 c 1
 634 484 641 448 641 411 c 0
 641 381 637 351 631 323 c 2
 509 -248 l 1
 435 -246 l 1
 556 330 l 2
 561 355 567 383 567 411 c 0
 567 503 506 526 400 526 c 0
 370 526 354 523 324 523 c 0
 313 523 303 523 293 524 c 1
 339 462 l 1
 330 417 l 1
 330 417 261 389 235 280 c 2
 222 222 l 1
 230 225 237 226 243 226 c 0
 274 226 296 194 296 153 c 0xdf
176 43 m 0
 189 43 247 82 247 145 c 0
 247 162 242 177 228 177 c 0
 212 177 159 135 159 75 c 0
 159 57 164 43 176 43 c 0
EndSplineSet
LCarets2: 1 0 
Ligature2: "'liga' Standard Ligatures in Latin lookup 19 subtable" uni0E24 uni0E45
Ligature2: "'liga' Standard Ligatures in Latin lookup 19 subtable" uni0E24 uni0E32
EndChar
StartChar: uni0E26.liga
Encoding: 63618 63618 372
Width: 985
VWidth: 1467
Flags: W
HStem: -6 55<147.149 201.592> 198 53<151.957 205.054> 531 56<314 369.208 369.208 480.827 677.503 853.834>
VStem: 86 47<59.616 180.449> 459 75<-232.805 344.284> 587 80<361.402 467.235> 881 82<373.493 379 390 402.988 402.988 412.937 407.963 500.774>
Fore
86 113 m 0
 86 179 128 251 184 251 c 0
 198 251 211 247 223 239 c 1
 275 483 l 1
 222 544 l 1
 231 587 l 1
 368 587 l 2
 476 587 532 584 588 556 c 1
 623 565 696 585 764 585 c 0
 884 585 967 524 967 428 c 0
 967 416 966 403 963 390 c 2
 829 -242 l 1
 749 -242 l 1
 881 379 l 2
 885 399 887 417 887 433 c 0
 887 516 830 534 763 534 c 0
 739 534 700 530 637 516 c 1
 659 486 667 450 667 412 c 0
 667 385 663 357 657 329 c 2
 534 -248 l 1
 459 -248 l 1
 579 332 l 2
 584 355 587 379 587 403 c 0
 587 472 556 534 424 534 c 0
 398 534 349 532 314 531 c 1
 350 486 350 487 351 486 c 1
 269 101 l 2
 256 37 207 -6 166 -6 c 0
 121 -6 86 49 86 113 c 0
180 198 m 0
 161 198 133 158 133 118 c 0
 133 79 158 49 173 49 c 0
 195 49 217 87 217 125 c 0
 217 164 198 198 180 198 c 0
EndSplineSet
LCarets2: 1 0 
Ligature2: "'liga' Standard Ligatures in Latin lookup 19 subtable" uni0E26 uni0E45
Ligature2: "'liga' Standard Ligatures in Latin lookup 19 subtable" uni0E26 uni0E32
EndChar
StartChar: fi
Encoding: 64257 64257 373
Width: 573
VWidth: 1467
Flags: W
HStem: 1 21G<383 474.275> 449 76<112 168 273 478> 706 63<354.601 519.556>
Fore
436 706 m 0
 317 706 291 612 273 525 c 1
 582 525 l 1
 470 1 l 1
 383 1 l 1
 478 449 l 1
 256 449 l 1
 116 -210 l 1
 28 -210 l 1
 168 449 l 1
 95 449 l 1
 112 525 l 1
 185 525 l 1
 226 720 357 769 459 769 c 0
 507 769 559 748 580 728 c 1
 540 669 l 1
 519 690 481 706 436 706 c 0
EndSplineSet
LCarets2: 1 0 
Ligature2: "'liga' Standard Ligatures in Latin lookup 19 subtable" f i
EndChar
StartChar: fl
Encoding: 64258 64258 374
Width: 699
VWidth: 1467
Flags: W
HStem: 0 21G<522 601.161> 361 69<90 174 280 536> 716 53<402.868 671>
Fore
90 430 m 1
 188 430 l 1
 205 506 l 2
 254 739 388 764 534 769 c 2
 757 769 l 1
 597 0 l 1
 522 0 l 1
 671 716 l 1
 522 716 l 2
 364 716 327 652 296 508 c 2
 280 431 l 1
 551 431 l 1
 536 362 l 1
 265 362 l 1
 144 -208 l 1
 53 -208 l 1
 174 361 l 1
 76 361 l 1
 90 430 l 1
EndSplineSet
LCarets2: 1 0 
Ligature2: "'liga' Standard Ligatures in Latin lookup 19 subtable" f l
EndChar
